<svg xmlns="http://www.w3.org/2000/svg" viewBox="0 0 900 780" role="img">
  <title>安徽省市级地图</title>
  <style>
    .region{fill:#edf2e3;stroke:#16342f;stroke-width:0.7;stroke-linejoin:round;vector-effect:non-scaling-stroke}
    .region:hover{fill:#c84632}
  </style>
  <rect width="100%" height="100%" fill="#fdf7e7"/>
  <path class="region" id="adcode-340100" data-name="合肥" d="M421.8 503.9L423 504.5L424.5 506.9L426.5 506.7L427.4 508.9L430 513.3L431.1 516.2L432.6 519.2L432.6 521.9L432 522.6L432.7 525.8L432 528.1L434.3 529.8L436.7 529.9L439 527.8L440.9 530.3L443.5 532L445.1 534.9L445.6 536.9L447.7 538.5L451.3 542.2L452.3 542.6L453.8 542.1L454.8 540.1L455.8 540.1L457.1 541.6L458.6 541.8L460 541.2L460.9 541.8L462.5 545.2L461.9 545.8L462.7 547L464.1 546.8L464.4 545L467.7 543.3L471.1 544.6L471.9 542.5L473.3 541.6L477.6 540.6L479.1 539.6L477.4 535.9L476.3 535L476.4 534.2L477.5 533.6L479.6 533.4L481.1 530.7L481.6 528.9L481.1 526.7L479.7 525.1L480.3 523.9L481.5 523.5L481.9 520.8L484.5 519.6L485.3 517.7L484.8 515.1L482.1 513L481.2 511.8L483.1 511.1L484.9 509.8L485.6 507.2L487 505.1L487.3 504.1L486.9 501.9L490.6 501.2L492.2 498.6L494.3 498.2L496 494.9L497 490.8L499.5 484.9L501.5 482.6L501.9 479.2L503 475.4L504.8 474.1L507.2 474.6L509.2 473.5L510.6 474.4L511.8 472.2L513.9 471.9L516.2 472.4L518.1 471.5L520.4 471.9L525.2 469.4L526.4 469L528.6 469.2L530.6 471.2L531.9 471.3L534.3 469.8L532.7 466.7L531.2 466L532.7 464.3L531.4 463.8L529.8 464.1L528.8 462.6L527.4 462.9L527.3 461.5L528.1 460.4L529.8 459.9L530.7 458.2L530 457.2L530.8 457L530.3 454.8L530.9 453.9L530.6 452.8L531.4 451.6L534 451.6L533.8 453L535.1 452.5L535.3 450L534.7 449.4L534.1 447L534.6 446.6L532.4 445.3L531.2 445.3L531.4 444.2L530.3 443.8L528 440.7L528 439.1L528.8 436.4L528.3 434.1L529.4 432.5L527.6 431.7L527.1 430.2L528 428.8L526.6 425.4L527.4 422.4L528.1 421.2L530.7 419.2L531.5 417.3L532.7 412L530 409.9L528.3 409.7L526.4 408.7L524.8 409.1L522.6 408.7L522.6 406.4L522.3 405.1L520 404L519.8 402.3L518.7 401.6L517.9 399.4L515.7 398.3L518.3 396.5L518.4 393.8L519.5 392.7L522.1 391.9L524.6 389.5L522.6 387.8L522.4 386.4L521.4 385.3L522.6 384.8L522.4 383.5L520.6 383.6L521 381.1L523.1 378.6L522.1 370.8L520.1 367.7L518.4 367.1L516.8 365.8L515.3 367.1L513.3 367.4L512.1 365.6L510.9 364.6L509.2 364.4L507.3 363.4L505.8 363.7L503.8 365L503.2 363.9L502 363.2L499.1 362.9L499 361.5L496.6 361.5L494.1 363.2L494.1 362.1L493 363L491.9 363L490.9 364.6L489.5 364.6L487.4 365.8L484.7 367.9L478 369.7L476.1 368.4L474.4 366.8L472 365.3L470.4 364.9L469.4 364.1L469.2 361.7L467.1 360.5L465.6 358.2L467.6 353.1L468.9 351L471.5 349.7L471.2 346.4L466.8 345.2L465.2 343.3L462.5 344.1L461.2 343.8L463.4 341.9L464 340.3L464 337.2L465.4 334.1L467.1 331.8L465.4 330.4L463.8 332.4L461.9 333.7L457.4 335.7L455.1 334.3L453.2 335.4L452 335.5L450.1 334.3L447.4 333L444.4 332.6L443.1 331.3L443.4 330.7L443.2 328.2L443.4 325L442.1 322.5L438 322.4L436.9 322.2L436.1 323.5L434.7 324.4L433.3 323.8L431.9 324.2L431.2 323.4L429.3 322.8L428.1 323L426.8 325L427.5 325.7L426.9 328.5L426.1 329.8L426.4 331.8L426 332.9L423.6 336.1L423.7 337.3L422.7 339.4L421.1 339.7L419 341L418.4 343.6L420 344.1L423 343.7L423.4 344.3L423.2 349.1L422.5 349.9L423.1 351.2L424.2 350.8L424.8 351.9L423.6 353L422.2 356.7L422.5 358.6L423.5 359.3L424.8 358.2L426 358.8L426.6 360.7L425.1 365.2L423.6 366.6L419.5 366.9L418.3 368.4L418.4 369.8L420.9 371.5L420.8 373.4L420.2 374.6L418.8 375.6L415.9 375.6L415.3 377L416.2 380.4L417.6 381.9L419.1 382.3L420.3 385.1L420.7 388.1L421.6 389.5L423.6 391.3L423.5 392.8L422.8 395.2L421.5 397.6L420.4 398.5L417.5 399.6L417.5 397.7L416.2 396.7L414.4 396.3L413.4 396.8L412.7 395.5L410.7 394.7L408.7 396.7L409.4 398.8L410.3 400.1L408.4 401.4L403.3 402.3L401.7 403L400.9 404.3L398.8 406L397.6 407.8L395 409.8L392.6 409.7L390.3 411.3L389.5 412.3L383.7 415.1L383.4 415.8L384.3 416.9L384.7 418.8L386.6 418.8L385.6 420.2L382 422.5L380.8 424.2L381.1 425.7L383.4 428.2L384.1 430L385.2 429.5L385.9 430.6L385.5 432L388 431.9L388.7 432.4L388.9 434.6L388 437.2L389.2 439.6L389.3 443.2L389.9 445.2L388.7 447L388.1 448.7L388.3 450.2L389.6 452.8L389.8 456.9L389.3 457.9L389.9 459.5L392.5 462.4L392.9 463.3L394.3 464L394.6 464.9L395.7 465L397.4 466.9L399.3 465.8L403.3 465.1L406.1 465.6L410 464.2L412.2 465L413.9 463.9L414.9 463.9L416.3 464.8L416.8 464.2L416.8 461.3L418.1 460.9L418.7 462.8L422.7 464.1L424.5 463.2L425.8 462L431.4 463.9L432.9 463.3L433.8 463.5L434 462.3L435.4 461.8L436.4 463.2L440.4 462.2L441.8 462.2L444.4 463.9L445.4 463.2L447.1 468.4L448.2 469.1L448.1 470L446.5 470.9L440.1 470.6L438 470.9L435.9 471.9L435.1 473.5L431.5 478.2L429.3 482.4L426.9 487.3L426.8 489.2L427.7 491.3L426.8 492.8L426.3 494.7L426.4 497.7L425.6 499.3L423.4 500.2L423.4 502.2Z"/>
  <path class="region" id="adcode-340200" data-name="芜湖" d="M617.7 497.2L613 498.6L610.6 498.5L607.8 499L607.5 497.8L605.4 495.1L605 493.3L605.7 491.3L604 488.5L601.5 486.2L601.8 483.4L600.1 482.8L597.7 483.2L596.9 484.8L595.2 484.6L594.1 483.7L592.1 484.6L592 482.9L591.1 480L590.3 478.6L589.7 475.7L590.6 475L590.6 473.4L589.2 472.2L588.6 469.9L585.9 468.4L583.9 465L580.4 474.5L579.5 476.1L577.8 477.4L576.7 477.5L576.4 476.1L576.7 473.2L577.3 471.6L576 470L575.9 468.6L575.2 468.4L575 469.9L573.7 469.6L570.8 468.1L571 467.4L568.6 465.4L568.4 464.8L565 465.9L562.9 465.8L562.4 464.6L560.8 464.2L558.7 465.1L557.4 466.4L554.8 467.1L555 469.7L556 472.8L556.7 474L555.5 473.6L553.9 475L554.4 478.4L556.3 478.5L559.1 479.5L558.1 481.7L558.8 483.2L558.4 483.8L537.4 478.2L536 479L535.4 478.4L535.6 476.9L534.8 475.8L534.7 474.4L536.1 474.2L536.9 473.2L534 471.5L534.3 469.8L531.9 471.3L530.6 471.2L528.6 469.2L526.4 469L525.2 469.4L520.4 471.9L518.1 471.5L516.2 472.4L513.9 471.9L511.8 472.2L510.6 474.4L509.2 473.5L507.2 474.6L504.8 474.1L503 475.4L501.9 479.2L501.5 482.6L499.5 484.9L497 490.8L496 494.9L494.3 498.2L492.2 498.6L490.6 501.2L486.9 501.9L487.3 504.1L487 505.1L485.6 507.2L484.9 509.8L483.1 511.1L481.2 511.8L482.1 513L484.8 515.1L485.3 517.7L484.5 519.6L481.9 520.8L481.5 523.5L480.3 523.9L479.7 525.1L481.1 526.7L481.6 528.9L481.1 530.7L479.6 533.4L477.5 533.6L476.4 534.2L476.3 535L477.4 535.9L479.1 539.6L481 540.8L482.6 541.2L482.2 543.8L484.1 544.6L485.5 543.7L486.5 544.5L488.3 544.2L489.4 543.2L493.4 544L496.4 546L496.4 547.1L497.5 548.5L498.4 546.3L498.2 544.8L500.3 544.5L500.6 542.2L501.6 541.6L502.4 539.7L502 538.7L503.2 538.5L504.5 537.4L504.8 538.7L506.1 538.7L508.6 532L510.4 526.6L512.1 524.4L515.3 521.8L518.2 520.5L520.5 520.3L522.8 521.3L524 522.9L525.3 528L526.2 529.1L529.3 530.5L530.7 530.6L533.5 529.6L535.3 528.2L536.7 528.9L539.2 529.1L541.1 531L539.7 533.7L540.1 535.2L541.6 535.8L542.4 537.7L547 538.5L548.6 540.9L550.3 542.1L551.2 544.2L553.5 544.6L555.8 544.2L557.7 545.2L557.8 546.7L556.9 549.6L557.1 550.9L558.4 553.1L557.4 553.9L554.7 553.9L550.4 556.2L548.1 558.8L545.3 558L543.3 560.1L544.3 560.4L543.5 562.1L541.4 561.8L540.1 559.4L537.7 560.5L536.1 562L537.2 564.1L534.5 568.3L534.7 568.9L536.5 569L538.2 571.1L542.2 571.8L544.7 574L547.1 575.6L550.1 576.8L552.4 579.5L553.6 579.7L554 582L554.8 582.2L553.7 583.5L551.2 587.4L550.5 589L550.7 590.5L555 588.9L557 586.9L559.1 583.4L563.3 581.9L564.8 580.9L566.1 580.9L567.8 581.7L570.8 580.2L572.1 580.4L573.9 582.2L575.3 582.5L576.4 581.5L574.3 580L574 579.1L571.7 577.1L571.8 576.2L574 574.2L574.4 572.1L575.6 571.5L575 569.1L575.3 568.1L576.2 568.9L575.5 567.2L576.9 565.1L579.3 564.4L580.4 564.8L581.8 561.8L583.9 561.8L587.9 561.3L589.7 562.4L591.2 564.7L590.3 566.2L589.1 566.3L590.5 568.7L592.3 568.1L593.4 569.6L593 571.1L596.4 572.9L596.5 570.9L596.9 569.6L599.1 568L599.2 566.7L598.2 565.4L596.6 565L596.1 563.5L597.7 562.2L597.6 561.4L598.6 559.8L597 559.2L596.1 560.1L596.8 558.3L595.4 557.6L595.9 556.7L597.1 557.3L597.9 556.5L597.5 554.1L600.2 552.2L599.9 550.1L598.3 548.4L600.6 548.9L600 547L604.9 544.2L607.3 544L608.7 542.6L608.6 540.8L607.5 537.8L608.9 536.4L610.4 533.3L611.3 533.9L611 536.1L611.7 537.2L614.1 537.2L616.9 534.9L618.5 532.4L620.8 529.5L620 528.6L620.1 527.5L621.2 526.5L620.9 524.3L621.7 522.5L623.1 521L625 519.8L626.9 519L625.1 515.6L624 515.2L622.3 513.4L620.8 509.9L619.1 508.4L618.5 506.7L616.5 505.5L617.1 503.3L618.1 502.1L618.2 499.1Z"/>
  <path class="region" id="adcode-340300" data-name="蚌埠" d="M386 265.9L388.7 266.6L389.1 267.7L390 266.9L392 267.6L392.7 269.3L394.4 269.7L395.9 270.9L398.2 271.3L398.7 272L397.9 273.2L403.7 278L404.5 277.6L405.6 278.2L405.5 279.5L408.6 282L408.4 283L410.1 283.1L413.2 285.6L416.9 286.7L418.1 287.4L420.2 290.5L421.4 290.4L421.4 291.9L421.9 291.9L422.7 294L424.5 294.5L423.2 295.7L423.5 296.4L425.9 295.3L426.9 296.2L428.9 294.7L427.7 293.7L428.1 292.4L433 290.4L435.5 291.4L437.1 291.6L437.2 293L439.5 292.8L439.8 293.6L441.5 293.7L442.3 292.2L443.7 291.3L445.8 288.4L447.4 285.2L448.7 283.6L449.9 284.3L451.7 283.1L452.3 281.9L455 281.7L455.8 280.3L457.1 280.7L460.2 280.2L461.5 278.6L462.3 279L465.6 279.2L468 279.8L468.8 277.7L470 278.3L473.1 278.4L474.7 279L475.7 278.2L477.1 275.1L479.2 274.5L479.8 273.6L479.7 272L478.1 270.4L478.8 268.8L479.7 265.3L481.6 264.4L481.6 260.4L482 258.4L484 260L486.5 262.6L487.5 264.1L489 265.2L490.7 266.8L493.5 266.5L495.8 268.3L497.2 268.5L498.9 267.3L499.8 263.7L501.7 260.1L502.1 257.8L503.3 255.3L504.5 254.7L506.8 255.5L507.9 254.2L509.9 249.8L511.2 248.8L512.9 249.2L514.4 251.2L517.1 251.6L521.6 250.5L524 249.6L524.8 249L525.7 250.6L525.3 251.1L526.1 252.8L525.9 253.7L524 255.3L526.4 257.1L528.1 257.4L531 254.4L532.2 253.6L534.9 255.4L536.4 254L538.9 255.3L539.9 255.4L542.3 253.5L542.9 251.8L540.7 250.7L539.1 251.1L538.3 249.8L539 247.7L540.7 246.8L542.4 245L545.9 244.9L547.3 244L546.3 241.6L547.5 238.8L547.4 236.2L544.7 237.7L543.9 237.4L544.6 236.4L546.7 236.2L547 235.5L544.1 235.7L543.1 236.2L543 233.7L541.6 233.2L540.6 232L539.2 231.1L538.7 229.9L537.2 229.8L536.3 226.7L537.7 226.1L537.7 225.2L535.8 223.1L532.9 223.4L531.5 223.3L531.1 221.9L532.2 219.3L531.2 217.8L534.9 215.7L536.4 213L536.8 209.5L537.6 207.7L535.9 207.5L535.2 208.1L532.7 208.3L528.4 208.1L527.5 206L526.2 206.6L525.7 208L522.9 208.2L521.5 208.8L520.8 211.8L520 213.1L517.4 212.6L515.5 213L515.4 214.9L513.6 215.7L511.4 215L506.9 216L505.7 214.6L503.6 214.9L501.4 213.6L501.1 211.7L499.5 211L498.4 208.4L495.4 207.6L494.1 206.1L493.1 205.9L491.4 206.7L489 209.1L487.6 208.8L485.9 207.6L483 208.4L481.7 206.7L479.1 205.8L476.3 205.9L475.4 205.5L470.2 201L469 198L466.3 194.4L465.1 189.9L462 187.8L459.5 187.1L456.5 187L455.2 184.9L449.5 184L447.2 183.3L447.1 185L445.8 187.4L443 190.3L442.3 194.6L437.1 189.7L436.6 192.4L434.7 191.9L433.4 193L433.2 194.8L434.1 195.2L435.2 196.6L434 199.8L433 200.8L430.8 199.1L431 198.3L429.3 198.3L427.8 197L425.2 199.1L424.1 202.1L425.5 201.8L428.1 203L429.5 204.7L429.2 205.7L427.6 206L426.9 207.5L425.6 207.7L425.7 209.3L429 210.1L429.9 211.3L429.4 214.6L422 213.4L421 213L419.4 215.4L418.2 215.6L416.3 215.1L414.8 215.6L412.3 214.4L410.4 212.3L408.7 211.4L406.4 212.5L403.3 212.5L402.2 214.4L399.8 215.1L398.7 214.6L396.2 212.1L394.7 211.4L394 211.9L393.8 215.9L394.4 216L395.4 219.6L396.9 222.4L397 225.3L396.4 226.5L395.6 233.3L394.4 233.2L392.8 231.3L391 233.8L390.3 233.3L388.6 235.3L388.3 236.8L389.5 239.1L389.5 242.6L387.6 244.8L387.6 246.9L388 248L391.5 249.9L394 251L395.6 252.6L395.7 253.8L395 256.3L394.1 255.6L393.6 256.5L391.1 256.1L391.1 255.2L390 255.6L389.9 254.8L388.4 255.3L388.3 257.2L387.4 258.7L386.6 261.4L386.9 263.2Z"/>
  <path class="region" id="adcode-340400" data-name="淮南" d="M390.3 411.3L392.6 409.7L395 409.8L397.6 407.8L398.8 406L400.9 404.3L401.7 403L403.3 402.3L408.4 401.4L410.3 400.1L409.4 398.8L408.7 396.7L410.7 394.7L412.7 395.5L413.4 396.8L414.4 396.3L416.2 396.7L417.5 397.7L417.5 399.6L420.4 398.5L421.5 397.6L422.8 395.2L423.5 392.8L423.6 391.3L421.6 389.5L420.7 388.1L420.3 385.1L419.1 382.3L417.6 381.9L416.2 380.4L415.3 377L415.9 375.6L418.8 375.6L420.2 374.6L420.8 373.4L420.9 371.5L418.4 369.8L418.3 368.4L419.5 366.9L423.6 366.6L425.1 365.2L426.6 360.7L426 358.8L424.8 358.2L423.5 359.3L422.5 358.6L422.2 356.7L423.6 353L424.8 351.9L424.2 350.8L423.1 351.2L422.5 349.9L423.2 349.1L423.4 344.3L423 343.7L420 344.1L418.4 343.6L419 341L421.1 339.7L422.7 339.4L423.7 337.3L423.6 336.1L426 332.9L426.4 331.8L426.1 329.8L426.9 328.5L427.5 325.7L426.8 325L428.1 323L429.3 322.8L431.2 323.4L431.9 324.2L433.3 323.8L434.7 324.4L436.1 323.5L436.9 322.2L438 322.4L442.1 322.5L442.4 321.3L443.4 320.7L443.8 318.7L441.9 315.9L441.5 311.8L439 305.4L438.7 303.8L437.3 301.6L437.5 300.6L440.1 299.2L440.8 296.3L442.6 294.7L441.5 293.7L439.8 293.6L439.5 292.8L437.2 293L437.1 291.6L435.5 291.4L433 290.4L428.1 292.4L427.7 293.7L428.9 294.7L426.9 296.2L425.9 295.3L423.5 296.4L423.2 295.7L424.5 294.5L422.7 294L421.9 291.9L421.4 291.9L421.4 290.4L420.2 290.5L418.1 287.4L416.9 286.7L413.2 285.6L410.1 283.1L408.4 283L408.6 282L405.5 279.5L405.6 278.2L404.5 277.6L403.7 278L397.9 273.2L398.7 272L398.2 271.3L395.9 270.9L394.4 269.7L392.7 269.3L392 267.6L390 266.9L389.1 267.7L388.7 266.6L386 265.9L382.4 264.7L379.8 264.4L373 264.1L351.1 257.8L343.4 255L342.7 256.6L342.7 260.1L342.1 260.7L341.3 263.3L341.4 264.2L343.8 266.9L344.8 268.5L344.9 271.3L344.9 272.3L343.9 274.6L344.3 276.2L346.3 276.7L348.2 276.1L351 278.1L350.3 281.3L351.5 282.4L350.7 283.1L350.5 284.4L351.4 285.9L351.3 290L350.7 291.8L351 294L352.2 294.4L351.9 296.6L350.9 297.8L351 299L352.8 301.4L356 301.9L356.3 301.3L357.9 301.4L358.4 304L360.8 304.8L361.8 309L362.6 309.8L362.2 310.8L362.4 312.6L364.3 313L364.2 315.1L369.9 314.6L372.1 315.4L373.1 316.6L373.9 319.6L371.3 320.9L365.6 321L360.5 326L360.3 329.3L358.8 333L357 332.3L356.4 334.7L355.8 336L355.2 340.7L356.7 342.2L355.8 343.3L355.3 345.2L355.7 347.3L358.4 349.6L359.9 353.9L360.2 357L360.8 360.1L360.2 361.5L360.9 364.4L359.4 366.8L357.7 368L359.5 369.8L359.7 371L358.7 372.4L359.5 375.4L360.8 377L361.2 379.5L360.6 382.1L361.6 384.7L363.6 387.4L362.9 389L363.9 392.7L363.2 394.6L366.2 395.7L368.1 396L371.2 398.5L377.8 401.8L379.1 402L379.5 403.2L379.4 404.7L379.4 410.6L380.2 412.4L382 412.1L384.5 410.5L387.6 410.2Z"/>
  <path class="region" id="adcode-340500" data-name="马鞍山" d="M645.1 469.5L642.9 477.3L643.4 480.6L641.1 484.7L640.7 484.5L638.5 486.9L635 488.1L633.1 488.1L631.5 488.9L631 488.5L631.4 486.6L630.8 485.4L629.5 485.8L628.4 487.5L627.1 491.5L625.4 494.6L624.7 494.7L623.4 496.7L622 496.5L620.7 497.2L617.7 497.2L613 498.6L610.6 498.5L607.8 499L607.5 497.8L605.4 495.1L605 493.3L605.7 491.3L604 488.5L601.5 486.2L601.8 483.4L600.1 482.8L597.7 483.2L596.9 484.8L595.2 484.6L594.1 483.7L592.1 484.6L592 482.9L591.1 480L590.3 478.6L589.7 475.7L590.6 475L590.6 473.4L589.2 472.2L588.6 469.9L585.9 468.4L583.9 465L580.4 474.5L579.5 476.1L577.8 477.4L576.7 477.5L576.4 476.1L576.7 473.2L577.3 471.6L576 470L575.9 468.6L575.2 468.4L575 469.9L573.7 469.6L570.8 468.1L571 467.4L568.6 465.4L568.4 464.8L565 465.9L562.9 465.8L562.4 464.6L560.8 464.2L558.7 465.1L557.4 466.4L554.8 467.1L555 469.7L556 472.8L556.7 474L555.5 473.6L553.9 475L554.4 478.4L556.3 478.5L559.1 479.5L558.1 481.7L558.8 483.2L558.4 483.8L537.4 478.2L536 479L535.4 478.4L535.6 476.9L534.8 475.8L534.7 474.4L536.1 474.2L536.9 473.2L534 471.5L534.3 469.8L532.7 466.7L531.2 466L532.7 464.3L531.4 463.8L529.8 464.1L528.8 462.6L527.4 462.9L527.3 461.5L528.1 460.4L529.8 459.9L530.7 458.2L530 457.2L530.8 457L530.3 454.8L530.9 453.9L530.6 452.8L531.4 451.6L534 451.6L533.8 453L535.1 452.5L535.3 450L534.7 449.4L534.1 447L534.6 446.6L532.4 445.3L531.2 445.3L531.4 444.2L530.3 443.8L528 440.7L528 439.1L528.8 436.4L528.3 434.1L529.4 432.5L527.6 431.7L527.1 430.2L528 428.8L526.6 425.4L527.4 422.4L528.1 421.2L530.7 419.2L531.5 417.3L532.7 412L534.2 412.6L537.1 415.4L543.9 418.6L545.9 418.7L547.3 419.8L548.6 419.4L548.8 416.1L551.6 414.1L553.1 412L554.4 412.4L556.3 411.7L559.1 412.8L560.4 411.8L561.1 410.1L563.1 408.9L565 409.3L567.4 406.6L569.4 405.1L573.5 401.5L575.2 400.7L575.3 398.9L576.7 395.8L578.8 394.2L580.5 393.6L581.7 392.2L584.9 390.4L586 391.8L585 393.9L586.9 396L585.5 396.9L585.6 400.1L585.2 401L583.9 401.2L584.2 403.3L583 404.9L583 406.6L582.4 408.6L583.7 409.3L585 410.8L587.1 410.9L588.6 412.7L591.6 413.9L593 415L595.4 415.7L594.8 417.3L594.8 418.8L595.8 419.9L597.6 420.9L599.4 421.1L597.1 427.7L596.6 430.1L599.2 430.2L600.1 431.9L601.6 432.4L602.9 431.7L603.6 432.5L603.4 434.2L601.4 435.1L602.4 435.2L604.2 436.7L604.8 436.1L605.7 437L607.4 434.7L607.9 435.4L610 434.9L610.9 433.6L612 433.1L613.1 434.1L614.1 432.8L615.9 433L616.7 434.3L615.9 435L617.1 435.6L617.3 437L620.2 437.2L621.1 437.7L621.4 438.9L622.6 439.9L620.6 441.7L619.7 441.8L619.5 442.9L617.5 444.7L616.5 444.1L616.1 445.3L616.6 447L616.1 448.3L617.8 449.6L619.7 449.7L621.1 450.3L622.3 449.8L624.9 449.8L625.2 451.5L626.4 450.5L627 450.8L628.3 447.4L628.3 445.7L629.1 444.4L631.1 444.4L631.8 443.7L634.8 446L632.9 447.4L633.7 448.8L634.5 451.4L635.3 452.6L636.7 452.7L637.3 451.4L639 451.1L642 452L643.2 453.8L643.5 455.5L642.8 456.6L644.3 456.9L643.8 459.1L644.8 460.4L644 462.2L643.9 465L645.1 465.1L645.3 466.9Z"/>
  <path class="region" id="adcode-340600" data-name="淮北" d="M344.8 142.5L346.5 144.4L346.3 145.5L349.8 145.6L349.5 148.8L352.8 149.6L353.2 151.7L355.1 153.3L355 154.9L355.7 154.9L356.7 157.3L356.6 159.2L355.9 159.5L355.3 161.2L358.1 164.6L358.3 166.3L361.7 167L362.9 169.4L363.8 169.6L363.8 170.7L362.5 170.9L363.4 173.4L361.4 174.1L360.7 176.1L361 177.2L360.6 179.1L361.8 179.9L362.3 181.6L361.7 183.8L361.9 186.3L363.3 188.2L365.8 188.4L367.5 187.7L368.9 186.4L371.2 186.2L372.5 185.7L374 185.7L374.8 186.8L377.6 187.2L380.2 186.7L381.7 187.3L384.4 190.7L387.2 190.9L388.6 192.5L390.2 193.4L394.3 194.7L393.4 197.6L393.9 200L392.7 203.8L393.1 204.5L392.3 205.6L392.6 207.5L392.5 209.6L394 211.9L394.7 211.4L396.2 212.1L398.7 214.6L399.8 215.1L402.2 214.4L403.3 212.5L406.4 212.5L408.7 211.4L409.4 210L409.1 208.9L408 208.3L408.4 207.5L407.5 206L408.8 205.7L409.2 204L409.8 203.8L411 201.3L412.7 201.7L412.9 200.9L414.7 199.2L413.6 198.1L414.2 196.2L413.7 195.3L414.4 193.9L413.8 193.2L413.9 191.7L412.9 190.4L410.7 190.3L409.4 189L409.3 187.8L406.4 186.9L406.5 186.1L408.2 184.6L406.4 182.7L407.7 177.9L409.2 177.2L409.2 175.7L410.3 171.9L407.7 172.2L405.8 173.1L402.7 170.6L401.6 168.5L401 165.6L402 163.7L402.4 161.8L402.2 160.1L402.7 158.1L403.5 157.9L406.6 158.8L407.9 158.3L409.4 158.5L409.2 154.2L410.6 153.9L409.7 148.9L410 147.6L412 147.9L411.1 146.4L410.9 143.9L411.9 141.5L411.8 138.8L412 135.4L412.8 133.2L413 128.4L413.4 126.6L416.2 125.7L417.5 123.5L416.7 121.9L417.8 120L416.8 117.9L416.8 116.6L415.9 116.1L414.4 116.6L412.8 115.7L415.2 112L414.8 111.2L415.3 110L414.2 109L414.5 107.3L413.9 106.8L411.6 106.5L411.9 105.6L411.6 103.4L413.3 101.7L414.6 99.5L412.5 99.7L409.4 99.3L409.3 97.8L406.9 96.6L406.1 96.7L404.5 99L402.7 100.3L399.9 99L399.3 100.9L397.8 101.4L397.2 102.5L395.8 100.4L396 98.5L394.5 99.8L395.2 101.2L394.8 101.7L394 106.3L394.7 109.2L394.1 111.9L393.3 110.5L391.9 110L391.9 109.4L388 109.1L387.2 108.6L385.8 109.3L385.4 108.7L383.1 109L382.2 109.7L380.5 108.7L379.2 109.6L377.2 108.4L375.5 107.9L372.9 108.5L370.2 107.9L370 109.9L370.5 111.1L373.3 113.4L373.7 114.4L375.4 114.9L375.7 117L374.5 118.5L375.2 121.2L374.3 123.1L374.8 126.7L372.9 127.2L371.1 126.4L369.3 125L367.4 124.4L365.7 124.4L364.6 125.3L364.2 127.3L364.6 128.3L363.2 128.1L362.3 129.3L362 128.1L360.6 128.4L360.2 129.8L358.2 129.6L357.8 130.7L355.8 130L354.5 131.2L352.8 131.4L351.9 133.3L350 133.3L349.5 137.9L350 139.6L349.5 140.8L348.1 140.6L346.5 139.3ZM421.7 86.8L420.9 86.6L421.6 83.9L422.8 81.7L423.6 81.1L424 78.8L423.3 78.3L423.9 75.7L423 74.8L421.6 75.7L422.1 77.3L421.5 78.8L420.5 79.9L419 79L418.8 77.1L417.2 78.6L416.5 81.1L417.3 81L415.5 82.5L415.8 85.9L417.1 86.5L415.5 88.3L415.8 86.7L414.9 86.4L414.5 88.5L415.7 91L418.1 90.3L418.5 89L419.4 89.3L420.7 87.5L421.7 88.4Z"/>
  <path class="region" id="adcode-340700" data-name="铜陵" d="M436.7 529.9L436 531.9L435.3 532.5L435.3 534.6L434.5 536L434.9 538L434.1 539.1L432.9 539.1L431.3 538.2L429.2 538.7L429.4 541.7L427.9 543.6L427.6 545.5L430.7 564.3L430.6 569.5L430.1 572.8L432 574.4L432.9 576.6L437.5 581L439.4 581.9L440.5 581.3L440.9 582.4L442.1 582L442.6 583.3L447 583.6L444.9 584.1L443.6 585.2L442.9 586.5L442.7 588.6L443.4 591.3L444.1 591.9L450.8 588.3L455.2 585.5L459.3 583.8L462.1 583L465.5 582.9L466.1 583.5L468.8 584.6L472.3 585.2L474.6 585.2L476.4 584.1L477.4 582.7L479.1 578.5L487.5 574.3L495.7 571.5L498.8 570.8L502.5 567.3L502.1 569.6L504.8 569.4L507.4 567.2L508.5 567.8L509.1 569.3L508.2 571.2L509.5 572.4L509.3 573.6L512.2 573.2L512.4 575.2L513.9 575.4L514.7 574.2L516.3 573.8L519.5 571.9L520 569.8L523.1 567.1L524.5 566.5L526.8 566.2L528.3 565.4L530.6 563.2L531.7 563.5L532.9 565.7L536.1 562L537.7 560.5L540.1 559.4L541.4 561.8L543.5 562.1L544.3 560.4L543.3 560.1L545.3 558L548.1 558.8L550.4 556.2L554.7 553.9L557.4 553.9L558.4 553.1L557.1 550.9L556.9 549.6L557.8 546.7L557.7 545.2L555.8 544.2L553.5 544.6L551.2 544.2L550.3 542.1L548.6 540.9L547 538.5L542.4 537.7L541.6 535.8L540.1 535.2L539.7 533.7L541.1 531L539.2 529.1L536.7 528.9L535.3 528.2L533.5 529.6L530.7 530.6L529.3 530.5L526.2 529.1L525.3 528L524 522.9L522.8 521.3L520.5 520.3L518.2 520.5L515.3 521.8L512.1 524.4L510.4 526.6L508.6 532L506.1 538.7L504.8 538.7L504.5 537.4L503.2 538.5L502 538.7L502.4 539.7L501.6 541.6L500.6 542.2L500.3 544.5L498.2 544.8L498.4 546.3L497.5 548.5L496.4 547.1L496.4 546L493.4 544L489.4 543.2L488.3 544.2L486.5 544.5L485.5 543.7L484.1 544.6L482.2 543.8L482.6 541.2L481 540.8L479.1 539.6L477.6 540.6L473.3 541.6L471.9 542.5L471.1 544.6L467.7 543.3L464.4 545L464.1 546.8L462.7 547L461.9 545.8L462.5 545.2L460.9 541.8L460 541.2L458.6 541.8L457.1 541.6L455.8 540.1L454.8 540.1L453.8 542.1L452.3 542.6L451.3 542.2L447.7 538.5L445.6 536.9L445.1 534.9L443.5 532L440.9 530.3L439 527.8ZM453.7 612L452.9 613.6L451 615.1L448.9 616L448.7 616.7L450.1 618.4L449.1 620L448.3 620.2L448.3 621.4L450.3 621.4L451.8 622.2L454 620.7L453.3 618.5L454.7 617.8L455.9 615.6L456.7 615.5L457.3 614.4L457 612L456.5 611.3L455 611ZM413.2 592.2L415.1 590.1L414 588.2L412.7 588.1L412 588.4L410 587.6L408.5 588.6L408.3 589.8L410 591.7Z"/>
  <path class="region" id="adcode-340800" data-name="安庆" d="M406.2 630.2L407.1 633.6L408.3 636.2L409.3 639.5L409.1 641.9L408.3 644.1L405 646.5L401.9 650.3L401 655.3L398.8 659.6L395.8 664L390.4 669.8L387.4 672.1L384.2 672.5L380 670.2L377.7 669.4L374.8 669.4L371 670.2L369.2 671.7L368 673.6L366.2 678L366.2 681.5L365.4 687.1L364.7 690.6L363.9 692.6L362.6 693.7L360.7 694.3L355.2 694.3L353.7 694.5L350.6 696.8L344.6 700.1L340.7 701.8L338.7 702.9L336.2 705.1L335 706.6L331.2 709.4L328.8 710.4L327.9 710.2L324.7 705.5L322.4 704L319.9 703.8L317.5 704.1L313.6 705.2L313.2 701.7L313.5 697.1L312.5 693.8L309.8 690.2L307.6 686.9L306.7 686.2L306.2 684.2L307.1 682.6L306.7 678.6L308 676.3L308.4 675L306.9 672.1L306.9 670.8L307.5 669.5L307.4 666.7L308 664.7L307.6 662.5L306.3 661.4L304.9 658.9L304.1 656.4L304.1 654.8L305 653.1L305.1 651.2L302.9 648.8L301.1 648.4L300.5 646.6L298.8 645.3L296.7 644.5L296 642.8L295.5 639.5L295 638.8L292.3 637.5L289.9 637.2L287.9 638L285.8 636.8L285.7 636L287 634.8L287.3 633.4L284.8 630.3L283.4 627.1L285.3 624.5L286.4 624.4L287.8 621.9L289 621.4L289.8 621.7L290.8 620.7L287.7 620.1L287.1 618.1L284.6 616.9L284.5 615.9L285.3 614.5L285 612.7L286.4 609.3L287.6 608.1L285.9 606.8L285.2 604.9L283.8 604.3L283.2 601.9L282.3 600.5L282.7 599.3L281.2 597.9L280.1 597.7L279 596L276.6 595.4L276.1 596.8L275.5 596.5L274.1 594.1L275 592.8L274.4 590.3L273 589.2L272.8 588L270.2 586.6L269.8 585.3L268.7 584.2L269.2 583L269 581.2L270.3 578.2L271.1 575L272.3 573.9L274.4 573.9L275.6 575.1L277.4 574.3L279.4 574.3L279.7 572.8L281.4 571.8L281.6 570.7L280.3 570.3L281.1 568.4L280.9 566L279.1 564.2L279.1 562.4L280.9 560.4L281.1 559.2L282.5 558.5L283.5 557.3L286.8 555.9L289.1 555.6L289.6 553.7L293.7 551.3L294.4 549.7L296.5 549L298.5 547.2L300.3 546.6L301.5 547L302.1 546L305.9 546.2L305.7 544.4L304.6 540.8L304.4 538.3L302.9 538L303.5 534.1L303.4 533.1L305.3 530.2L308.5 528.4L308.6 527.4L309.9 526.8L311.6 527.9L316.3 526.1L317.3 526.3L319.2 528.3L319.5 530.9L321.8 531.9L324.1 531.4L326.7 529.4L328.8 528.5L329.7 526L332.6 523.9L333.9 522.7L334.7 520.3L337.2 519.6L338.6 518.6L338.9 517L340.7 515.6L343 516.8L345 517.3L347.4 517.2L349.4 519.8L350.1 522L352.8 522.4L354 521L355.4 520.8L357.2 519.1L357.8 520.2L358.6 520L360 517.5L362.2 515.5L362.8 514.5L364 514.8L364.4 515.8L364 516.7L364.6 519.3L364.3 522.7L365.2 524.4L363.6 527L362.3 529.9L361.6 532.1L361.8 533.9L361.3 535.1L361.3 537.1L362.9 537.2L364.9 535.2L365.3 533.7L366.2 532.8L368.7 533.4L369 532.5L371 530.6L371.3 529.7L372.4 529.7L375.3 531.8L376.2 532.7L377.6 531.8L379.7 532.2L380.3 533.2L382.9 534L384.5 531.7L386.1 531.1L388.1 531.5L389.1 530.5L391.1 530.2L392.4 530.9L394.5 528.5L395.7 528.1L397.3 525.8L399 525.4L398.9 524.1L399.5 522.5L401.3 521.8L402.9 522.1L405.2 521.3L408.2 518.8L408.6 517.5L411.1 517.3L411.5 514.3L412.3 513.4L413.5 509.9L415.6 505.6L417.7 503.9L418.7 502.4L419.9 502.5L421.8 503.9L423 504.5L424.5 506.9L426.5 506.7L427.4 508.9L430 513.3L431.1 516.2L432.6 519.2L432.6 521.9L432 522.6L432.7 525.8L432 528.1L434.3 529.8L436.7 529.9L436 531.9L435.3 532.5L435.3 534.6L434.5 536L434.9 538L434.1 539.1L432.9 539.1L431.3 538.2L429.2 538.7L429.4 541.7L427.9 543.6L427.6 545.5L430.7 564.3L430.6 569.5L430.1 572.8L432 574.4L432.9 576.6L437.5 581L439.4 581.9L440.5 581.3L440.9 582.4L442.1 582L442.6 583.3L447 583.6L444.9 584.1L443.6 585.2L442.9 586.5L442.7 588.6L443.4 591.3L444.1 591.9L444.2 593.3L447.8 597.7L448.3 601.3L446.4 609.6L445.2 611.8L443.6 613.5L441.1 615L437.7 613.8L434.2 611.4L431.3 610.9L421 611L419.2 611.7L416.2 614.3L414.9 616.1L411.9 618.2L410.1 618.6L407.6 620.7L406 619.1L404.9 619.9L404.9 622.2L404.4 623.2L405.1 626.8ZM412.7 588.1L412 588.4L410 587.6L408.5 588.6L408.3 589.8L410 591.7L413.2 592.2L415.1 590.1L414 588.2Z"/>
  <path class="region" id="adcode-341000" data-name="黄山" d="M643.3 665.9L641 664.7L637.5 665.7L633.7 669.1L631.1 669.3L629.5 668.8L628.1 667.1L626.6 670.3L622.6 672.1L622.3 674.9L621.5 676L619.2 676.7L617 676.6L614.2 677.7L612.6 679.8L613.1 680.4L612.5 682.8L611.5 684L608.8 684.5L607.8 685.1L606.6 687.3L604.6 687.7L601.8 684.6L601.3 683.5L601.7 681.1L601.2 680.2L599.9 680.3L599.5 681.2L598.6 679.2L598.6 677.5L600.4 675.8L600.5 674.6L598.1 670L596.1 669.4L595 668.6L592.7 665.7L588.9 666.5L587.3 666.2L586.1 665.2L584.9 666.5L583.2 666.2L581.3 664.5L581.5 663.1L580.4 661.3L579.4 656.9L577.9 655.6L576 653.1L573.5 652.2L573.4 649.5L573 647.6L571.3 646.8L570.8 646.1L570.6 643.8L571.2 642.4L573.8 640.5L575.3 640.4L577.1 639.1L576.1 639.2L574 637.9L575.6 636.9L575.9 635.3L574.9 634.1L574.6 632.5L575.3 631L574.1 630.1L574.7 628.4L572.3 628.1L572 627L570.5 627.5L569.3 627.2L568.7 625L567.2 624.2L565.2 622.2L565.4 620.9L564.5 618.9L566 618.7L566.4 617.8L565.6 616.5L564.3 615.7L564.3 614.9L562.2 614.6L560.9 615.2L561.2 613.8L558.8 616.8L560.3 617.5L558.2 617.7L557.5 619.4L555.7 619.5L554.2 620.1L553.6 620.9L551.5 620.1L551.7 616.9L551 615.1L552.7 612.6L553.1 611.2L554.3 610.5L552.7 608.9L549.3 607.8L547.6 608.1L545 609.7L542.7 610.5L540.5 610.2L536.8 610.4L534.9 608.5L534.1 609.1L532.6 611.8L532 614.9L532 616.5L531.1 620.7L531.4 622.3L532.8 623.7L532.8 625.3L531 627.3L528.4 628.9L529.8 630.2L531.3 633.4L529.5 633.9L530.3 634.5L529.9 635.4L528.9 635.4L527.4 636.8L528 638.3L526.7 639L524.8 639.2L525 642.5L522 642.9L519.6 643.7L517.4 646.4L517.9 648.6L521.4 649.7L521.8 650.9L520.7 653.3L520 653.2L518.1 654.6L516.8 654.6L514.1 657.2L511.7 658.2L507.5 658.6L502.2 660.1L500.2 661.5L500.7 662.5L499.1 663L499.4 665L497.8 664.9L497 664L495.8 664.1L495.4 665.3L494 666.2L492.1 664.5L491.5 661.7L490.2 662L488.4 663.6L487 663.9L486.5 665.1L485.5 665.6L486.8 665.9L486.4 667.8L485.4 668.4L484.7 665.9L483.7 665.9L483.1 664.6L481.7 666.2L482.5 668.4L483.5 668L482.5 669.4L483.3 672.7L479.6 674.9L477.3 675.2L473.6 674.8L471.7 676.8L470.1 677.2L467.5 675.8L465.4 675.9L464.5 678.5L460.1 678.9L457 680.3L455.2 680.2L453.8 681L450.1 682.4L449.3 682.1L442.8 683.6L442.4 684.9L442.8 690.1L444.1 690.2L447.6 691.9L448.5 692.7L449.5 696.7L448.9 699.6L448 701.5L448.9 703.5L450.6 703.7L451.4 704.4L453.2 704.7L453.7 702.7L454.4 702.3L457.2 701.8L458.1 700.8L458.7 701.2L459.8 704.8L460.9 706L463.2 705.4L464.2 701.8L466.5 701.1L468.4 700.9L469.1 703L467.2 707.5L467.8 709.5L470.3 713.3L471.3 713.6L472.8 714.9L473 718.2L472.4 722.3L475.1 726.2L477.4 727.4L480.2 726.8L481.9 728.1L481 731.5L482.3 735.8L483.4 737.2L483.8 736.4L485.2 737L487.1 736.9L488.6 737.7L491.3 736.8L493.7 734.8L496 733.6L497.7 734L498.6 736.1L499.8 736.3L500.2 737.4L500.3 740.1L501.2 741.7L503.2 742.7L506.7 742.4L508.7 741.1L510.9 741.6L513.8 739.7L515.2 739.3L517.1 739.5L518 740.6L520.6 741.9L522 742L523.6 743.1L525.2 743.1L528.9 741.9L531.1 742.6L533 740.5L534.2 739.8L536.6 741L537.8 739.4L539 738.7L540.2 738.8L543.7 740.3L544.6 743.5L548.5 744.8L551 745.2L551.7 746.5L554.7 748.3L555.7 749.5L555.8 750.9L553.9 753.4L555.1 755.7L555.2 758.1L554.1 758.8L554.9 760.7L558.2 761.7L559.8 762.7L561.2 762.5L561.8 764L563.1 764L564.8 760.5L566.6 760L568.5 759L569.3 759.7L570.8 759.5L571.8 760.1L573 759.6L573.6 760.6L576.6 760.2L576.6 756.3L575.5 752.3L575.9 750L577.6 749.9L580.4 753.1L581.7 752.7L584.3 749.1L584.8 748.1L585.9 748.5L588.5 748.1L590.3 749L592.6 747.6L593.7 748.6L596.3 748L598.3 746.8L598.5 743.4L598.2 742.1L598.9 739L603 736.9L604.8 733.8L605.4 733.8L607.7 730.3L611.1 729.6L613.2 728.1L614.9 728.9L615.8 729.8L616.5 729.6L619.8 726L620.8 723.6L623 720.9L625.2 720.5L625.9 718.6L628.3 716.4L628.8 713.3L628.2 710.7L627.3 709.5L627.7 706L628.4 705.3L630.1 705.5L630.8 704.7L629 703.5L629.6 701.6L631 701.1L632.4 702L635.3 699.4L635.9 698.5L639.9 695.2L640.4 694.1L640.4 691.8L639.6 689.2L640.8 688.2L642.7 688.8L643.6 687.4L645.2 688.5L646.4 688.7L646 685.6L647 682.6L646.1 680.8L646.4 679.9L645.9 678.4L646.8 677.6L647.3 676L645.9 674.3L646.7 672.8L645.6 671.4L644.5 671L644.1 670L643.8 666.9Z"/>
  <path class="region" id="adcode-341100" data-name="滁州" d="M532.7 412L534.2 412.6L537.1 415.4L543.9 418.6L545.9 418.7L547.3 419.8L548.6 419.4L548.8 416.1L551.6 414.1L553.1 412L554.4 412.4L556.3 411.7L559.1 412.8L560.4 411.8L561.1 410.1L563.1 408.9L565 409.3L567.4 406.6L569.4 405.1L573.5 401.5L575.2 400.7L575.3 398.9L576.7 395.8L578.8 394.2L580.5 393.6L581.7 392.2L584.9 390.4L585.9 389.7L586.1 387.9L587.3 387.9L588.5 386.2L590.8 386.3L591.7 385.5L594.4 384.3L595.5 382.3L597.5 381.5L598.7 381.5L598.2 379.7L598.9 378.5L599.7 379L598.3 375.1L598.4 373.2L599.6 372.7L600 371L601.8 371.7L602.7 370.8L603.6 371.2L605 370.2L606.2 370.6L607.8 369.8L608.5 370.4L610.6 370.2L613.2 369.4L614 369.8L616.2 368.7L619 365.1L620 362.3L619 362L618 360.7L619.4 358L619 356.4L618.1 356.4L618.1 355.1L620.3 353.5L622.3 353.5L620.9 352.3L621.4 351.6L623.3 351.8L623.9 350.4L622.6 349.8L622.9 348.8L622 348.5L623.1 347.6L622.4 346.2L622.8 344L621.7 344.7L620.3 342.5L621.2 340.9L621.6 338.7L621.3 337.4L622 332.3L621.6 331.1L619.9 331.6L616.6 330.7L616.1 331.6L614.2 332L611.9 331.6L611.8 330.8L610 330.4L609.9 327.4L611.8 327.1L612.9 325.6L612.6 324.4L611.4 324.1L611.9 322L610.7 321L609 320.3L606.5 318.1L607.2 315L608.6 313.8L610.6 312.8L611.1 313.4L613.7 314.1L614.8 316.1L617.1 314L619.1 313.8L621.6 314.7L621.6 312.4L622.5 314.7L623 314.7L622.7 312.1L626 311.9L626 313.6L627.8 314.6L628.2 313.2L629.8 312.5L632 313.4L631.9 314.7L633.1 315.5L635.2 315.3L636.6 312.9L638 312.8L637.9 314.5L637.3 315L638.3 315.9L638.2 316.9L640.8 317.6L641.7 316.7L643.7 316.5L645.6 314.9L648 314.1L648.1 314.9L646.6 316.3L646.9 318.7L645.6 319.2L648.9 320.3L649 319.3L651.4 319.1L651.9 320.5L654.8 323.5L655.2 325.3L656.6 326.8L658.8 326.8L660 325.3L661.7 324.8L664.1 325.2L664.6 327.6L666.8 329.9L667.2 332.7L668 333.7L669.3 334.1L670.7 332.2L673.6 330.2L675.3 328.6L676.9 328.4L676.2 327.4L677.2 325.9L677.8 323.3L679.3 322.2L679.2 320.8L677.7 319.5L677.6 318.5L680.2 317.2L680.4 313.9L681.6 313L682.5 316.1L684.3 316.8L685.6 316.4L685.6 314.1L686.9 312L685.7 311.6L685.2 310.6L685.6 308.8L684.2 306.9L684.6 297.5L684.3 296.5L684.2 292.9L683.3 291.4L682.1 286L681.9 282.8L681.4 280.7L672.7 281.1L671.7 280.5L667.7 275.1L665.7 273.6L664.6 271.1L664.5 268.4L661.4 269.3L660.9 268.3L661.5 266.3L662.6 266.2L661.9 264.9L662.3 263.2L661.6 262L660.2 261.5L658.3 261.7L654.4 263.4L652 263.4L651.1 264.5L649.6 264.3L647.7 263.5L646.2 264.2L646 262.6L646.6 261.7L645.2 261.3L642.8 262.1L640.9 261.9L640.9 263.4L640.1 263.8L640.9 266.1L639.7 266.8L639.4 268.4L637.3 267.1L636.4 267.6L636.1 268.9L636.7 269.6L636.3 273.5L635.7 274.3L636.5 275L636.4 276.5L633.9 277.4L631.1 277L628.7 276L627.9 276.7L628.5 284.3L627.3 285.3L627.5 288.2L628.5 290.2L629.1 290.5L629.8 292.4L629.7 293.4L627.3 294.1L625.8 295.6L623.8 295.8L622.2 294.9L617.8 293.5L617.4 292.9L615.6 292.3L614.7 293L612.9 293.1L611.7 294.9L609.7 295.2L608 296L606 294.4L604.2 294.5L601.2 295.4L597.5 295.2L596.8 295.7L593.9 295L592.8 292.5L589.5 296.1L588 296.4L586.6 295.7L583.7 296L582.9 295.2L582.7 293.7L583.4 292.7L583.2 290.4L582.6 288.9L580.5 288.3L578.8 289.9L577.8 289.6L577.2 287.5L575.5 287.4L574.5 286.4L574 284.4L575.5 282.9L574.4 279.8L574.9 277.7L573.4 277.9L572.8 276.2L570.2 276.3L568.7 277.4L568 273.7L567.4 272.6L566.6 267.7L566.9 266.2L568.4 265L573.9 263.3L575.8 261.6L575.1 260.2L571 260.1L568.9 258.2L568 255.9L567.8 251.7L567.4 249L566.6 247L564.1 246.7L564.4 245.4L565.9 245.7L565.5 243.6L562.9 243L563.4 242.5L565.2 243L565.1 240.4L563.8 240.6L563.9 239.6L565 239.2L565.5 233.3L565.2 229.4L564 227L561.9 225.2L560 224.3L558.8 224.9L557.3 227.5L557.8 229.6L556.5 231.3L552.8 232.5L549.1 234.1L547 235.5L546.7 236.2L544.6 236.4L543.9 237.4L544.7 237.7L547.4 236.2L547.5 238.8L546.3 241.6L547.3 244L545.9 244.9L542.4 245L540.7 246.8L539 247.7L538.3 249.8L539.1 251.1L540.7 250.7L542.9 251.8L542.3 253.5L539.9 255.4L538.9 255.3L536.4 254L534.9 255.4L532.2 253.6L531 254.4L528.1 257.4L526.4 257.1L524 255.3L525.9 253.7L526.1 252.8L525.3 251.1L525.7 250.6L524.8 249L524 249.6L521.6 250.5L517.1 251.6L514.4 251.2L512.9 249.2L511.2 248.8L509.9 249.8L507.9 254.2L506.8 255.5L504.5 254.7L503.3 255.3L502.1 257.8L501.7 260.1L499.8 263.7L498.9 267.3L497.2 268.5L495.8 268.3L493.5 266.5L490.7 266.8L489 265.2L487.5 264.1L486.5 262.6L484 260L482 258.4L481.6 260.4L481.6 264.4L479.7 265.3L478.8 268.8L478.1 270.4L479.7 272L479.8 273.6L479.2 274.5L477.1 275.1L475.7 278.2L474.7 279L473.1 278.4L470 278.3L468.8 277.7L468 279.8L465.6 279.2L462.3 279L461.5 278.6L460.2 280.2L457.1 280.7L455.8 280.3L455 281.7L452.3 281.9L451.7 283.1L449.9 284.3L448.7 283.6L447.4 285.2L445.8 288.4L443.7 291.3L442.3 292.2L441.5 293.7L442.6 294.7L440.8 296.3L440.1 299.2L437.5 300.6L437.3 301.6L438.7 303.8L439 305.4L441.5 311.8L441.9 315.9L443.8 318.7L443.4 320.7L442.4 321.3L442.1 322.5L443.4 325L443.2 328.2L443.4 330.7L443.1 331.3L444.4 332.6L447.4 333L450.1 334.3L452 335.5L453.2 335.4L455.1 334.3L457.4 335.7L461.9 333.7L463.8 332.4L465.4 330.4L467.1 331.8L465.4 334.1L464 337.2L464 340.3L463.4 341.9L461.2 343.8L462.5 344.1L465.2 343.3L466.8 345.2L471.2 346.4L471.5 349.7L468.9 351L467.6 353.1L465.6 358.2L467.1 360.5L469.2 361.7L469.4 364.1L470.4 364.9L472 365.3L474.4 366.8L476.1 368.4L478 369.7L484.7 367.9L487.4 365.8L489.5 364.6L490.9 364.6L491.9 363L493 363L494.1 362.1L494.1 363.2L496.6 361.5L499 361.5L499.1 362.9L502 363.2L503.2 363.9L503.8 365L505.8 363.7L507.3 363.4L509.2 364.4L510.9 364.6L512.1 365.6L513.3 367.4L515.3 367.1L516.8 365.8L518.4 367.1L520.1 367.7L522.1 370.8L523.1 378.6L521 381.1L520.6 383.6L522.4 383.5L522.6 384.8L521.4 385.3L522.4 386.4L522.6 387.8L524.6 389.5L522.1 391.9L519.5 392.7L518.4 393.8L518.3 396.5L515.7 398.3L517.9 399.4L518.7 401.6L519.8 402.3L520 404L522.3 405.1L522.6 406.4L522.6 408.7L524.8 409.1L526.4 408.7L528.3 409.7L530 409.9Z"/>
  <path class="region" id="adcode-341200" data-name="阜阳" d="M238 331.8L236.6 328.3L235.8 327.9L235.4 325.8L234.3 325.7L234.2 324.4L232.9 324.5L229.6 322.7L230.2 321.2L229.1 320.9L228.7 319.8L226 320.2L226.5 318.8L226.3 316.7L225.3 316.4L223.5 317.2L216.4 318.6L215.9 319.3L213.5 319.7L212.5 318.7L212.9 317.6L214.2 317.3L212.7 316.9L213.6 315.4L212.8 314.7L212.3 315.8L211.6 314.5L208.9 316.2L207.4 315.2L208.2 314.2L207.4 313.7L205.9 314.1L204.4 316L203.7 315.7L204.4 314.4L202.3 314.7L201 314.2L199.9 312.7L202 311.4L200.7 310.2L201 308.3L200.2 308.6L200.2 307L201.2 306.5L202 307.8L201.9 305.9L203.2 304.6L201.3 305.3L201.4 302.6L200.1 301.2L199.6 301.8L200.5 302.6L198.8 303.5L199 301.8L198.2 301.2L198.7 299.5L198.3 298.4L198.9 295.8L198.3 294.9L199.6 288.6L198.8 287.7L198.7 286.2L199.7 285.8L202 286.5L201.6 284.7L200.5 284.1L199.6 282.6L200.3 280.2L199.5 278.6L201.1 278.1L200.7 276.6L199.8 276.1L198 276.3L196 275.4L195.4 273.3L193.8 272.1L193.7 270.4L190.7 270L188.5 270.8L187.1 269.6L184.8 269.6L180.3 269L180 268L181.1 267.7L181 265.4L179.6 265.2L177.8 264.3L174.1 264.1L171.9 264.4L170.9 265.1L169.7 264.6L169 262.5L167.6 261.6L166.4 259.7L163.9 259.6L162.6 258L162.8 256.7L164.8 255.6L163.7 252.7L166.5 253.3L167.7 253.2L169.1 252L167.4 250.5L167.4 248.7L166.5 247.1L167 245.8L166.3 243.7L164.3 243.2L164.4 241.7L165.4 238.9L165 237L165.9 236L167.9 235.7L168.6 234.8L168.6 233.5L171.6 234.1L172.6 234.6L173 236.4L174.5 237.1L175.8 238.2L175.6 240.9L178.2 241.6L179.5 242.6L181.7 243.2L182.9 242.4L183.6 243.6L185.1 243.2L190.1 243.7L195.2 243.5L197 242.9L197.5 240.1L200.5 238.2L202 239.3L203.8 237.5L205.3 237.4L206.4 236L208.8 236.6L209.2 235.8L211.7 236.6L212 235L213.1 235.3L212.9 232.2L212.2 230L212.5 226.7L216.1 225.2L214.8 224.2L214.8 223.4L216.7 221.7L216.6 219.4L217.7 218L217.8 216.5L217 214.6L217.1 212.7L218.6 212.3L220.1 212.7L220 210.8L220.7 207.2L218.7 206.8L218.5 204L217.5 203.3L217.9 202.2L214.8 202.2L214.5 201.3L216.4 197.8L215 195.4L214.8 193.5L215.2 192L214.9 190.9L215.7 191L215.8 189.7L217.2 191.2L218.4 190.8L218.8 186.6L218.2 186.3L219.1 184.9L218.4 183.1L220.9 180.2L224.4 182.6L224.6 183.3L225.6 181.1L225.1 180L226.7 177.5L227.6 175.3L232.6 173.8L233.9 175.3L237.2 174.2L238.4 175.8L240.4 174.5L243.4 174.1L244.2 174.6L244.8 172.5L249.2 172.2L253.9 171.2L255.2 177.1L258.3 182.3L258.9 182.7L260.9 182.2L263.6 182L267.1 183.6L267.3 184.1L269.5 184.9L269.9 185.8L271.5 186.3L272.7 188.1L274.1 188.3L277 190.6L279.1 190.7L279.8 191.9L284.9 197.9L284.7 200.2L285 204.2L286.6 206.6L287 208.3L287.8 209.1L287.6 210.5L288.4 211L288.6 212.6L287 213.1L287.2 215.4L286 218.8L286.3 220.1L287.3 220.7L288.3 222.7L287.2 224.6L282.5 219.9L277.9 217.8L277 218.7L276.8 222.3L277.4 224.9L278.6 227.8L278.2 229.7L276.3 232.2L276.1 233.9L276.9 233L279.2 233.6L279.2 236.1L278 236.2L278.5 237.6L281.1 237.6L282.5 238.1L281.9 240.8L281.2 242.1L285.1 242.2L295 245.5L297.6 247L299.5 247.6L298.5 249.3L299.2 249.6L302.4 248.6L303.5 249.3L304 250.7L303.5 252.6L304.4 253.2L304.5 255.1L303.6 256.4L303.9 257L307.3 257.6L312.5 259.1L316.1 259.4L317.5 260.4L317.2 261.5L317.6 264.2L318.9 266.7L320.4 268L321.2 271L322.9 271.6L325.4 271.5L326.9 272.2L327.3 273.9L331.1 275.9L332.6 275.9L334.5 275L339.3 273.2L342 270L344 270.4L344.9 271.3L344.9 272.3L343.9 274.6L344.3 276.2L346.3 276.7L348.2 276.1L351 278.1L350.3 281.3L351.5 282.4L350.7 283.1L350.5 284.4L351.4 285.9L351.3 290L350.7 291.8L351 294L352.2 294.4L351.9 296.6L350.9 297.8L351 299L352.8 301.4L356 301.9L356.3 301.3L357.9 301.4L358.4 304L360.8 304.8L361.8 309L362.6 309.8L362.2 310.8L362.4 312.6L364.3 313L364.2 315.1L369.9 314.6L372.1 315.4L373.1 316.6L373.9 319.6L371.3 320.9L365.6 321L360.5 326L360.3 329.3L358.8 333L357 332.3L356.4 334.7L355.8 336L354.3 336.2L350.1 334.4L346.1 335.5L344.6 334.8L340.5 332.4L337.4 325.9L335.9 324.3L330.1 324.4L329.1 328.1L327 329.6L327.6 332.4L326.8 333.8L325.7 332.2L324.2 333.2L323 332.5L321.9 334.8L320.4 333.9L318.6 338L317.5 336L315.2 335.9L314.4 333L312.3 331.5L311 328.7L309.5 323.9L308.3 321.7L306.5 321.1L304.1 320.7L301.7 319.5L301.1 316.8L300 314.2L296.9 312.6L293.4 312.3L291.6 314.3L289.7 317.1L288.7 317.7L287.1 316.4L284.2 316.4L283.7 317.7L280.6 322L278.7 322.8L278 323.8L278.2 327.2L276.1 327L273.7 329.4L271.8 331.8L270.9 332L271.6 329.4L269.7 326.6L269.2 328.4L268 330.2L266.2 330.7L261.3 328L260.2 329.1L260.2 330.1L261.3 331.5L260.7 332L258.2 332.1L258.9 334.3L258.8 335.9L258.1 337.1L257.2 340.2L255.8 340.4L256.1 337.7L255.6 337.5L254.6 339.1L252.3 340.9L249.6 337.9L247.4 338.9L244.7 341.2L243.5 340.6L245.3 339.5L245.2 338.5L242.7 338.1L241.5 336.1L239.8 335.6L239.9 334.8L238.9 334.4L238.1 332.1Z"/>
  <path class="region" id="adcode-341300" data-name="宿州" d="M370.2 107.9L372.9 108.5L375.5 107.9L377.2 108.4L379.2 109.6L380.5 108.7L382.2 109.7L383.1 109L385.4 108.7L385.8 109.3L387.2 108.6L388 109.1L391.9 109.4L391.9 110L393.3 110.5L394.1 111.9L394.7 109.2L394 106.3L394.8 101.7L395.2 101.2L394.5 99.8L396 98.5L395.8 100.4L397.2 102.5L397.8 101.4L399.3 100.9L399.9 99L402.7 100.3L404.5 99L406.1 96.7L406.9 96.6L409.3 97.8L409.4 99.3L412.5 99.7L414.6 99.5L413.3 101.7L411.6 103.4L411.9 105.6L411.6 106.5L413.9 106.8L414.5 107.3L414.2 109L415.3 110L414.8 111.2L415.2 112L412.8 115.7L414.4 116.6L415.9 116.1L416.8 116.6L416.8 117.9L417.8 120L416.7 121.9L417.5 123.5L416.2 125.7L413.4 126.6L413 128.4L412.8 133.2L412 135.4L411.8 138.8L411.9 141.5L410.9 143.9L411.1 146.4L412 147.9L410 147.6L409.7 148.9L410.6 153.9L409.2 154.2L409.4 158.5L407.9 158.3L406.6 158.8L403.5 157.9L402.7 158.1L402.2 160.1L402.4 161.8L402 163.7L401 165.6L401.6 168.5L402.7 170.6L405.8 173.1L407.7 172.2L410.3 171.9L409.2 175.7L409.2 177.2L407.7 177.9L406.4 182.7L408.2 184.6L406.5 186.1L406.4 186.9L409.3 187.8L409.4 189L410.7 190.3L412.9 190.4L413.9 191.7L413.8 193.2L414.4 193.9L413.7 195.3L414.2 196.2L413.6 198.1L414.7 199.2L412.9 200.9L412.7 201.7L411 201.3L409.8 203.8L409.2 204L408.8 205.7L407.5 206L408.4 207.5L408 208.3L409.1 208.9L409.4 210L408.7 211.4L410.4 212.3L412.3 214.4L414.8 215.6L416.3 215.1L418.2 215.6L419.4 215.4L421 213L422 213.4L429.4 214.6L429.9 211.3L429 210.1L425.7 209.3L425.6 207.7L426.9 207.5L427.6 206L429.2 205.7L429.5 204.7L428.1 203L425.5 201.8L424.1 202.1L425.2 199.1L427.8 197L429.3 198.3L431 198.3L430.8 199.1L433 200.8L434 199.8L435.2 196.6L434.1 195.2L433.2 194.8L433.4 193L434.7 191.9L436.6 192.4L437.1 189.7L442.3 194.6L443 190.3L445.8 187.4L447.1 185L447.2 183.3L449.5 184L455.2 184.9L456.5 187L459.5 187.1L462 187.8L465.1 189.9L466.3 194.4L469 198L470.2 201L475.4 205.5L476.3 205.9L479.1 205.8L481.7 206.7L483 208.4L485.9 207.6L487.6 208.8L489 209.1L491.4 206.7L493.1 205.9L494.1 206.1L495.4 207.6L498.4 208.4L499.5 211L501.1 211.7L501.4 213.6L503.6 214.9L505.7 214.6L506.9 216L511.4 215L513.6 215.7L515.4 214.9L515.5 213L517.4 212.6L520 213.1L520.8 211.8L521.5 208.8L522.9 208.2L525.7 208L526.2 206.6L527.5 206L528.4 208.1L532.7 208.3L535.2 208.1L535.9 207.5L534.8 206.1L535.1 205.3L537.9 205.6L539.2 204.9L542 202L541.6 200.7L541.9 199.4L540.5 197L541.1 194.9L541.3 192.1L541.9 189.6L543.7 187.4L544.6 184.7L545.9 184.9L551.5 187.2L551.4 183L551.5 180.6L550.4 179.3L551.6 179.2L552.7 169.9L552 166.6L553 165.9L558.8 159.8L558.3 155.7L558.7 152.4L557 151.7L557.9 149.5L559.9 149.4L560.8 148.1L558.1 147.2L556.4 147.9L554.1 146.7L552.7 144.9L551.3 145.2L546.4 145.1L546 146.1L544 147.3L541.9 147.8L542.2 148.7L540.9 149L540.7 148L538.1 147.9L537.8 147.3L536.4 147.7L535.2 147.3L534.3 145.4L533 147.2L532.4 149.7L530.9 150.3L528.9 149.8L528.3 149L526.5 149.4L526.1 150.3L526.6 151.7L524.9 151.3L524 150.6L521.5 149.6L518.7 149.6L517.4 149.2L513.4 149.8L511.7 151.3L510.4 151.4L508.7 152.9L506.6 151.3L506.2 149.6L505 148.7L505.3 147.4L506.4 147.1L507.4 145.5L508.2 141.3L508.6 138.2L507.9 136.6L508.3 136.1L508.7 133.2L508.6 130.9L509.4 129.3L509.4 127.7L508.8 126.8L507.2 126.7L504.2 128.6L502.7 127.3L501.1 123.3L499 120.5L499 118L497.8 115.6L498.8 113L498.2 111.2L495.4 108.8L493.8 106.9L492.2 106.3L491.5 106.8L492.4 108.5L492.3 110.3L491.5 111.1L490 111.5L488.8 112.8L487.3 113.5L486.5 113.2L485 110L483.6 109.1L483.3 107.9L483.7 105.9L482.7 104.5L480 102.2L478.8 102.1L478.2 103.4L475.4 104.1L473.4 105.6L470.4 106.9L468 107.3L466.8 106.7L466.2 105L464.7 102.9L462.6 102.2L463.5 100.6L461 98.2L459.3 99.3L456.4 98.8L455.5 101.1L453.3 100.7L452.6 99.6L451.3 99.5L449 101.4L445 101.7L443.5 100.2L442.9 101L441.1 101L439.8 100L437.3 98.8L436.2 98.9L436.9 96.7L435.6 96.8L433.6 96.2L433.6 93.9L432.8 92.4L430.7 92.1L428.7 89.8L426.6 89.7L424.5 88.5L423.6 89L422.5 86.7L421.7 86.8L421.7 88.4L420.7 87.5L419.4 89.3L418.5 89L418.1 90.3L415.7 91L414.5 88.5L414.9 86.4L415.8 86.7L415.5 88.3L417.1 86.5L415.8 85.9L415.5 82.5L417.3 81L416.5 81.1L417.2 78.6L418.8 77.1L419 79L420.5 79.9L421.5 78.8L422.1 77.3L421.6 75.7L420.4 75.6L420.2 73.8L418.8 73.6L416 71.7L414.1 69.7L415.1 65.7L414.2 63.9L415.4 61.7L415.9 59.7L415.5 58.8L413.2 58.1L413.2 56.8L414.2 54.3L411.3 53.4L408.3 51.7L406.9 51.5L403.8 52.3L401.9 53.9L399.6 54.3L397.2 54.3L394.3 50.8L391.7 48.3L391.7 47.1L390.6 44.9L389 43.6L387.2 42.7L384.5 42.1L377.2 42L372.5 39.8L366.7 39.7L365.9 39.2L366.9 38.4L368.7 39L369.5 38.1L369.1 36.4L368.2 36.3L366.1 34.7L363.4 31.8L361.1 32.1L360.1 31.8L360.7 30.3L358.8 29.7L356.7 27.8L356.6 25.1L355 22.9L354.8 21.2L351.3 20.4L349.5 19L349.2 16L344.7 17.1L343.4 17.8L342.4 17.6L342.2 18.5L339.6 20.3L337.6 20.4L336.5 23.3L334.8 23.2L333.6 22.3L331.8 22.2L330.9 23.1L330.4 25.7L329.4 25.8L328.6 28.2L327.8 28.5L327.2 30.5L325.4 30L323.5 27.1L322.2 26.7L321.1 27L321 29.9L320.3 32.9L321.9 35.3L321.9 36.8L320.1 38.5L318.8 38.7L318.9 40.5L316.8 44L318.4 46.2L318.9 48.3L322.1 50.4L323.3 52.2L323.5 53.4L322.6 54.1L323.1 55.3L326.2 56.4L328.1 56.1L330 57L330.7 58.5L332.1 58.7L333.7 61.2L337.1 63L340.4 64.4L341.3 65.5L342.3 68.2L341.1 70.8L342.2 72.3L342.6 71.5L344.8 70.8L346.3 70.7L347.5 72L349.5 71.7L349.2 70.5L351.1 69L352.4 71.8L353.5 71.5L356.4 68.6L359 67.8L365.9 69.7L367.5 70.9L367.5 72.2L365.8 74.4L364.1 75.8L362.9 76.1L363.3 77.8L362.7 79.2L363.2 82.6L364.8 83.9L365.5 86.3L363.1 87.6L361.9 89.1L361.8 92.6L361 93.2L362.6 95L362.4 96L364.6 96.8L365.7 98.8L365.8 100L367.3 101.5L366.9 101.7L368.1 104.4L369.1 105.2Z"/>
  <path class="region" id="adcode-341500" data-name="六安" d="M390.3 411.3L387.6 410.2L384.5 410.5L382 412.1L380.2 412.4L379.4 410.6L379.4 404.7L379.5 403.2L379.1 402L377.8 401.8L371.2 398.5L368.1 396L366.2 395.7L363.2 394.6L363.9 392.7L362.9 389L363.6 387.4L361.6 384.7L360.6 382.1L361.2 379.5L360.8 377L359.5 375.4L358.7 372.4L359.7 371L359.5 369.8L357.7 368L359.4 366.8L360.9 364.4L360.2 361.5L360.8 360.1L360.2 357L359.9 353.9L358.4 349.6L355.7 347.3L355.3 345.2L355.8 343.3L356.7 342.2L355.2 340.7L355.8 336L354.3 336.2L350.1 334.4L346.1 335.5L344.6 334.8L340.5 332.4L337.4 325.9L335.9 324.3L330.1 324.4L329.1 328.1L327 329.6L327.6 332.4L326.8 333.8L325.7 332.2L324.2 333.2L323 332.5L321.9 334.8L320.4 333.9L318.6 338L317.5 336L315.2 335.9L314.4 333L312.3 331.5L311 328.7L309.5 323.9L308.3 321.7L306.5 321.1L304.1 320.7L301.7 319.5L301.1 316.8L300 314.2L296.9 312.6L293.4 312.3L291.6 314.3L289.7 317.1L288.7 317.7L286.5 317.8L285.2 319.3L282.5 321.1L282 323.7L280 324.8L278.9 326L278.7 327.1L279.6 326.7L282 326.7L282.2 327.7L283.3 328.9L283 331.3L281.9 331.7L280.9 333.2L283.2 333.6L283.2 336.1L282.7 337L284 338.2L283.9 339.7L285.1 343.1L285 345.6L285.1 349.5L285.8 350.1L286.1 354.3L285.3 355.7L286.2 356L286.6 358.2L287.7 359.7L287 362.3L286.8 366.2L288 369.7L288.3 371.9L289.3 373L290.3 375.1L290.1 377.8L289 383.1L288.4 383.7L289.2 386.7L290.4 387.6L290 389.3L288.6 390.3L287.9 391.6L288.6 393.5L287.6 394.7L288.6 395.3L288.6 397.6L289.3 398.4L288.2 399.3L288 400.7L286.6 404.6L286.3 406.7L287.2 407.7L287.7 410L287.3 411.4L285.7 415.2L285 415.7L284.7 417.5L284.4 422.3L285.7 422.9L286.8 424.2L287 425.4L286.5 428.1L285.3 428.2L283.5 430.4L281.5 430.4L280.2 430.8L279.2 428.9L277.6 430.8L276.9 430.2L275 432.4L271.8 429.9L269.3 428.8L268.7 429.6L266.2 429.6L265.3 430.5L264.7 432.3L262.4 431.2L260.8 431.5L259.9 430.4L258.4 430L256.3 432.7L253.5 433.4L251.4 435.8L249.2 436.7L247.5 438.2L247 439.3L244.8 440L243.5 441.9L240.8 441.4L238.8 443.7L236.4 445.1L235.2 446.9L235.1 448.5L234.2 449.3L235.8 451.8L235.6 453.7L229.8 457L229.6 458.2L228.3 460.6L228.7 461.2L228.4 462.9L226.9 465.9L224.6 467.4L223.7 468.5L222.2 469.1L221.5 470.3L222.2 473.7L223.7 476.6L223.2 477.6L222.9 481L221.8 482.9L224.1 485.1L222.9 487.1L222 487.8L222.8 489.8L221.6 490.9L224.8 491.7L225.5 492.5L227.4 490.8L230 491.3L230.9 495.6L232.3 495.3L231.9 500.4L232.9 501.1L233.8 502.7L236.3 502.6L237.1 503.1L237.9 502.3L238.9 503L240.6 505L241.8 507.4L241.6 509L241.9 513.1L244.2 517.5L247.3 519.8L248.7 518.9L249.5 515.6L252.6 514.1L253.4 511.9L254.6 510.6L255.7 510.4L258.5 510.8L261.2 511.8L264.5 515.5L266 518.5L267.9 520L268.8 523.4L269.6 524.2L270.9 524.1L272.9 522.1L274.8 521.7L276.7 522.3L278.2 521.9L280.1 519.9L281.5 519.3L282.8 520.1L283.6 522.2L283.7 524.7L285.6 527.5L286.4 527.3L288.3 529.3L290 530L290.3 531.5L289.9 533.4L290.8 534.1L292.6 533.5L295.3 534.2L296.6 535.2L298.1 535.2L298.5 537.6L299.1 538.4L302.9 538L303.5 534.1L303.4 533.1L305.3 530.2L308.5 528.4L308.6 527.4L309.9 526.8L311.6 527.9L316.3 526.1L317.3 526.3L319.2 528.3L319.5 530.9L321.8 531.9L324.1 531.4L326.7 529.4L328.8 528.5L329.7 526L332.6 523.9L333.9 522.7L334.7 520.3L337.2 519.6L338.6 518.6L338.9 517L340.7 515.6L343 516.8L345 517.3L347.4 517.2L349.4 519.8L350.1 522L352.8 522.4L354 521L355.4 520.8L357.2 519.1L357.8 520.2L358.6 520L360 517.5L362.2 515.5L362.8 514.5L364 514.8L364.4 515.8L364 516.7L364.6 519.3L364.3 522.7L365.2 524.4L363.6 527L362.3 529.9L361.6 532.1L361.8 533.9L361.3 535.1L361.3 537.1L362.9 537.2L364.9 535.2L365.3 533.7L366.2 532.8L368.7 533.4L369 532.5L371 530.6L371.3 529.7L372.4 529.7L375.3 531.8L376.2 532.7L377.6 531.8L379.7 532.2L380.3 533.2L382.9 534L384.5 531.7L386.1 531.1L388.1 531.5L389.1 530.5L391.1 530.2L392.4 530.9L394.5 528.5L395.7 528.1L397.3 525.8L399 525.4L398.9 524.1L399.5 522.5L401.3 521.8L402.9 522.1L405.2 521.3L408.2 518.8L408.6 517.5L411.1 517.3L411.5 514.3L412.3 513.4L413.5 509.9L415.6 505.6L417.7 503.9L418.7 502.4L419.9 502.5L421.8 503.9L423.4 502.2L423.4 500.2L425.6 499.3L426.4 497.7L426.3 494.7L426.8 492.8L427.7 491.3L426.8 489.2L426.9 487.3L429.3 482.4L431.5 478.2L435.1 473.5L435.9 471.9L438 470.9L440.1 470.6L446.5 470.9L448.1 470L448.2 469.1L447.1 468.4L445.4 463.2L444.4 463.9L441.8 462.2L440.4 462.2L436.4 463.2L435.4 461.8L434 462.3L433.8 463.5L432.9 463.3L431.4 463.9L425.8 462L424.5 463.2L422.7 464.1L418.7 462.8L418.1 460.9L416.8 461.3L416.8 464.2L416.3 464.8L414.9 463.9L413.9 463.9L412.2 465L410 464.2L406.1 465.6L403.3 465.1L399.3 465.8L397.4 466.9L395.7 465L394.6 464.9L394.3 464L392.9 463.3L392.5 462.4L389.9 459.5L389.3 457.9L389.8 456.9L389.6 452.8L388.3 450.2L388.1 448.7L388.7 447L389.9 445.2L389.3 443.2L389.2 439.6L388 437.2L388.9 434.6L388.7 432.4L388 431.9L385.5 432L385.9 430.6L385.2 429.5L384.1 430L383.4 428.2L381.1 425.7L380.8 424.2L382 422.5L385.6 420.2L386.6 418.8L384.7 418.8L384.3 416.9L383.4 415.8L383.7 415.1L389.5 412.3Z"/>
  <path class="region" id="adcode-341600" data-name="亳州" d="M344.8 142.5L342.2 143L340.8 143.5L339.4 143.2L337.2 143.9L336.9 145L335.5 144.3L334.5 146.3L331.6 147.3L329.1 150.2L327 150.4L325.1 149.5L324.6 151.3L322 150.7L321.1 150.9L318.3 153.3L316 153.2L314.4 149.6L314.5 149L313.2 147L310.5 146.2L309.2 143.7L309.2 142.5L306.3 142.8L306.1 141L304 139.4L304.8 138L304.3 137L302.8 136.8L302.8 135.9L305 136.3L305.1 133.2L304.1 132.7L303.9 131.3L302.5 129.2L301.5 129.4L301.5 128.5L298.9 127.6L298.8 125.9L297.2 125.3L295.7 125.4L295.2 123.1L296.8 118.7L297.3 116.4L296.7 114.7L295.4 112.8L292.2 109.9L288.5 109.9L287.6 109.5L285.8 109.6L285.2 108.9L284.7 106.9L283.7 106.3L282.5 106.7L282.5 110.6L279.5 110.5L278.7 109.3L278.6 106.5L277.1 105.4L275.1 103.3L274.3 101.9L272.4 101.8L270.8 100.4L270.9 102L269.4 102L265.4 99.9L261.8 102.3L261.1 101.4L258.9 101.5L257.4 102.8L255.5 102.3L254.8 104.3L255 105.9L254.2 106.3L251.6 106.7L250.9 106.2L249.2 107.7L249.9 109.1L248.2 109.6L247.1 112.7L248 113L247.7 114.4L246.5 114.8L246.4 118.3L245.3 119L245.4 120.8L244.5 121.6L244.2 123.5L245.2 124.6L243.9 125L243.7 127.2L242.6 127.3L242.6 129.1L243.8 128.9L244.7 129.7L246.6 128.9L248.1 130.2L249.8 130.3L251.6 129L253.1 130.3L253.4 134.1L252.2 134.8L252.1 136.7L251.1 137.2L251.9 138.4L251.6 140.6L250.8 143.6L247.9 142.5L246.9 141.7L244.9 143L244.6 144.2L245.4 145.1L246 147L247.1 147.7L248.6 150.1L249.3 151.9L248.6 154.6L249.9 156.2L249 156.3L249.4 158.6L249.3 160.7L251.2 164.4L252.1 165.4L253.9 171.2L255.2 177.1L258.3 182.3L258.9 182.7L260.9 182.2L263.6 182L267.1 183.6L267.3 184.1L269.5 184.9L269.9 185.8L271.5 186.3L272.7 188.1L274.1 188.3L277 190.6L279.1 190.7L279.8 191.9L284.9 197.9L284.7 200.2L285 204.2L286.6 206.6L287 208.3L287.8 209.1L287.6 210.5L288.4 211L288.6 212.6L287 213.1L287.2 215.4L286 218.8L286.3 220.1L287.3 220.7L288.3 222.7L287.2 224.6L282.5 219.9L277.9 217.8L277 218.7L276.8 222.3L277.4 224.9L278.6 227.8L278.2 229.7L276.3 232.2L276.1 233.9L276.9 233L279.2 233.6L279.2 236.1L278 236.2L278.5 237.6L281.1 237.6L282.5 238.1L281.9 240.8L281.2 242.1L285.1 242.2L295 245.5L297.6 247L299.5 247.6L298.5 249.3L299.2 249.6L302.4 248.6L303.5 249.3L304 250.7L303.5 252.6L304.4 253.2L304.5 255.1L303.6 256.4L303.9 257L307.3 257.6L312.5 259.1L316.1 259.4L317.5 260.4L317.2 261.5L317.6 264.2L318.9 266.7L320.4 268L321.2 271L322.9 271.6L325.4 271.5L326.9 272.2L327.3 273.9L331.1 275.9L332.6 275.9L334.5 275L339.3 273.2L342 270L344 270.4L344.9 271.3L344.8 268.5L343.8 266.9L341.4 264.2L341.3 263.3L342.1 260.7L342.7 260.1L342.7 256.6L343.4 255L351.1 257.8L373 264.1L379.8 264.4L382.4 264.7L386 265.9L386.9 263.2L386.6 261.4L387.4 258.7L388.3 257.2L388.4 255.3L389.9 254.8L390 255.6L391.1 255.2L391.1 256.1L393.6 256.5L394.1 255.6L395 256.3L395.7 253.8L395.6 252.6L394 251L391.5 249.9L388 248L387.6 246.9L387.6 244.8L389.5 242.6L389.5 239.1L388.3 236.8L388.6 235.3L390.3 233.3L391 233.8L392.8 231.3L394.4 233.2L395.6 233.3L396.4 226.5L397 225.3L396.9 222.4L395.4 219.6L394.4 216L393.8 215.9L394 211.9L392.5 209.6L392.6 207.5L392.3 205.6L393.1 204.5L392.7 203.8L393.9 200L393.4 197.6L394.3 194.7L390.2 193.4L388.6 192.5L387.2 190.9L384.4 190.7L381.7 187.3L380.2 186.7L377.6 187.2L374.8 186.8L374 185.7L372.5 185.7L371.2 186.2L368.9 186.4L367.5 187.7L365.8 188.4L363.3 188.2L361.9 186.3L361.7 183.8L362.3 181.6L361.8 179.9L360.6 179.1L361 177.2L360.7 176.1L361.4 174.1L363.4 173.4L362.5 170.9L363.8 170.7L363.8 169.6L362.9 169.4L361.7 167L358.3 166.3L358.1 164.6L355.3 161.2L355.9 159.5L356.6 159.2L356.7 157.3L355.7 154.9L355 154.9L355.1 153.3L353.2 151.7L352.8 149.6L349.5 148.8L349.8 145.6L346.3 145.5L346.5 144.4Z"/>
  <path class="region" id="adcode-341700" data-name="池州" d="M378.6 720.4L380.2 716.9L382.1 716L384.2 713L386.5 711.5L387.2 709.2L389.2 707.5L391.5 708.9L392.5 708.5L395.3 706.2L397.5 702.1L401.2 698.5L403.7 694.9L404.9 691.3L404.8 690.2L405.8 687.1L404.4 684.4L402.1 682.8L399.2 684.3L398.1 684.1L398 685.9L397.2 685.2L397.3 679.1L394.1 680.5L392.2 677.2L391.8 675.8L390.2 675.1L389.5 673.2L388.2 673.2L387.4 672.1L390.4 669.8L395.8 664L398.8 659.6L401 655.3L401.9 650.3L405 646.5L408.3 644.1L409.1 641.9L409.3 639.5L408.3 636.2L407.1 633.6L406.2 630.2L405.1 626.8L404.4 623.2L404.9 622.2L404.9 619.9L406 619.1L407.6 620.7L410.1 618.6L411.9 618.2L414.9 616.1L416.2 614.3L419.2 611.7L421 611L431.3 610.9L434.2 611.4L437.7 613.8L441.1 615L443.6 613.5L445.2 611.8L446.4 609.6L448.3 601.3L447.8 597.7L444.2 593.3L444.1 591.9L450.8 588.3L455.2 585.5L459.3 583.8L462.1 583L465.5 582.9L466.1 583.5L468.8 584.6L472.3 585.2L474.6 585.2L476.4 584.1L477.4 582.7L479.1 578.5L487.5 574.3L495.7 571.5L498.8 570.8L502.5 567.3L502.1 569.6L504.8 569.4L507.4 567.2L508.5 567.8L509.1 569.3L508.2 571.2L509.5 572.4L509.3 573.6L512.2 573.2L512.4 575.2L513.9 575.4L514.7 574.2L516.3 573.8L519.5 571.9L520 569.8L523.1 567.1L524.5 566.5L526.8 566.2L528.3 565.4L530.6 563.2L531.7 563.5L532.9 565.7L536.1 562L537.2 564.1L534.5 568.3L534.7 568.9L536.5 569L538.2 571.1L542.2 571.8L544.7 574L547.1 575.6L550.1 576.8L552.4 579.5L553.6 579.7L554 582L554.8 582.2L553.7 583.5L551.2 587.4L550.5 589L550.7 590.5L547.9 592.9L547.3 594.9L546.4 596.2L544 596.6L541.3 599.7L538.1 600.3L536.7 601.7L536.9 605L536.2 606.7L534.9 608.5L534.1 609.1L532.6 611.8L532 614.9L532 616.5L531.1 620.7L531.4 622.3L532.8 623.7L532.8 625.3L531 627.3L528.4 628.9L529.8 630.2L531.3 633.4L529.5 633.9L530.3 634.5L529.9 635.4L528.9 635.4L527.4 636.8L528 638.3L526.7 639L524.8 639.2L525 642.5L522 642.9L519.6 643.7L517.4 646.4L517.9 648.6L521.4 649.7L521.8 650.9L520.7 653.3L520 653.2L518.1 654.6L516.8 654.6L514.1 657.2L511.7 658.2L507.5 658.6L502.2 660.1L500.2 661.5L500.7 662.5L499.1 663L499.4 665L497.8 664.9L497 664L495.8 664.1L495.4 665.3L494 666.2L492.1 664.5L491.5 661.7L490.2 662L488.4 663.6L487 663.9L486.5 665.1L485.5 665.6L486.8 665.9L486.4 667.8L485.4 668.4L484.7 665.9L483.7 665.9L483.1 664.6L481.7 666.2L482.5 668.4L483.5 668L482.5 669.4L483.3 672.7L479.6 674.9L477.3 675.2L473.6 674.8L471.7 676.8L470.1 677.2L467.5 675.8L465.4 675.9L464.5 678.5L460.1 678.9L457 680.3L455.2 680.2L453.8 681L450.1 682.4L449.3 682.1L442.8 683.6L442.4 684.9L442.8 690.1L440.7 690.9L439.3 690.9L435.8 692.4L434.1 693.4L433.3 694.6L433.9 697.5L433.3 699.3L431.2 700.2L429.1 702.7L426.7 703.4L427 704.7L429.1 706.5L433.3 708.5L434.2 710.5L434.2 711.8L431 714.5L430.9 715.5L432.7 717.8L431.5 720.1L428.2 722.2L426.4 722.6L424.1 724.1L423 724.4L419.7 723.7L417.4 724.1L416 725.3L414.4 727.9L410.6 728.9L408.1 730.8L402.6 734.3L399.7 738.9L398.4 739.8L396 740.5L393.3 740.3L391.4 739.7L391.3 738.7L392.2 736.8L390.7 736.3L390.2 736.7L389 735.8L386.6 737.6L385.3 740L384.3 740.5L383.7 736.9L380.4 735.1L380 734L378.2 732.2L375.9 730.5L376 729.3L377.3 727.4L378.9 726.1L379.4 724.3L378.5 723.5L376.5 723.7L376.2 722.5L377.9 721.7ZM381.6 720.7L382.4 722.2L382.1 720.4ZM382.5 722.2L382.3 723.3L383.8 723L383.6 722.1ZM453.7 612L452.9 613.6L451 615.1L448.9 616L448.7 616.7L450.1 618.4L449.1 620L448.3 620.2L448.3 621.4L450.3 621.4L451.8 622.2L454 620.7L453.3 618.5L454.7 617.8L455.9 615.6L456.7 615.5L457.3 614.4L457 612L456.5 611.3L455 611Z"/>
  <path class="region" id="adcode-341800" data-name="宣城" d="M643.3 665.9L643.6 664.3L645.5 663.7L645.6 662.3L646.5 660.7L646.6 659.4L644.7 659.6L642.9 658.9L641.8 659.4L640.5 658.3L641.3 656.8L642.7 656.5L648.3 653.9L649.5 652.3L650.6 651.7L650 650.2L647.4 649.7L646.2 646.2L644.9 645.5L645.8 644.6L644.4 640.6L644.8 638.4L644.6 636.1L647 635.1L648 633.9L649.2 633.7L651.4 631.9L651.4 631.1L653.7 629.9L654.2 631.6L655.3 631L656.2 631.6L657.6 631.4L657.6 633.5L659.6 634.2L662.5 636.4L664.9 636.4L665.2 637.3L666.7 637.5L667.9 636L670 634.8L672.5 636.6L674.6 637.5L677.3 637.6L678 638.3L681.8 639.4L683.3 639.5L683.9 638L685.9 638.3L686.7 639.6L687.6 638.6L688.7 635.2L688 634.4L688.9 632.5L691 632.9L692.6 632.4L694 631.3L695.3 629.3L698.8 628.2L700.4 629.4L701.2 631.3L704.4 630.5L705.6 629.3L707.3 628.7L707.7 627.8L706.6 626.6L703.9 626.5L703.3 625.9L703.6 624.3L702.9 622.9L701.2 623L701.6 620.8L701.3 618.8L699.6 617.9L699.4 613.3L698.9 611.9L699.6 609.2L698.7 607.2L698.5 605.6L696.9 605.9L693.8 608.5L691.9 608.8L690.6 607.8L690.7 606.7L688.3 606L687.7 603.7L688.7 601.6L691 600L691 598.8L689.7 597.8L689.7 596.7L687.9 594.9L689.2 593.4L690.3 594.2L692.3 593.8L694.2 594L696.7 593.3L698 592L699.3 588.9L700.5 587.2L701.8 586.9L704 585L704.8 585.1L706.3 584.3L706.8 585.2L707.3 588L708.8 590.2L711.4 590L713.1 588.4L713.7 586.2L715.3 584.5L717.3 581.6L716.9 577.1L717.5 576L716.8 574.8L717 571.9L718.4 571.4L720.2 572.5L722.3 571.6L726 564.6L726.8 564.1L728.5 564L728.3 560.7L726.5 558.2L726.5 555.3L726.2 554.6L727.1 551.4L729.1 550L729.3 547.5L729.1 544.7L730 543L732.3 541.2L733.4 539.7L734.3 539.3L735.5 537.3L735.2 533.6L735.7 531L735 528L735.6 526.9L737.4 525.3L734.3 523.8L734.3 521.7L733.1 521.9L731.4 524.7L729.3 524.8L728.3 524L728 521.9L726.6 520.3L724.9 519.3L723.5 517.8L722.2 517.6L721.1 518.1L718.7 517L717.6 517.4L717.3 518.6L716.5 517.7L714.6 518.1L713.9 516.9L712 515.1L710.1 514.5L709.2 515.7L707.4 514.9L706.3 515.5L706 513.6L708 512.7L706.7 512L704.8 513.4L703.9 512.2L703.2 512.5L702.5 510.2L703.1 507.3L704.9 502.1L703.9 501.8L703.4 499.3L702.1 497.3L701.3 497.7L701.3 500.4L700.8 502.2L699.8 503.6L699.3 502.9L697 502.6L694.6 503L691.3 504.8L690.6 503.3L689.2 503.2L689.2 503.8L687.8 504.2L687.6 503.5L685.4 502.8L685 501.5L683.7 502.6L682.9 501.5L683.1 498.7L680.9 497.7L680.3 498.7L678.1 498.5L677.2 501L676 501.2L675 503.1L673.6 503.2L672 504.8L671.8 506.9L669.4 506.2L668 507.3L666.6 506.5L665 507.2L663.8 506.5L661.8 506.5L660.9 506L659.5 507.2L657.4 507.5L657.1 506.6L653.4 506.6L650 506.3L648.9 505.7L646 506.6L643.4 506L641.1 506.3L637.9 507.6L637.3 506.8L635.3 507.9L634.4 507.8L632.7 506.3L632.5 503.5L630.3 501L626.1 500.3L623.9 498.3L623.4 497.4L625.3 498.5L625.4 494.6L624.7 494.7L623.4 496.7L622 496.5L620.7 497.2L617.7 497.2L618.2 499.1L618.1 502.1L617.1 503.3L616.5 505.5L618.5 506.7L619.1 508.4L620.8 509.9L622.3 513.4L624 515.2L625.1 515.6L626.9 519L625 519.8L623.1 521L621.7 522.5L620.9 524.3L621.2 526.5L620.1 527.5L620 528.6L620.8 529.5L618.5 532.4L616.9 534.9L614.1 537.2L611.7 537.2L611 536.1L611.3 533.9L610.4 533.3L608.9 536.4L607.5 537.8L608.6 540.8L608.7 542.6L607.3 544L604.9 544.2L600 547L600.6 548.9L598.3 548.4L599.9 550.1L600.2 552.2L597.5 554.1L597.9 556.5L597.1 557.3L595.9 556.7L595.4 557.6L596.8 558.3L596.1 560.1L597 559.2L598.6 559.8L597.6 561.4L597.7 562.2L596.1 563.5L596.6 565L598.2 565.4L599.2 566.7L599.1 568L596.9 569.6L596.5 570.9L596.4 572.9L593 571.1L593.4 569.6L592.3 568.1L590.5 568.7L589.1 566.3L590.3 566.2L591.2 564.7L589.7 562.4L587.9 561.3L583.9 561.8L581.8 561.8L580.4 564.8L579.3 564.4L576.9 565.1L575.5 567.2L576.2 568.9L575.3 568.1L575 569.1L575.6 571.5L574.4 572.1L574 574.2L571.8 576.2L571.7 577.1L574 579.1L574.3 580L576.4 581.5L575.3 582.5L573.9 582.2L572.1 580.4L570.8 580.2L567.8 581.7L566.1 580.9L564.8 580.9L563.3 581.9L559.1 583.4L557 586.9L555 588.9L550.7 590.5L547.9 592.9L547.3 594.9L546.4 596.2L544 596.6L541.3 599.7L538.1 600.3L536.7 601.7L536.9 605L536.2 606.7L534.9 608.5L536.8 610.4L540.5 610.2L542.7 610.5L545 609.7L547.6 608.1L549.3 607.8L552.7 608.9L554.3 610.5L553.1 611.2L552.7 612.6L551 615.1L551.7 616.9L551.5 620.1L553.6 620.9L554.2 620.1L555.7 619.5L557.5 619.4L558.2 617.7L560.3 617.5L558.8 616.8L561.2 613.8L560.9 615.2L562.2 614.6L564.3 614.9L564.3 615.7L565.6 616.5L566.4 617.8L566 618.7L564.5 618.9L565.4 620.9L565.2 622.2L567.2 624.2L568.7 625L569.3 627.2L570.5 627.5L572 627L572.3 628.1L574.7 628.4L574.1 630.1L575.3 631L574.6 632.5L574.9 634.1L575.9 635.3L575.6 636.9L574 637.9L576.1 639.2L577.1 639.1L575.3 640.4L573.8 640.5L571.2 642.4L570.6 643.8L570.8 646.1L571.3 646.8L573 647.6L573.4 649.5L573.5 652.2L576 653.1L577.9 655.6L579.4 656.9L580.4 661.3L581.5 663.1L581.3 664.5L583.2 666.2L584.9 666.5L586.1 665.2L587.3 666.2L588.9 666.5L592.7 665.7L595 668.6L596.1 669.4L598.1 670L600.5 674.6L600.4 675.8L598.6 677.5L598.6 679.2L599.5 681.2L599.9 680.3L601.2 680.2L601.7 681.1L601.3 683.5L601.8 684.6L604.6 687.7L606.6 687.3L607.8 685.1L608.8 684.5L611.5 684L612.5 682.8L613.1 680.4L612.6 679.8L614.2 677.7L617 676.6L619.2 676.7L621.5 676L622.3 674.9L622.6 672.1L626.6 670.3L628.1 667.1L629.5 668.8L631.1 669.3L633.7 669.1L637.5 665.7L641 664.7Z"/>
</svg>