<svg xmlns="http://www.w3.org/2000/svg" viewBox="0 0 900 780" role="img">
  <title>山东省市级地图</title>
  <style>
    .region{fill:#edf2e3;stroke:#16342f;stroke-width:0.7;stroke-linejoin:round;vector-effect:non-scaling-stroke}
    .region:hover{fill:#c84632}
  </style>
  <rect width="100%" height="100%" fill="#fdf7e7"/>
  <path class="region" id="adcode-370100" data-name="济南" d="M205.8 390.9L203.9 393.9L202.9 394.3L201.2 396.2L199.1 400.8L195.2 400.7L194.3 402.8L193.1 403.3L190.5 403.2L187 405.3L182.2 407.1L181.3 407.9L180 409.8L179.6 411.3L177.3 414.1L176.6 416.4L173.8 418.9L171.6 422L170.6 423L172.9 426.3L174.5 429.9L175.7 431.7L175.8 433.9L175.2 436.5L175.2 439.4L175.6 440.7L178.2 442.4L178.9 442.4L179.3 440.3L179.9 439.5L181.5 439.3L183 438.5L184.6 437L185.4 435.1L188.3 434.3L189.5 435.1L189.9 436.6L190.8 437.4L192.8 437.5L193.4 438.5L193 439.5L193.7 440.3L193.6 441.4L195.2 440.2L195.5 438.7L197.6 437.9L201.2 437.8L204.3 436.5L205.5 434.9L205.9 432.9L206.8 431.9L208.1 431.8L208.3 430.5L207.6 430.1L207.2 428.4L205.5 427.7L203.5 428.2L203.9 426.9L202.9 427.4L201.5 427.4L201.9 426.5L203.2 425.3L203.6 423.7L201.9 422.6L201 420.4L198.8 419.8L197.7 417.4L199.4 415.5L199.1 414.5L201.5 413.9L202.1 412.1L203.6 411.9L204.8 413.2L206.5 412.9L207.2 411.1L208.9 410.8L209.7 411.9L210.4 410L211.8 409.3L212.8 407L215.3 406.3L217.1 406.4L220.1 409L221.3 409.1L222.9 408.5L223.9 408.6L226.4 406.6L229.6 405.1L230.7 404.2L232.3 404.2L234.7 405.9L237.1 406.5L239.9 405.6L239.8 407.2L241.2 408.4L241.8 410.7L243.7 411.9L247.9 409.9L248.3 411L250.2 411.6L251 411.3L253 413.5L254.4 412.5L256 412L256.1 410.5L258.7 410L259 408.9L261 408L261.3 407.3L263.1 406.2L263.9 406.2L264.2 404.8L264.2 402.8L265.5 399.5L267.5 400.5L268 400.3L270.8 401L271.4 399.6L273.4 398.7L275.5 398.5L275.8 397.5L275.6 395.9L276.8 395L277.8 393.5L278.7 391.4L279.7 391.3L282.3 390.1L283.2 387.1L284.7 385.4L286 385.1L287.5 382.8L287.4 381.8L289.4 382.3L289.4 383L292.6 383.1L293.8 383.4L293.8 384.5L293 386.9L293 388.6L293.6 391.6L294.2 393L294.4 395.1L295.6 397.6L298.3 400.6L298.4 402.2L297.4 403.7L298.4 406.3L298.3 407.8L299.4 408L299.1 410.4L301.2 410.2L301.6 413.5L298.9 414.3L298.9 416.3L299.6 417.4L301.1 417.9L302.7 416.5L304.9 416.9L304.9 418.9L305.4 419L304.1 420.6L304.8 421.2L306.4 423.5L308 423.1L309.3 425L308.1 426.2L307.3 425.6L306.2 426.3L304.8 430.2L306.7 430.7L305.7 431.5L305.9 433L304.9 434.1L305.4 434.7L307.8 434.4L309 432.9L309.7 433.5L311.3 433.3L314.5 431.5L315.9 432.2L316.5 434.7L317.4 435.8L319 436.5L321.9 436.3L325 438.5L327.9 439.9L331.6 439.5L332.8 440.5L334.9 441.4L335.5 442.6L337.2 441.7L338.9 444L338.2 445L338.9 446.3L338.9 447.7L339.5 447.9L341.6 447.3L341.7 445.6L343.1 444.6L343.8 444.9L346.4 444.8L346.8 445.5L348.2 445L349.6 445.7L350.9 445.6L352.1 444.4L354.1 443.9L356.2 443.9L357.2 444.5L357.5 445.9L358.5 446L358.8 447.1L360.2 447.1L359.4 444.3L360.1 444.2L359.8 440.9L358.2 439.5L358.6 438.3L360 438.1L359.2 436.9L359.7 435.6L360.5 435.5L360.6 434.4L359.8 433L359 433.8L358.1 433.8L357 431.7L357.3 430.7L356 428.6L356.2 427.5L355.4 425.9L356.6 424.4L356 423.3L355 423.2L356.4 420.4L356.2 419.3L357 418.9L357.8 419.9L359.5 418.3L361.2 418.8L362.1 417.4L361.6 416L362 412.8L362.9 410.9L362.7 410.1L359.4 409.3L358.2 409.6L357.6 408.9L358.1 408L357.1 405.7L357.4 404L356.7 403.4L356.8 402.4L358.3 401.1L358.4 400.2L356.3 398.6L354.9 398.7L353.9 400.4L354.1 397.7L353.6 396.8L352.7 398.1L352.4 396.2L351.1 394L350.2 393.6L349.7 390.4L346.9 389.7L346.6 388.4L347.3 386.3L346.1 386.3L345.5 387.2L343.6 387.7L343.3 386.7L342.2 387.5L341.4 386.5L338.8 386L339.6 384.9L338.9 384.1L339.9 382.6L338 381.4L339 380.6L338.8 379L337.4 378.7L336.6 377.8L338.3 377.1L339.9 377.2L339.9 376.7L338.2 375.1L337.3 375L337 373L335.3 372L334.9 370.3L332 369.1L332.2 368.2L333.4 367.3L334.3 367.7L333.4 365.7L334.3 364.7L332.4 364.9L331.6 364.1L333.2 364L333.4 363.2L334.3 363.4L334.3 361L333.6 360L334 359L333.6 357.7L332.4 357.5L332.1 355.6L332.8 353.1L334.4 352.3L334.6 351.4L334.7 350.4L337 348.2L336.7 347.1L337.9 344.4L335.3 343.4L332.2 343.7L331.3 342.3L330.2 339.7L327 336.6L322.6 334.4L319.5 330.3L319.2 328.7L319.5 326.7L320 325.5L319.9 324.4L318.3 321.5L314.4 319.3L315 317.9L316.3 319L316.6 318L317.8 317.4L317.9 315.4L316.1 314.7L316.7 313.9L316.1 312.7L314.7 312.8L312.9 315.8L311.8 314.1L310.1 313.7L308.1 314.2L308.2 315.2L306.1 315.7L304.6 315.6L301.5 316.4L301.3 315.8L300.4 316.8L300.1 316.1L298.8 316.5L297.3 315.8L295.9 310.6L294.6 309.4L291.8 308.3L290.6 307L290.4 305.7L291.6 304.9L292.7 303.4L293 302.1L292.7 299.7L295.9 300.3L298.7 298.4L300.7 297.6L304.3 297L306.3 294.7L305.8 293.7L305.3 290.1L305.3 288.7L304.5 288.3L304.4 286.3L303.6 284.5L301.7 282.3L300.2 280L299.9 278.9L300.6 276.8L302.9 276.8L302.4 276.3L303.1 274.8L304.5 275.4L303.9 274.3L303.7 272.3L303.2 272.4L303 270.6L301.6 269L300.7 265.5L301.2 261.7L300.5 261.1L301.4 259.6L299.8 257.6L296.2 255.2L295.3 253.9L296.2 252L296.4 249.7L294.5 247.6L289.7 248.1L288.2 247.2L289.5 246.1L289.2 245.5L286.9 244.8L287.1 243.7L290.1 242.6L290.6 240.9L289.5 239.8L287.2 239.4L287 237.8L286 237.2L285.8 236.3L284.4 236.7L281.9 236.3L281 236.8L280 239L277.6 242.6L275.1 242.8L273.7 243.8L270.6 244.3L269.4 243.1L267.8 243.7L266.6 245L267.3 247L267 248.3L265.5 249.8L259.9 249.8L259.1 248.7L257.7 249.7L257 252L257.9 253.9L256.6 255.7L255.6 257.9L256.8 260.3L256.4 260.9L254.3 262.6L254.2 263.6L255 265.5L256 270.5L258.4 271.4L260 273.1L259 273.5L259.3 275L260.2 275.7L260.4 277L259.7 277.2L259.7 279L258.2 280.2L259.9 281.3L259.8 283L260.7 282.7L262 283.4L262.7 284.7L262.5 287.2L261.3 287.7L261.7 290.4L262.3 291L260.9 291.3L260.6 293L258.4 293.4L256.2 293.2L253.8 294.2L248.2 296L246.8 297.1L246.9 298.7L247.5 300.3L247.9 302.9L249.6 304.1L250.1 304.9L249.5 305.6L245.6 307.3L243.8 309.5L242 310L243.2 311.1L243.2 312.1L244.6 313L244.5 315L245.6 314.9L248.4 315.4L248.2 317.3L248.6 318.9L247.2 318.9L248.5 320.1L251 321.4L251.7 324.5L251.5 328.1L251.6 331.5L250 332L249.6 331.2L248.5 331.2L248.7 333.3L248.4 334.1L246.9 334.2L243.9 333.3L243.3 332.8L242.8 334.1L243.4 335.8L241.7 335.7L241.2 337.1L240.9 340.4L241.5 343L242.9 343.1L243.3 344.9L241.9 345.6L240.5 346.9L238.4 347.3L237.1 347.8L234 350.2L233.7 351.9L231.6 352.3L231.6 355L231.2 356.5L229.7 357.7L229.3 360.3L227.4 362L224.2 363.6L222 363.7L222.1 366L220.8 367.5L218.5 367.8L218.7 369.8L218.2 371.2L216.9 372.4L215 372.4L214.2 374L212.7 375.7L212.9 376.3L214.7 377.3L214.4 378.9L212 379.1L211 380.4L211.3 381.2L213.2 382.1L213 384.1L214 386.5L213.9 388.2L213.1 389L210.8 389.9Z"/>
  <path class="region" id="adcode-370200" data-name="青岛" d="M678.9 363.1L671.9 366.2L671.2 366L670.9 364.7L669.6 363.8L668.7 364L668.1 362.7L665.2 361.4L663.3 361.9L663.3 363L662.3 363.9L662.7 365L660.2 366.3L658.6 366.5L658.5 367.1L655.6 368.3L655.4 365.1L656.2 363L656.3 361.2L657.7 361.1L658.1 358.2L656.8 357.1L657.2 356.1L656 355.7L654.4 356.6L654.2 355L654.9 354.7L653.5 353.6L653.2 352.5L650.3 351.8L649.9 351.3L651 350L649.8 347.2L649.7 346.3L647.3 346.1L647.1 345.3L645.5 345L645.3 342.6L644.9 341.8L646.5 340.3L647.4 338L647.4 337L650.4 337.2L651.6 336.7L652.8 333.4L652.5 332.9L650.3 332.1L650.1 331.4L651 330.1L650.2 329.3L649.2 329.3L648.9 326.4L650.6 326.1L653.9 324.9L653.9 322.6L653.3 322.1L650.6 322L648.7 319.9L648.3 316.9L647.4 316.5L647.1 315.3L647.7 314.6L648 312.2L648.6 311.6L648.8 310L649.5 309.6L650.8 311.1L652.1 309.7L651.6 308.1L653 306.6L652.1 303.4L649.9 303.2L649.7 301.9L648.2 303.5L646.9 303.4L645.9 304.2L645 303.8L644.1 302.5L644.8 301.6L644.4 298.6L645.7 294.3L645.1 292.2L643.5 291L643.4 290.1L642.3 289.4L641.2 289.4L641.1 290.1L639.8 291.4L639.7 292.4L638.1 292.8L636.4 294L633.9 293L633.8 293.8L631.1 294.7L630.2 294.3L630.9 295.7L630.4 296.8L629.2 296.6L628.1 295.5L626.1 295.5L625.3 296L624.8 298.3L623.8 299.3L623.5 297.8L622.4 297.2L622.5 295.5L621.9 294.5L620.7 295.2L620.1 294.3L618.5 293.4L618.8 292L616.3 291.8L614.5 294.1L612.5 293.5L611.5 292.5L610.9 295.2L610.7 297.6L609.7 297.9L609 300.2L609.3 302.1L608 304.6L606.7 305.2L606.3 304.6L605.3 305.4L604.5 305.1L603.8 306.3L603.9 307.4L603.1 308L601.1 307.8L600.7 306.8L599 307.6L596.6 307.9L595.6 307.4L590.9 307.1L589.3 310.1L588.1 309.9L585.7 308L584.8 308.2L583.3 307.4L582.8 308.4L581.2 308L579.9 309L578.8 309.3L577 310.7L574.7 310.6L574.5 310.2L569.1 309.6L566.7 309.6L565.7 309.9L564 308L560.4 308.9L560.2 310.4L558.1 311.1L557.2 310.9L555.9 311.5L554.9 310.8L554.4 308.9L550.5 310.1L548.4 308.7L544.7 307.7L543.7 308.1L543.6 307.4L542.6 308L542 310.4L541.3 311.3L539.7 316.7L541.5 320.8L541.5 326.6L541.3 329.5L538 336.6L537.5 337L536.1 336.2L534.8 337.4L534.8 339.1L534.1 340.1L533.9 342.1L534.4 345.2L535.7 347.6L537.2 348.2L537.9 349.3L539.3 349.5L540.1 351.6L541.1 352.5L542.3 355.6L543 356L543.4 357.6L544.3 359.5L547.1 361.6L549.2 362.6L550.5 363.9L552.6 364.4L555.8 367.4L555.5 369.9L557.7 368.7L558.6 369.5L566.4 372.9L576.4 374.9L576.7 375.5L577 379.1L578.5 379L578.5 376.9L580.1 375.8L582.4 375.4L582.7 376.3L585.2 377.9L586.6 377.2L585.9 379.9L586.7 380.6L585.9 381.6L586.2 382.7L586.9 382.9L586.8 384.7L585.1 385.8L584.8 385.3L582 385.3L580.4 386.1L580 385.8L578.4 388.4L578.2 389.4L577.3 389.5L577.4 391.7L579 392.8L579.5 394.2L578.5 394.8L577.8 394.2L575.6 394.3L575 394.7L575 396.2L574 399.2L574.1 401.1L573.6 403.2L570.7 404.6L570.4 405.5L569.5 405.5L568.9 406.8L567.2 408.7L566.7 411.4L565.7 411.6L565.8 413.4L564.4 414.9L565.6 417.8L566.7 418L566 419.6L567 422.1L566 422.4L565.8 423.3L564.9 422.8L564.9 423.8L562.6 423.3L561.6 424.1L560.5 423.8L557.8 425.1L556.2 424.4L556.1 423.2L555.1 422.8L551.6 422.7L550.4 422.1L549.3 422.4L548.2 425.7L547 428L547.1 428.9L546.3 429.3L547.8 431.9L547.8 432.9L545 434.2L545.2 437.4L548.8 438.1L549.8 437.9L552 439.4L553 439.1L554.4 440.6L553.2 442.8L550.4 445L551.3 446.6L550.8 449L551.4 451.6L552.7 454.2L552.6 457L554.3 456.5L554.8 459.3L555.5 459.9L556.7 463.9L556.6 465.2L554.9 464.9L555.3 466.1L554.5 466.6L552.9 465.1L551.1 465.4L549.9 468L548.6 468.2L547 467.6L544.7 469.2L544 471.6L542.9 472L542.5 473.9L543.5 475.2L542.8 476.9L541.1 477.3L540.6 480.1L542.1 480.9L544.6 484.3L544.2 485.6L543.1 485.1L541.6 486L540.3 485.2L539 485.6L537.8 485.3L537.2 484.4L535.5 483.7L533.5 484.2L533.3 483.2L532.5 484.1L532.8 485L532.5 487.2L532.1 487.6L532.6 489.3L533.6 490.8L533.2 496.5L532.5 497.4L532.5 498.8L534.6 500L534.7 502.3L536.7 501.9L539 502.7L540.7 500.8L541.6 502.2L542.5 501.9L543.2 500L545.3 501L547.2 502.4L548.3 502.3L550.5 502.2L554.5 498.7L555.8 498.3L558.1 498.4L558.3 502.4L559.4 503.8L560.2 503.9L561.3 502.9L562 504.1L563.6 503.3L562.7 501.7L563.5 501L563.8 499.6L562.7 498.8L563.7 498.1L563.6 497.3L565.5 495.6L566.2 494.6L566.7 494.9L566.9 498.4L568.4 497.6L569.2 497.9L571 499.7L572 499.4L573.9 497L574.8 496.4L577.2 495.8L577.6 494L575.8 492.6L575.7 490.8L577.1 487.8L579.4 486.6L580.3 485.5L580.3 483.8L579.9 483.3L577.8 483.4L576.8 482.2L577.2 479.4L578.6 478.7L581.1 479.3L582.2 480.7L581.9 481.8L583.1 482L583.9 483.3L583.4 485.2L585.6 484.6L586.7 485.5L587.7 484.3L588.9 480.2L589.6 480L589.6 478.8L590.2 476.9L590.9 476.2L590 473.9L589.1 473L589.5 470.4L592.4 464.1L594.1 462.1L594.7 462.9L596.7 462.7L598.5 461.8L599.1 460.8L599.3 459.3L600.4 459.5L601.2 458.9L601.1 457.6L601.7 459.1L602.7 459L603.9 457.7L605.2 455.2L608.3 453.8L608.6 455L606.8 455.6L605.7 458.1L604.4 459.6L604.1 461.8L605.8 461.9L607.7 461.3L607.9 458.8L608.5 457.8L609.9 456.8L611.1 454.6L612.6 453.8L613.1 452.2L614.2 451.3L616.8 451.3L619 450.5L620.3 446.3L619.5 444.7L617.5 444.2L615.7 446L616.1 447.1L615.3 447.5L614.7 446.5L613.5 449.2L612.7 449L612.8 447.7L613.7 445.9L614.7 444.7L613.7 443.3L612.4 443.9L608.9 446.9L607.3 447.2L610.1 444.4L610.1 443.6L611.3 442.5L610.8 440.5L612 440.1L612 438.4L611 438L606.9 437.9L605.4 437.6L604.6 436.1L603.3 435.4L602.2 433.7L598.3 432.6L598.2 431.1L597.4 429.3L599.6 429L601.1 427.1L600.9 423.1L603.5 421L605.4 418.9L608.3 417.8L609.4 417.9L610.1 420.6L611.3 420.9L612.4 419.5L614.2 419.6L614.4 421.8L615.9 421.4L616.3 422.2L617.5 421.3L619.6 421.4L619.9 419.9L618.3 418.9L617.7 416.8L618.2 416L620.6 415L622.5 417.5L624.9 419.4L626.1 422.5L624.9 422.9L624.7 424L623.6 425.4L622.2 428.3L621.3 431.4L620.4 431.9L619.8 433L619.7 434.7L618.6 436.9L617.4 438.4L616.9 440.2L618.2 440.5L618 439.5L619.3 439.8L620.2 438.5L621.2 438.5L621.2 439.7L622.6 439.2L623.2 439.6L622.6 440.6L623.5 440.7L624.8 440L625.6 441L626.3 440.5L626.2 439.4L628.3 438.6L628.1 439.6L629.9 439.6L631.1 438.8L631.9 439.2L633.5 437.7L634.1 438L634.9 436.7L636.9 434.8L638.2 434.2L640.2 434.9L643.3 433.9L645.6 434.1L646.2 433.3L645.6 431.7L647.8 432.2L648.5 431.1L649.3 431.5L649.1 432.5L651.4 432.8L652.3 432.1L652.8 430.7L653.8 430.4L655 431.2L657 430.6L659.4 429L661.9 429.8L663.8 429.4L664.6 428.4L664.2 427.3L663 427.6L662.9 425.9L662.2 425L663.2 425L663.2 424.2L662.1 423.7L661.7 420.7L662.1 418.9L661.2 415.3L660.3 414.1L661.3 412.4L660.9 411.2L660.9 408.6L659.9 408.3L658 409.2L657.5 408.5L657.6 407.3L658.7 406.1L658.7 404.5L657.6 402.8L658.4 401.5L661.6 402.3L663.3 401.8L666.6 402.6L667.3 402L666.8 400.5L665.7 399L665.4 397.6L664.2 397.5L663.5 396.5L662.5 396.1L661.8 393.5L663.7 391L665.3 390.2L665.4 389L666.5 387.7L668 387.9L669 387.4L669.2 386.2L668.7 384.2L669 383.6L676.5 383L678.1 384.3L678.1 386.5L677.6 387.1L679.9 388.8L680 390.4L679 391.3L679.4 394.6L681.6 395.8L681.3 396.7L684 395.4L683.5 393.6L684.8 391.3L686.4 389.6L687.5 390.8L688.3 389.3L687.2 389.4L686.5 388.7L686.3 387.3L685.3 385.9L686.6 384.6L688.2 384.7L688.6 385.6L689.6 385.4L690.2 384.1L691.4 383.4L691.8 381.5L690.4 379.9L690.8 378.7L690.4 377.4L691.3 375.9L693.6 372.9L693.6 372.2L692 370.3L691.2 369.9L688.4 369.5L687 368.6L685.8 369.1L683.7 367.6L683.5 366.3L682.7 364.6L680.7 364ZM649.7 433.6L649.2 434.2L650.9 434.4L650 433.1ZM694.3 390.3L693 388.2L692.1 387.8L691.4 388.8L689.7 389.3L689.9 390.1L691.4 390.3L693.4 389.8ZM695.9 380.1L694.3 379.5L694.1 380.5ZM681.9 461.1L681.7 461.8L683.2 460.6ZM556.4 501.4L557.1 503L557.3 502L556.8 500.9ZM602.9 478.5L602.6 480.3L602.9 481.2L604.5 481.7L606.1 480.7L606.7 479.6L605.8 478.2L605.3 475.3L604.4 475.7ZM670.7 414.3L669.9 415.2L670.9 416.4Z"/>
  <path class="region" id="adcode-370300" data-name="淄博" d="M364.4 453.7L367.9 453.6L368.2 452.2L369.3 451.4L369.2 450.1L370.3 448.5L372.1 447.6L373 445.4L374 445.4L374.3 444.2L374.9 445L375.9 444.6L376.2 443.3L377.7 442.6L380.2 442.5L380.5 443.4L385.2 444.3L387.4 446L388.3 449.5L386.9 450.2L388.4 451.5L388.7 452.6L390.4 453.7L391.6 453.7L391.7 454.9L392.7 455.8L393.9 456L393.9 456.7L395.2 456.3L396.6 455.3L397.9 455.1L399 453.6L400.2 453.3L400.8 453.9L403.5 452.6L404.4 452.5L405.3 450.6L407.7 450L408.2 448.3L411.3 447.9L413 450.7L416.1 453.1L417.4 451.9L420.8 451.7L421.2 451.3L420.5 449.9L419.1 448.2L419.8 447.3L419.2 445.8L418 444.9L417.3 443.5L418 442.4L419.4 443.1L421 443.3L421.4 442.6L422.4 443.1L423.1 440.7L423 439.4L422.1 437.9L422.4 437.3L421.5 436.4L420.2 437.4L418.4 436.6L418.6 434L418.2 433.3L418.9 432.5L418.3 430.5L419.8 429.4L419.3 428.7L416.5 427.5L415.9 428.6L414.8 427.5L414.1 428.6L412.8 428.6L411 429.3L409.8 428.7L410.2 427.4L409.8 424.5L408.2 422.9L406.8 419L407.6 418.4L408.1 414.1L407.4 413.3L406.1 412.8L404.2 410.8L400.3 412.7L399.4 412.3L400.3 410.4L400.1 408.9L400.5 407.3L399.7 406.4L400.3 405.2L399.6 404.8L399.1 402.9L397.6 402.2L398.6 400.6L395.3 400.4L394.4 399.5L394.5 398.7L393.8 397.2L392 395.3L391.5 393.6L393.3 391.9L393.2 390.6L390.6 391L390.3 390.2L390.8 387.9L391.2 387.7L390.6 385.1L391.3 384.4L390.9 382.9L389.4 381.4L389 379.8L389.6 378.8L388.8 378L389.1 376.7L388.8 374.9L390 374.1L389.2 373.1L386.7 372.2L385.8 370.1L385.5 370.2L385.5 367.9L385.1 367.1L385.5 365.7L386.5 364.9L387.7 363.1L389.2 361.9L388.3 359.7L387.6 359.4L389.4 358.1L389.9 356L390.9 356.5L390.6 355.4L389.4 355.4L389.4 353.7L390.7 351.9L392.6 352.4L391.8 351.5L390.6 351.4L391.8 349.4L390.7 348.6L391.4 347.5L393.6 346.7L394.7 347.8L396.1 348.4L396.9 347.9L396 346.7L395.5 345.1L396.4 343.8L398.4 343.7L398.4 340.4L399.4 340.6L400.6 340.2L401 341.4L404.1 341.7L408.3 338.6L411.8 337.9L412.3 337L413.9 336L414.1 333.5L413.5 332.1L415.1 332.2L415.5 329.5L416.4 329.9L416.2 331L418.5 330.1L418.4 329.1L416.8 328.9L418.1 326.8L418.7 326.5L418.7 323.5L417.8 322.9L418.6 321.7L419.5 321.7L420.2 320.2L419.8 319.3L420 317.9L417 317.4L413.9 317.8L410 317.7L409.8 316.8L408.1 316.7L408.2 313.8L407.9 313.4L404.4 313.4L403.5 315.3L401.3 314.7L401.1 313.4L400 313.9L398 314.1L397.7 310.5L397.4 309.9L395.5 309L394.5 309.5L393.2 309.5L392.8 311.8L391.5 311.9L391.1 313.4L390.1 314.4L388.7 315L387.1 314.4L386.8 312.9L383.3 312.4L383.4 311.5L382.3 311.5L382.5 309.8L380.9 309.1L380.9 307.9L380.4 306.3L380.9 305.3L381 303.8L382.3 303.4L382.2 302.3L383 301.9L382.9 300.9L380.6 300.9L380.6 299.2L380 297.3L378.4 296L377.9 296.8L375.1 297.2L372.6 298.5L371.9 297L370.7 296.4L370.6 295.3L371.9 295.3L373.2 293.9L374.4 293.2L372.8 290.7L372.2 289.1L372.5 287.5L373.8 286.4L373.5 285.4L374.8 284.3L374.2 283.8L373.8 281.8L372.7 280.9L370.9 281.6L370.7 280.1L369.7 279.4L368.1 279.3L367.8 280.9L366.8 281.3L365 280.6L363.9 280.9L363.5 279.7L362.8 280L363.5 277L365.2 275.9L364.6 275.6L364.6 273.7L361.7 272.4L359.8 273.7L360 272.9L359.2 271.2L355.7 273.3L353.4 273.7L352.2 272.2L349.2 270.9L347.9 270.9L345.7 271.8L341.7 275.6L340.8 276.1L339.3 276.1L335.9 275.5L331.9 274.4L330 272.6L328.2 272.1L326.5 273.2L325 275.8L324.7 278.4L323.4 280.6L321.5 281.9L320.8 286.5L320.2 287.8L318.8 289L316.3 289.7L317 292.8L318.9 293.2L319.1 294.1L318.1 294.7L318.9 297.6L320.7 298.2L322.6 297.4L323.8 297.5L326.6 298.3L329.8 299.8L333 300.4L335.6 300.4L337 300.9L339.5 300.8L340.5 300.4L343.7 300.1L348.9 300.8L348.1 305L348.2 306.3L350.9 306.6L351.4 308L350.9 308.9L351 310.8L351.4 311.9L355.4 312.4L356 313.3L355.8 315L356.1 316.3L358.1 317.9L358.6 318.8L358.5 321.5L359.4 319.5L360 321.1L361.4 320.5L361.3 322.2L360.2 323.3L359.1 323.5L359.1 324.8L357.9 325L356.7 326.4L356.5 327.8L353.7 327.5L353.7 328.5L351.9 329L350.9 328.2L349.9 329.1L347.3 329.1L346.7 329.7L347.2 332.3L346.1 333.9L345.9 337.2L345.3 337.7L345.4 338.9L346.3 339L346.5 340.7L348.1 340.5L349.2 342.2L349.4 344.1L347.3 344.9L347.4 344L346.6 342.5L345.9 343.4L344.8 346.4L343.1 348.4L342.9 350.1L341.7 350.7L341.2 351.8L338.6 351.5L335.5 351.8L334.6 351.4L334.4 352.3L332.8 353.1L332.1 355.6L332.4 357.5L333.6 357.7L334 359L333.6 360L334.3 361L334.3 363.4L333.4 363.2L333.2 364L331.6 364.1L332.4 364.9L334.3 364.7L333.4 365.7L334.3 367.7L333.4 367.3L332.2 368.2L332 369.1L334.9 370.3L335.3 372L337 373L337.3 375L338.2 375.1L339.9 376.7L339.9 377.2L338.3 377.1L336.6 377.8L337.4 378.7L338.8 379L339 380.6L338 381.4L339.9 382.6L338.9 384.1L339.6 384.9L338.8 386L341.4 386.5L342.2 387.5L343.3 386.7L343.6 387.7L345.5 387.2L346.1 386.3L347.3 386.3L346.6 388.4L346.9 389.7L349.7 390.4L350.2 393.6L351.1 394L352.4 396.2L352.7 398.1L353.6 396.8L354.1 397.7L353.9 400.4L354.9 398.7L356.3 398.6L358.4 400.2L358.3 401.1L356.8 402.4L356.7 403.4L357.4 404L357.1 405.7L358.1 408L357.6 408.9L358.2 409.6L359.4 409.3L362.7 410.1L362.9 410.9L362 412.8L361.6 416L362.1 417.4L361.2 418.8L359.5 418.3L357.8 419.9L357 418.9L356.2 419.3L356.4 420.4L355 423.2L356 423.3L356.6 424.4L355.4 425.9L356.2 427.5L356 428.6L357.3 430.7L357 431.7L358.1 433.8L359 433.8L359.8 433L360.6 434.4L360.5 435.5L359.7 435.6L359.2 436.9L360 438.1L358.6 438.3L358.2 439.5L359.8 440.9L360.1 444.2L359.4 444.3L360.2 447.1L358.8 447.1L358.7 449.2L359.8 450.6L359.8 452L360.6 452.3L362.5 450.7L364.8 450.5L363.9 452.6Z"/>
  <path class="region" id="adcode-370400" data-name="枣庄" d="M298.8 638.6L300 639.3L300.1 642.3L302.4 643.6L302.6 645.2L304 645.9L303.9 646.4L305.3 647.7L306.9 650.6L308.7 650.4L309.2 650.9L309.3 653L309.9 652.2L312.1 652.2L314.9 652.9L315.9 651.9L317.4 652.3L318.3 653.5L320.8 653.5L322 651.6L322.7 649.8L324.9 650.1L326.3 649L326.8 649.5L328.2 648.4L329.7 646.4L330.7 644.6L331 642.2L340.8 644.7L342.6 646L343.8 646L343.6 643.9L342.9 642.1L343.1 640.6L342.7 637.2L343.5 632.3L343 631.8L343.2 630.2L343 628.3L344.3 629L345.8 624.3L346.5 623.9L347.1 620.8L346.4 620.1L346.2 618L347 616.4L347 613.8L343.6 612.6L342 611L341.9 609.2L341.2 608.3L343.5 607L344.1 604.3L343.1 603.7L339.6 601.9L338.5 600.7L337.3 598.5L335.9 598.1L334.3 595.6L333.2 594.2L332.5 592.4L333.1 590.6L334 590.4L334.3 588.7L335.3 587.2L334.8 585.9L335.6 584.4L335.7 580.6L336.8 579.9L337.6 578.6L336.6 577.4L333.1 577.5L333.5 574.6L331.9 573.6L330.1 572.9L327.9 571.3L327.2 569.2L324.2 566.5L322.1 563.7L321.7 563.5L320.7 561.2L320.1 561.1L319.9 559.6L318.4 559L316.8 560L316 559.9L313.8 556.9L313.6 554.7L311.5 554.9L310.1 554L308.5 551.7L307.2 551L305 550.5L305.1 548.5L304 546.9L302.6 546.5L301.8 544.8L300.3 543.6L300.1 541.1L299.6 540.5L295.2 538.8L293.9 539.3L290.7 538.6L289.6 539.6L290.2 541L289.9 543.2L289.3 542L287.6 541.4L287 542.1L284.5 543L285.3 546.5L280 546.1L278.2 546.9L277.6 548.4L275.1 549L272.5 550.5L269.3 550.6L267.2 551.9L265.9 552L262.9 551L261.6 551.5L258.9 551.9L257.3 552.8L255.2 555.1L252.4 556.5L251.5 557.8L248.9 558.5L247.5 557.2L246.2 557.6L245.2 557.1L244.5 555.4L242.1 556.4L241 558.5L239.7 559L237.3 556.9L235 557.8L235.4 558.7L235.2 560.2L235.7 561.4L236.6 561.8L237.3 565L239.1 567.7L240.7 569.4L243.5 569.1L243.4 570.2L244.8 572.4L242.6 573.3L242.7 573.9L244.8 573.6L245.6 575.3L248.8 578L250.4 578.9L251 580.2L250.7 582.5L249.4 584.9L250.8 586.1L252.1 588.2L253.6 589.6L254.6 589.9L257.7 589.4L259.9 590L260.5 590.7L260.2 591.7L262.1 591.5L262.4 591L263.8 591.6L264.8 590.4L267.1 590L267.9 592.7L267.8 594.4L269 594.6L269.5 600L271 601.2L271.2 602.2L272.9 603.9L275.2 604.6L277.1 606.3L275.5 608.4L274.7 608.6L273.6 610.9L275.1 611.3L275.6 610.6L276.7 611L279.1 613.7L280.4 615.7L281.7 615.6L282.3 617.8L283.6 619L285.5 618.3L286.4 619.7L289.2 619.9L289.9 619.5L291.6 621.4L291.4 622.2L292.6 622.8L291.9 624.9L293.8 625.7L294.9 627L294.6 628L296 628.5L296.8 630.4L297.1 632.2L297.9 631.4L300 631.4L300.9 632.1L300.6 633.8L299.5 634.6L299.6 636.8L299 636.8Z"/>
  <path class="region" id="adcode-370500" data-name="东营" d="M392.6 151.2L391.6 153.8L390.7 154.7L392.2 155.7L392.6 156.9L391.5 159.7L390.5 160.2L391 163.4L390.6 166L410.7 163.9L411.7 163.9L411.8 167.8L410.5 167.7L390.2 171.2L390.9 173.2L389.9 173.8L390.2 176.9L389.1 177.5L389.3 178.4L390.3 178.2L390.6 179.7L390.4 182L391.2 182.1L391.5 184.5L392.4 185.9L391.6 187.4L391.9 189.6L393 191.1L392.9 189.2L394 191.6L394 193L395.3 191.8L397.1 191.3L398.8 189.4L400.1 190.6L401.7 190.1L403 193.9L402.4 194.7L403.7 194.7L403.5 195.8L404.8 196.3L404.4 197.2L405.4 200.3L403.9 200.5L403.1 202.8L403.1 204.2L404.4 205L404.5 206.1L403.2 206.6L402.7 209L400.5 209.1L400.7 211.3L400.4 211.1L399.1 214.4L399.2 215.4L398 216.1L397.9 217.2L396.9 218.4L394.3 219.4L392.7 218.9L392 219.2L390.4 218.1L388.4 218.4L387.7 217.6L387.1 218.4L385.1 219L384.6 220.9L383.8 220.8L383.6 222.7L382.7 223.1L382.9 224.2L382.7 226.2L381.8 227L382 227.8L380.5 228.4L379.7 230L380.1 231L380.9 230.9L380.4 232.7L381.2 233L384.7 232L385 232.9L384.7 234.3L383.2 235.4L382.9 236.6L382.2 236.6L381.3 238.2L380.7 238.5L381 239.8L380.4 239.8L380.5 241.3L379.7 242L379.8 243.1L378.9 243.5L378 245.9L379.4 246.5L378.7 246.9L378.3 249.2L380.6 248.9L382.1 249.4L383.7 252.4L383.8 253.6L383.2 254.7L383.4 256.1L381.5 255.7L380.5 256.8L381.2 257.9L382.7 257.8L382.8 259.6L383.3 259.9L387.8 257.1L389.5 256.7L389.6 258.6L390.1 259.1L392.6 259.1L392.7 257.9L394.1 257.6L394.4 259.6L395.7 260.2L397.1 259.8L397.7 260.4L397.2 261.3L400.3 261.3L400.3 266.5L400.8 267.7L401.5 267.6L401.4 268.9L403.2 269.2L403.2 270.3L404.7 270.3L405 271.2L406.1 271.3L405.5 272.1L406.5 272.1L406.9 274.2L406.1 274.2L405.2 276.2L404.2 276.3L403.7 277.7L405.7 280.9L407 281.5L407 282.7L407.8 283.6L408.2 285.4L407.5 285.7L407.1 288.6L405.9 289.7L405.4 289.4L404.8 290.7L403.8 290.6L403.1 291.7L403.7 292.8L402.8 292.9L404 295.9L402.8 295.7L402.9 297L402.2 298.6L402.8 299.9L402.7 302.5L401.3 303.5L401.5 305L399.7 306L399.5 307.1L397.5 308.6L397.4 309.9L397.7 310.5L398 314.1L400 313.9L401.1 313.4L401.3 314.7L403.5 315.3L404.4 313.4L407.9 313.4L408.2 313.8L408.1 316.7L409.8 316.8L410 317.7L413.9 317.8L417 317.4L418 315.8L421 316.6L420.9 317.6L423.3 317.4L423.6 318.2L424.7 318.6L426.6 318.4L427.3 317.2L426.9 314.6L427.2 313L426.3 312.7L426.5 309.9L427.6 310.7L429.4 310.6L427.9 310L428.4 309.3L430.5 309.7L429.8 308.7L430.3 307.5L428.5 306.8L425.6 306.6L425.6 304.6L427.2 304.2L426.9 302.8L427.3 301.2L429.4 301.2L430.6 300.5L432.8 301.2L435.1 300.7L435.1 300.2L437.5 299.3L437.7 298.5L438.7 298.6L439.1 297.3L439 294.2L439.7 290L437.5 289.3L437 287.3L436.6 287.9L435.3 287.4L435.3 286.3L436.6 285.3L437 283.8L438.2 284L439.1 282.5L439.5 280.2L440.4 278.3L443.6 276.6L445.7 275L451.2 271.3L456 270.1L459.8 269.4L479.9 267.9L476.7 266.7L475.7 265.9L474.1 263.1L473.5 260.2L474 259.4L476.6 258.7L477 258L475.9 257L473.6 257.7L473.1 257.2L472.6 254.1L471 247.1L469.3 241.2L468.9 237.1L470.3 233.1L472.5 227.7L474.3 224.1L478.2 221.2L482.7 221.2L488.6 220.3L492.4 219.3L501.5 219.7L504.4 218.6L506.4 214.1L508.5 205.4L509.5 198.4L509 192.9L507.7 189.5L504.6 187.8L502 188.3L498.9 193.8L493.3 196.5L490.5 195.3L489.1 189.9L488.8 185.7L487.7 182.3L480.5 175.8L476.1 172.4L472.7 158.2L471 156L468 153.5L465.4 151.9L462.1 150.4L459.5 149.7L454.8 149.3L451.1 149.4L445.5 149.8L434.4 152L432.4 153.3L432 157.2L431.3 160.3L427.8 162.9L426.4 163.6L424.4 162.5L423.9 161.1L422.5 159L422 156.7L421.1 155.4L418.7 154.1L416.4 153.6L415.1 154L413.1 156.5L411.8 156.3L410 154.4L408.6 154.1L407.4 154.6L405.2 154.4L402 153.9L395.8 152ZM410.7 163.9L390.6 166L390.2 171.2L410.5 167.7Z"/>
  <path class="region" id="adcode-370600" data-name="烟台" d="M538.9 292.3L538.1 296.1L538.9 297.8L537.1 300L537.5 301.8L542.2 304.3L543 305.2L542.6 308L543.6 307.4L543.7 308.1L544.7 307.7L548.4 308.7L550.5 310.1L554.4 308.9L554.9 310.8L555.9 311.5L557.2 310.9L558.1 311.1L560.2 310.4L560.4 308.9L564 308L565.7 309.9L566.7 309.6L569.1 309.6L574.5 310.2L574.7 310.6L577 310.7L578.8 309.3L579.9 309L581.2 308L582.8 308.4L583.3 307.4L584.8 308.2L585.7 308L588.1 309.9L589.3 310.1L590.9 307.1L595.6 307.4L596.6 307.9L599 307.6L600.7 306.8L601.1 307.8L603.1 308L603.9 307.4L603.8 306.3L604.5 305.1L605.3 305.4L606.3 304.6L606.7 305.2L608 304.6L609.3 302.1L609 300.2L609.7 297.9L610.7 297.6L610.9 295.2L611.5 292.5L612.5 293.5L614.5 294.1L616.3 291.8L618.8 292L618.5 293.4L620.1 294.3L620.7 295.2L621.9 294.5L622.5 295.5L622.4 297.2L623.5 297.8L623.8 299.3L624.8 298.3L625.3 296L626.1 295.5L628.1 295.5L629.2 296.6L630.4 296.8L630.9 295.7L630.2 294.3L631.1 294.7L633.8 293.8L633.9 293L636.4 294L638.1 292.8L639.7 292.4L639.8 291.4L641.1 290.1L641.2 289.4L642.3 289.4L643.4 290.1L643.5 291L645.1 292.2L645.7 294.3L644.4 298.6L644.8 301.6L644.1 302.5L645 303.8L645.9 304.2L646.9 303.4L648.2 303.5L649.7 301.9L649.9 303.2L652.1 303.4L653 306.6L651.6 308.1L652.1 309.7L650.8 311.1L649.5 309.6L648.8 310L648.6 311.6L648 312.2L647.7 314.6L647.1 315.3L647.4 316.5L648.3 316.9L648.7 319.9L650.6 322L653.3 322.1L653.9 322.6L653.9 324.9L650.6 326.1L648.9 326.4L649.2 329.3L650.2 329.3L651 330.1L650.1 331.4L650.3 332.1L652.5 332.9L652.8 333.4L651.6 336.7L650.4 337.2L647.4 337L647.4 338L646.5 340.3L644.9 341.8L645.3 342.6L645.5 345L647.1 345.3L647.3 346.1L649.7 346.3L649.8 347.2L651 350L649.9 351.3L650.3 351.8L653.2 352.5L653.5 353.6L654.9 354.7L654.2 355L654.4 356.6L656 355.7L657.2 356.1L656.8 357.1L658.1 358.2L657.7 361.1L656.3 361.2L656.2 363L655.4 365.1L655.6 368.3L658.5 367.1L658.6 366.5L660.2 366.3L662.7 365L662.3 363.9L663.3 363L663.3 361.9L665.2 361.4L668.1 362.7L668.7 364L669.6 363.8L670.9 364.7L671.2 366L671.9 366.2L678.9 363.1L678.6 362.2L682.4 361.1L683.9 361.8L685 361.6L687.3 362.9L687.1 365.2L687.6 366.2L690.5 368.1L697.2 368.3L698.6 368.5L700.4 367.6L701.5 365.8L704 363.8L707.9 361.8L711.5 359.3L713.1 357.8L714.8 357.3L716.8 357.5L719.7 355L721.7 355.4L723.1 355L725.6 352.1L726.8 351.1L728.2 350.8L730.4 350.8L734.7 349.3L735.6 349.5L736.6 351.1L738.7 351.2L740 350.5L740.5 349.1L739.8 347.5L738.3 347.2L738.7 345.9L740.7 344.5L745.3 343.9L746 342.5L748 341.4L746.2 339.5L744.9 338.7L741.3 338.4L740.4 338.7L738.9 338.2L739 336.9L736.8 333.2L736.4 331.8L735.2 331.7L734.7 330.2L734.7 328.6L735.4 327.5L737.8 326.8L735.5 324L735.7 323.1L735.1 320.7L733.6 320.8L729.8 323.1L729.3 322.9L728.8 321.1L726.5 321.1L725.3 319.9L724.3 320.1L723.2 318.4L722.7 316.3L721.1 315.8L720.3 313.9L719.9 311.7L718.4 311.9L716.3 310.4L715.4 310.6L714.9 309.4L715.3 307.7L716.8 307.2L716.8 306.1L716.1 305.8L716.1 304.2L716.6 302.7L716.4 300L717.9 299L722.1 297.2L722.5 295.8L724.1 293.6L727 291.1L729.1 290.3L729.9 290.4L730.4 291.6L731.3 292.3L732.9 292.4L733.7 291.2L734.8 290.6L735.4 292.1L734 292.4L736 294.6L736.8 293.9L737.5 294.4L738.4 296.3L742.4 296L743.9 293.2L744.6 292.9L746.6 293.2L750.3 295.5L755.6 295.4L758.6 294.7L759.2 295.2L760.2 293.8L760.3 292.2L759.7 291.7L760.3 290L761.4 290.4L762.7 292.6L764.1 291.7L764.5 290.9L765.6 290.7L765.7 291.7L767.3 293.1L768.7 293.2L769 294.6L769.9 293.1L770.5 292.9L770.4 291.8L771.1 291.5L770.5 290.3L771.7 290.4L772.3 292.5L776.1 292.6L776.5 291.1L777.6 291.2L779.8 286.3L779 285.4L778.3 286.1L777.8 285.6L779 285.2L778.9 283.4L779.9 282.8L779.1 279.8L778.3 280.7L778.5 279.5L777.7 279.1L777.6 276.6L778.6 275.7L780.6 275.7L780.9 274L781.7 272.9L782.5 270.1L782.3 268.6L782.8 268L785 268.5L785.8 268L787.1 266L789.9 264.5L790.5 263.4L791.1 259L792.4 257.2L794.4 255.9L795.3 254.6L796.4 251.8L797.2 248.9L798.1 247.4L797 244.6L793 245L787.6 244.8L780.4 245.5L777.6 245.3L768.6 244.5L768 242.6L767.3 241.8L765 241.8L763.4 243.3L761.3 245L759.9 245.4L758.7 246.3L758.2 248.9L757.5 249.1L754.4 247.6L753.9 246L752 246.1L748.1 244.3L746 241.7L745.6 240.5L745.9 237.7L743.4 235.1L740.7 234.2L739.5 232.8L738.9 228.4L737.8 228.2L738.2 227.4L740.6 228.2L742.3 228.3L743.7 227.5L743.4 226.9L740.6 225.7L737.8 223.1L736.6 223L735.2 222.2L733.8 222.1L733.2 223.1L734.8 224.7L735.1 226.9L734.4 227.5L728.9 229.3L723 229.6L719.1 229.3L715.5 227.8L714.1 226.9L711.8 224.2L711.9 223L713.2 220.5L712.6 219L711.1 218.5L711.5 216L713 213.2L712.9 212.1L711.7 210.4L710.8 209.9L706 209.9L703.7 210.6L702.9 209.6L702.5 210.7L701.5 210.9L699.5 210.5L697.5 208.8L697.2 207.3L694.9 204.9L692.7 204.4L690.2 202.4L689.2 201.2L688.9 200.1L689.6 199.4L689.5 197.3L688.3 196.1L686.8 196.4L686.1 195.8L684.5 195.9L683.3 194.6L680.6 194.6L677 196.2L674.7 196.1L673.1 195.3L671.1 194.9L669.3 195L668.4 194L667.2 194.6L666.1 194.5L657.7 200.2L655.2 199.7L653.8 200.5L650.9 203.7L649.2 204.6L643.5 205.1L642.5 206.1L638.5 205.4L637.4 205.1L634.7 205.5L633.6 207.3L627.9 212L626 213.4L623 214L610.5 214L609.2 215L609.7 217L611.1 218.3L612.4 219L615.1 218.9L615.5 219.9L615.4 221.9L614.7 223L612.8 223.7L609.1 224L608.6 224.7L609.4 226.4L608.4 228.5L612.6 233L611.4 234.2L609.9 236.3L607.4 237.4L606.9 239L601.3 243.3L597.4 244.9L595 245.6L592.6 247.9L586.9 248.7L584 251.1L580 251.9L578.6 255.6L577.5 256.5L568.3 257.9L567.9 258.7L568.2 260L567.7 262.6L568.8 263.4L569.3 264.9L571.1 265.6L571.7 266.7L572.7 267L573.2 268.2L573.2 269.4L572.5 271.1L574 271.9L573.6 273.5L570.2 273.7L570 274.9L572.9 275.1L572 276.7L570.6 277.6L566.8 278.8L565.9 279.6L564.4 282.8L562.4 284.4L561.3 285.7L560.3 287.8L558.4 289.6L556.9 291.5L555.2 290.1L551.1 290.1L551 288.4L550.1 288.1L544.7 290.3ZM751.3 233.6L753.3 232.2L752.6 231.8L751.1 233ZM665.7 178.7L664.8 178.9L664.8 180.9L665.6 180.9L665.2 181.9L665.9 182.3L664.8 182.9L665.5 184L666.9 184L668.3 186L669.1 186.6L669.6 185.8L668.9 183.6L669.6 182.1L668.8 181.2L667.5 178.1L666.6 177.6ZM661.6 173.6L662 175L663.1 176L666 176.7L666.4 175.4L665.8 174.9L665.1 173.1L664.2 173.1L662.1 172L660.8 172.5ZM657.3 174.1L656.3 176.2L657.4 176.4L657.9 174.7ZM635.2 203.5L636.4 201.1L635.3 200.8L633.3 201.1L634.3 203.2ZM660.5 181.3L661.1 180.9L661.6 178.7L660.1 179L660.2 180.1L659.5 181.2ZM668 150.3L669.1 149.1L670.3 149.5L672 149.2L671 147.2L669.1 146.7L668.3 144.1L667.7 143L667.1 143.5L666.6 146.9L666.6 148.7ZM686.5 123.1L686 121.7L686.7 120.6L685.9 120.3L686 119.1L684.4 119.3L683.9 120.5L685.1 122.4ZM678 124.4L679.7 123.3L678.1 121.6ZM684.8 117.9L686.8 117.4L687.9 117.9L687.9 116.6L686.1 115.1L684.2 117.3ZM654.3 178.9L654.8 178L655 174.3L653 173.5L651.7 174.3L651.2 175.4L652 177.4ZM673.7 131.6L675.1 131L676 129.7L678.1 129.3L678.9 127.9L677.3 126.6L675.2 126.9L674.3 127.7L673.1 131ZM689.2 168.6L690 167.9L689.7 166.8L687.8 166.4L688 167.6ZM565.8 267.3L566.3 266.4L565.6 266.2ZM738.1 410.4L739 410.7L738.4 409.6ZM656.5 152.9L657.3 151.6L656.6 150.4L655.9 150.6L655.6 151.9ZM682 167.6L681.4 167.5L681.8 168.8ZM656.4 163.7L657.2 163.1L657.2 161.7L656.4 161.6L656 162.8Z"/>
  <path class="region" id="adcode-370700" data-name="潍坊" d="M421.5 436.4L423.1 435.1L423.8 433.9L423.5 432.4L421.1 432.2L421.7 431L422.3 431.7L424.5 430.5L425.2 429.6L426.8 428.8L427.7 428.9L427.6 426.6L428.5 425.4L429.6 426L432.3 424.3L434 422.5L436.1 423.4L436.5 422.6L437.4 422.6L438.8 423.6L439.9 423.5L440.8 425.1L440.4 426L442.7 427L443 426.2L444.2 425.6L445.4 427.5L446.6 426.7L446.2 426L446.3 423.9L447.2 424.1L448.2 421.7L447.6 420.5L449.9 418.5L452 419.8L453.8 419L454.6 419.6L457.5 419L458.7 419.5L458.9 421L458.5 421.5L458.7 423.2L459.6 423.5L460.1 424.6L460 427.1L460.6 427.7L460 429L460.2 431L460.8 431.2L460.2 432.9L461.9 434.2L462.5 435.2L463.1 434.6L465.5 434.2L466.8 432.3L466.3 431.4L468.6 431.2L469.3 430.4L470.6 431.5L471 432.5L472.3 432.4L472.3 433.2L474.3 434.1L475.6 433.1L477.1 433.2L477.8 432.5L479.8 434.3L480.9 434L482.9 435.5L482.5 436.4L481 437.6L480.2 439.1L480 440.8L481.3 441.5L480.8 443.3L479.5 443.5L478.2 443.1L477.5 443.4L477.1 444.8L478.2 445.1L478.3 446.1L477.3 447.2L477.9 449.7L481.3 449.3L482.2 449.6L482.9 451.5L484.2 452.2L485.3 451.6L488.9 451.7L490.3 450.9L492.4 450.5L492.6 451.3L495.2 450.6L495.6 451.8L495.3 456.7L495.7 457.7L494.2 457.9L492.2 459.5L491.5 459.6L490.5 461.2L492.9 462.6L493.3 461L494.1 460.9L496.5 463L499.4 463L502 462.3L506.5 458.8L507.9 458.7L508.3 461.2L510.3 461.9L513.5 461.1L515.2 462.4L516.4 465.6L514.9 467.7L516.5 469.7L516.7 471.6L516.1 477.7L516.9 477.7L518.5 476.7L519.3 475.6L522.6 473.5L524.4 473.2L525.6 472.5L526.6 472.6L528.6 473.8L529.8 475.1L530.1 476.6L529 477.6L529.2 479.9L531 480.2L533.3 483.2L533.5 484.2L535.5 483.7L537.2 484.4L537.8 485.3L539 485.6L540.3 485.2L541.6 486L543.1 485.1L544.2 485.6L544.6 484.3L542.1 480.9L540.6 480.1L541.1 477.3L542.8 476.9L543.5 475.2L542.5 473.9L542.9 472L544 471.6L544.7 469.2L547 467.6L548.6 468.2L549.9 468L551.1 465.4L552.9 465.1L554.5 466.6L555.3 466.1L554.9 464.9L556.6 465.2L556.7 463.9L555.5 459.9L554.8 459.3L554.3 456.5L552.6 457L552.7 454.2L551.4 451.6L550.8 449L551.3 446.6L550.4 445L553.2 442.8L554.4 440.6L553 439.1L552 439.4L549.8 437.9L548.8 438.1L545.2 437.4L545 434.2L547.8 432.9L547.8 431.9L546.3 429.3L547.1 428.9L547 428L548.2 425.7L549.3 422.4L550.4 422.1L551.6 422.7L555.1 422.8L556.1 423.2L556.2 424.4L557.8 425.1L560.5 423.8L561.6 424.1L562.6 423.3L564.9 423.8L564.9 422.8L565.8 423.3L566 422.4L567 422.1L566 419.6L566.7 418L565.6 417.8L564.4 414.9L565.8 413.4L565.7 411.6L566.7 411.4L567.2 408.7L568.9 406.8L569.5 405.5L570.4 405.5L570.7 404.6L573.6 403.2L574.1 401.1L574 399.2L575 396.2L575 394.7L575.6 394.3L577.8 394.2L578.5 394.8L579.5 394.2L579 392.8L577.4 391.7L577.3 389.5L578.2 389.4L578.4 388.4L580 385.8L580.4 386.1L582 385.3L584.8 385.3L585.1 385.8L586.8 384.7L586.9 382.9L586.2 382.7L585.9 381.6L586.7 380.6L585.9 379.9L586.6 377.2L585.2 377.9L582.7 376.3L582.4 375.4L580.1 375.8L578.5 376.9L578.5 379L577 379.1L576.7 375.5L576.4 374.9L566.4 372.9L558.6 369.5L557.7 368.7L555.5 369.9L555.8 367.4L552.6 364.4L550.5 363.9L549.2 362.6L547.1 361.6L544.3 359.5L543.4 357.6L543 356L542.3 355.6L541.1 352.5L540.1 351.6L539.3 349.5L537.9 349.3L537.2 348.2L535.7 347.6L534.4 345.2L533.9 342.1L534.1 340.1L534.8 339.1L534.8 337.4L536.1 336.2L537.5 337L538 336.6L541.3 329.5L541.5 326.6L541.5 320.8L539.7 316.7L541.3 311.3L542 310.4L542.6 308L543 305.2L542.2 304.3L537.5 301.8L537.1 300L538.9 297.8L538.1 296.1L538.9 292.3L532.6 291.9L530.9 292.2L529.8 291.5L529.8 290.1L528.5 288.4L528.2 288.8L529.4 290.3L529.4 291.4L524.5 291.9L522.3 292.6L515.7 292.5L514.2 293L513.2 293.7L511.8 293.9L510.8 293.3L509.4 291L508.5 290.2L508.2 288L507.6 287.2L507.6 285.4L508.4 282.7L508.1 281.6L506.6 280.6L504.3 281.2L502.4 280.7L501.1 279.3L500 278.9L498.3 279.1L498 280.9L498.1 283.1L496.7 282.6L496.9 279.3L498 275.9L497.8 274.9L496.7 274.9L496.5 274.1L498.9 272.2L498 271.3L490.6 278L489.7 277.4L491.1 273.7L491.2 271.3L492.9 271.1L493.9 272.1L494.2 271.5L492.9 270.1L490.8 270.1L490.4 271L490.3 273.6L489.6 274.7L487.5 274L485.6 274.4L484.8 276.9L482.9 276.5L481.5 274.7L481.3 271.7L480.5 268.7L479.9 267.9L459.8 269.4L456 270.1L451.2 271.3L445.7 275L443.6 276.6L440.4 278.3L439.5 280.2L439.1 282.5L438.2 284L437 283.8L436.6 285.3L435.3 286.3L435.3 287.4L436.6 287.9L437 287.3L437.5 289.3L439.7 290L439 294.2L439.1 297.3L438.7 298.6L437.7 298.5L437.5 299.3L435.1 300.2L435.1 300.7L432.8 301.2L430.6 300.5L429.4 301.2L427.3 301.2L426.9 302.8L427.2 304.2L425.6 304.6L425.6 306.6L428.5 306.8L430.3 307.5L429.8 308.7L430.5 309.7L428.4 309.3L427.9 310L429.4 310.6L427.6 310.7L426.5 309.9L426.3 312.7L427.2 313L426.9 314.6L427.3 317.2L426.6 318.4L424.7 318.6L423.6 318.2L423.3 317.4L420.9 317.6L421 316.6L418 315.8L417 317.4L420 317.9L419.8 319.3L420.2 320.2L419.5 321.7L418.6 321.7L417.8 322.9L418.7 323.5L418.7 326.5L418.1 326.8L416.8 328.9L418.4 329.1L418.5 330.1L416.2 331L416.4 329.9L415.5 329.5L415.1 332.2L413.5 332.1L414.1 333.5L413.9 336L412.3 337L411.8 337.9L408.3 338.6L404.1 341.7L401 341.4L400.6 340.2L399.4 340.6L398.4 340.4L398.4 343.7L396.4 343.8L395.5 345.1L396 346.7L396.9 347.9L396.1 348.4L394.7 347.8L393.6 346.7L391.4 347.5L390.7 348.6L391.8 349.4L390.6 351.4L391.8 351.5L392.6 352.4L390.7 351.9L389.4 353.7L389.4 355.4L390.6 355.4L390.9 356.5L389.9 356L389.4 358.1L387.6 359.4L388.3 359.7L389.2 361.9L387.7 363.1L386.5 364.9L385.5 365.7L385.1 367.1L385.5 367.9L385.5 370.2L385.8 370.1L386.7 372.2L389.2 373.1L390 374.1L388.8 374.9L389.1 376.7L388.8 378L389.6 378.8L389 379.8L389.4 381.4L390.9 382.9L391.3 384.4L390.6 385.1L391.2 387.7L390.8 387.9L390.3 390.2L390.6 391L393.2 390.6L393.3 391.9L391.5 393.6L392 395.3L393.8 397.2L394.5 398.7L394.4 399.5L395.3 400.4L398.6 400.6L397.6 402.2L399.1 402.9L399.6 404.8L400.3 405.2L399.7 406.4L400.5 407.3L400.1 408.9L400.3 410.4L399.4 412.3L400.3 412.7L404.2 410.8L406.1 412.8L407.4 413.3L408.1 414.1L407.6 418.4L406.8 419L408.2 422.9L409.8 424.5L410.2 427.4L409.8 428.7L411 429.3L412.8 428.6L414.1 428.6L414.8 427.5L415.9 428.6L416.5 427.5L419.3 428.7L419.8 429.4L418.3 430.5L418.9 432.5L418.2 433.3L418.6 434L418.4 436.6L420.2 437.4Z"/>
  <path class="region" id="adcode-370800" data-name="济宁" d="M190.8 601.4L193.7 597.3L194.7 596.6L194.7 595.7L195.9 595L198.6 595.4L200.8 594.9L201.1 594.2L203.3 594.5L205.8 593.8L207.4 593.8L213.3 592L214.2 589.7L215.2 589.6L216.1 590.7L218.1 591.2L218.2 590.6L220.1 590.6L220.3 589.8L222.4 590.7L223.4 590.5L225 591.6L226.6 591.8L229.8 592.9L231.7 592.8L232.3 589.6L233.5 589.9L233.4 589.1L232.1 588.7L231.7 586.8L232.5 587L232.5 585L233.9 585.6L234.1 590.1L233.6 591.2L235.1 591.3L234.5 590.1L234.4 585.9L235.5 586.3L236.2 591.1L240.1 591.3L242.1 593.4L244.6 594.4L247.2 595.8L247.2 598.9L249.7 598.6L249.7 598.2L252.1 598.3L253.2 599.3L248.4 600.2L248 600.5L247.9 602.7L252 602.5L253.4 606.5L252.6 606.9L250.3 607L250.4 609.2L252 610.5L252.2 612.1L253.2 612.3L253.3 613.3L254.6 613.1L255.2 614L258.1 613.9L260.5 617L262.4 618.6L263.5 620L263.3 620.7L264.2 622.3L263.6 622.6L262.5 625.1L262.6 627.5L263.7 630L264.7 630.1L266.3 628.9L267.1 628.7L268.4 631.4L269.3 634.6L270.4 637.1L271.9 639.2L272.3 640.6L271.2 643.4L271.1 645.5L271.8 648L272.9 651.1L273.3 654.8L274 657.3L277.6 657.3L277.7 656.3L280.1 655.8L280.1 655.1L281.5 654.6L283 655.1L283.8 653.6L283.8 652.2L282.4 651.4L283.4 650.3L283.9 651.7L284.7 652.2L285.1 651.2L284.2 648.9L285.9 648.1L285.4 647L285.9 645.9L285.2 644.2L287.1 644.1L289 643L289 642L287.4 641.1L286.5 641.5L285.7 641L286.7 640L289.6 639L289 640.7L291 639.8L292.3 640.3L291.5 639.1L293.5 637.6L294.5 637.3L295.8 638.2L296.5 637.2L298.8 638.6L299 636.8L299.6 636.8L299.5 634.6L300.6 633.8L300.9 632.1L300 631.4L297.9 631.4L297.1 632.2L296.8 630.4L296 628.5L294.6 628L294.9 627L293.8 625.7L291.9 624.9L292.6 622.8L291.4 622.2L291.6 621.4L289.9 619.5L289.2 619.9L286.4 619.7L285.5 618.3L283.6 619L282.3 617.8L281.7 615.6L280.4 615.7L279.1 613.7L276.7 611L275.6 610.6L275.1 611.3L273.6 610.9L274.7 608.6L275.5 608.4L277.1 606.3L275.2 604.6L272.9 603.9L271.2 602.2L271 601.2L269.5 600L269 594.6L267.8 594.4L267.9 592.7L267.1 590L264.8 590.4L263.8 591.6L262.4 591L262.1 591.5L260.2 591.7L260.5 590.7L259.9 590L257.7 589.4L254.6 589.9L253.6 589.6L252.1 588.2L250.8 586.1L249.4 584.9L250.7 582.5L251 580.2L250.4 578.9L248.8 578L245.6 575.3L244.8 573.6L242.7 573.9L242.6 573.3L244.8 572.4L243.4 570.2L243.5 569.1L240.7 569.4L239.1 567.7L237.3 565L236.6 561.8L235.7 561.4L235.2 560.2L235.4 558.7L235 557.8L237.3 556.9L239.7 559L241 558.5L242.1 556.4L244.5 555.4L245.2 557.1L246.2 557.6L247.5 557.2L248.9 558.5L251.5 557.8L252.4 556.5L255.2 555.1L257.3 552.8L258.9 551.9L261.6 551.5L262.9 551L265.9 552L267.2 551.9L269.3 550.6L272.5 550.5L275.1 549L277.6 548.4L278.2 546.9L280 546.1L285.3 546.5L284.5 543L287 542.1L287.6 541.4L289.3 542L289.9 543.2L290.2 541L289.6 539.6L290.7 538.6L293.9 539.3L295.2 538.8L299.6 540.5L300.1 541.1L300.3 543.6L301.8 544.8L304 543.7L306.6 543L308.4 539.4L305.6 538L304.8 537.2L304 534.7L304 533.3L306.7 531.1L306.6 529.1L307.9 527.7L307.1 525.4L305.8 524.5L305.6 522.1L302.8 519.9L304.3 518.5L305.4 515.7L306.6 514.6L307.1 512.7L307.6 512.4L308.7 513.3L310.5 513.9L310.9 512.6L312.2 512.4L312.9 511.7L312.5 510.7L311.1 510.1L310.3 508.5L310.6 507.5L312.3 507.5L313.8 508L319.7 507L320.9 505.2L320.6 504.4L320.9 502.2L320.1 501.7L320.4 498.2L321.3 496.7L319 494.1L313.9 489.6L312.9 487.6L314.1 486.4L311.9 485.6L309.7 486.2L309.4 484.5L308.3 482.9L305.5 481.6L304.1 481.3L303.1 479.1L301.4 477.1L298.7 478.2L297.4 477.1L295.8 477.8L294.2 476.1L293.5 475.9L293.2 474.6L290.7 474.6L289.4 473.9L288.4 475.3L284.3 477.7L280.7 477.3L279.7 476.7L277.7 477.1L274.9 476.5L273.7 477.2L271.5 477.6L270.6 478.2L269.8 477.8L271.1 476.8L270.1 475.6L267.1 475.1L266.4 473.4L264.9 473.2L263.5 475.1L261.2 473.6L258.7 473.9L256.8 472.7L254.8 473L255 474.6L252.9 479.1L250.5 479.7L249.8 481.3L250.5 482.2L250.8 484.7L250.2 485.2L248.1 485.5L248.1 486L246.7 486.5L245.8 487.3L244.4 487.1L242.6 487.8L242.5 489.3L240.5 490.1L237.8 487.7L236.3 487.7L236.1 486.6L235 486.5L234.6 488.5L234 489.5L234.3 490.1L231.4 490.1L231.2 488.5L230.4 486.8L229.6 486.2L227.1 486.9L223 486L222.6 484.5L221.5 484L214.8 486.5L213.5 486.6L213.1 485.6L213.3 480.6L213.9 479.6L215.8 478.6L218.6 479.4L219.5 479L221.3 474L221.3 471.9L220.2 470.8L216.9 469.3L213.6 466.3L213.4 464.9L214.4 463.2L217 462.3L219.1 460.5L219.7 457.3L220.2 456.7L219 454.8L214.8 455L213.8 455.4L211.7 458L211.3 459.5L208 460.3L207 461.5L206.2 466L204.8 467.4L203.5 467.3L203 466.6L202.4 468.1L201.6 467.9L199.3 468.2L198.1 469.3L197.2 468.9L196.3 469.9L196.3 471.6L193.8 472.8L192.9 474.3L192.1 473.9L189.8 474.5L188.2 473.5L187.3 474.2L185.7 474.3L184.9 473.7L182.8 474.2L182 475.5L179.8 477.3L179 476.9L178.5 474.4L179.2 473.9L176.3 472.9L176 473.3L173.3 470.6L172.8 469.1L171.5 466.8L171.2 465.5L171.5 461.8L170.1 461.2L169.8 462.9L169.4 461.6L168.7 462L166.7 461.2L166.2 460.1L164.1 459.6L163.5 460.2L162.7 462.1L161.5 460.8L159.7 461.4L156 459.5L154.8 458.3L155.3 457.1L154 456.5L153.8 454.8L152.3 455.3L151.1 453.7L152.4 452.6L153 451.4L152.6 450.2L151.4 449.1L151.1 450.7L150 451.6L146.7 450.3L144.2 450.1L141.1 451L136.1 452L135.5 454L135.9 455.4L135.7 456.6L132.1 457.5L131.8 458.9L133.1 459L133.6 460.5L133 460.8L132.9 462.9L132.2 463.6L132.2 464.7L132.1 469L132.3 471L133 472.7L134.6 473.1L136.1 472.2L137.7 473.1L137.2 473.9L139.8 474.9L142.5 476.2L147.7 479.7L148.7 480.6L150.4 482.7L153.6 484.7L154.6 485.6L155.7 487.4L157.1 489L159.2 490.8L159.8 494.2L160.6 495.6L158.5 498.4L158.6 499.9L159.5 501.7L159.5 502.5L158.4 503.9L158.5 505.4L159.4 508.9L159.6 512.2L159.1 514.6L159.9 515.8L160 517.7L162.3 518.5L163.5 518.2L163 521.5L164.3 520.8L165.4 521.1L165.3 518.9L166.5 517.4L166.5 518.7L167.4 519.3L168.5 519L168 520L168.3 523L169.5 523L169.5 525.2L169.2 526.6L169.5 528.7L170.4 531.7L170.1 533.4L169.4 534.5L168 535.2L167.1 536.3L167.7 540.7L169.5 542.5L170.4 546.7L171.9 546.5L175 545.2L175.4 545.4L177.2 549L177 551.4L175.4 556L173.1 555.4L171.6 553.7L171.6 554.8L170.9 555.5L169.2 555.2L170.2 557.2L170.4 558.4L169.4 560.8L168.3 562.1L165.8 566.6L162.7 566.4L161.3 569.5L162.7 569.8L161.2 573.6L161.3 574.3L158.9 574.5L158.4 576.3L158.5 578.2L161.2 582.3L164.6 585.1L164.6 586.4L163.6 587.3L162.8 588.7L163.6 589.2L166.9 589.8L167.9 592.4L169.3 593.3L170.7 593.5L175.1 595.4L177.3 597.5L178.7 598L181.6 598.4L182.6 599.3L182.6 600.1L185.8 600.3L186.9 599.7Z"/>
  <path class="region" id="adcode-370900" data-name="泰安" d="M358.8 447.1L358.5 446L357.5 445.9L357.2 444.5L356.2 443.9L354.1 443.9L352.1 444.4L350.9 445.6L349.6 445.7L348.2 445L346.8 445.5L346.4 444.8L343.8 444.9L343.1 444.6L341.7 445.6L341.6 447.3L339.5 447.9L338.9 447.7L338.9 446.3L338.2 445L338.9 444L337.2 441.7L335.5 442.6L334.9 441.4L332.8 440.5L331.6 439.5L327.9 439.9L325 438.5L321.9 436.3L319 436.5L317.4 435.8L316.5 434.7L315.9 432.2L314.5 431.5L311.3 433.3L309.7 433.5L309 432.9L307.8 434.4L305.4 434.7L304.9 434.1L305.9 433L305.7 431.5L306.7 430.7L304.8 430.2L306.2 426.3L307.3 425.6L308.1 426.2L309.3 425L308 423.1L306.4 423.5L304.8 421.2L304.1 420.6L305.4 419L304.9 418.9L304.9 416.9L302.7 416.5L301.1 417.9L299.6 417.4L298.9 416.3L298.9 414.3L301.6 413.5L301.2 410.2L299.1 410.4L299.4 408L298.3 407.8L298.4 406.3L297.4 403.7L298.4 402.2L298.3 400.6L295.6 397.6L294.4 395.1L294.2 393L293.6 391.6L293 388.6L293 386.9L293.8 384.5L293.8 383.4L292.6 383.1L289.4 383L289.4 382.3L287.4 381.8L287.5 382.8L286 385.1L284.7 385.4L283.2 387.1L282.3 390.1L279.7 391.3L278.7 391.4L277.8 393.5L276.8 395L275.6 395.9L275.8 397.5L275.5 398.5L273.4 398.7L271.4 399.6L270.8 401L268 400.3L267.5 400.5L265.5 399.5L264.2 402.8L264.2 404.8L263.9 406.2L263.1 406.2L261.3 407.3L261 408L259 408.9L258.7 410L256.1 410.5L256 412L254.4 412.5L253 413.5L251 411.3L250.2 411.6L248.3 411L247.9 409.9L243.7 411.9L241.8 410.7L241.2 408.4L239.8 407.2L239.9 405.6L237.1 406.5L234.7 405.9L232.3 404.2L230.7 404.2L229.6 405.1L226.4 406.6L223.9 408.6L222.9 408.5L221.3 409.1L220.1 409L217.1 406.4L215.3 406.3L212.8 407L211.8 409.3L210.4 410L209.7 411.9L208.9 410.8L207.2 411.1L206.5 412.9L204.8 413.2L203.6 411.9L202.1 412.1L201.5 413.9L199.1 414.5L199.4 415.5L197.7 417.4L198.8 419.8L201 420.4L201.9 422.6L203.6 423.7L203.2 425.3L201.9 426.5L201.5 427.4L202.9 427.4L203.9 426.9L203.5 428.2L205.5 427.7L207.2 428.4L207.6 430.1L208.3 430.5L208.1 431.8L206.8 431.9L205.9 432.9L205.5 434.9L204.3 436.5L201.2 437.8L197.6 437.9L195.5 438.7L195.2 440.2L193.6 441.4L193.7 440.3L193 439.5L193.4 438.5L192.8 437.5L190.8 437.4L189.9 436.6L189.5 435.1L188.3 434.3L185.4 435.1L184.6 437L183 438.5L181.5 439.3L179.9 439.5L179.3 440.3L178.9 442.4L178.2 442.4L175.6 440.7L175.2 439.4L175.2 436.5L175.8 433.9L175.7 431.7L174.5 429.9L172.9 426.3L170.6 423L169.2 423.5L164.4 423.3L163.9 423.7L163.9 426.8L159.4 428.1L158.3 430L156.7 431.4L156.4 434.1L155.9 434.5L155.4 436.9L154.2 438.9L154.5 440.8L153.9 443.1L152.7 442.7L151.6 446.8L151.4 449.1L152.6 450.2L153 451.4L152.4 452.6L151.1 453.7L152.3 455.3L153.8 454.8L154 456.5L155.3 457.1L154.8 458.3L156 459.5L159.7 461.4L161.5 460.8L162.7 462.1L163.5 460.2L164.1 459.6L166.2 460.1L166.7 461.2L168.7 462L169.4 461.6L169.8 462.9L170.1 461.2L171.5 461.8L171.2 465.5L171.5 466.8L172.8 469.1L173.3 470.6L176 473.3L176.3 472.9L179.2 473.9L178.5 474.4L179 476.9L179.8 477.3L182 475.5L182.8 474.2L184.9 473.7L185.7 474.3L187.3 474.2L188.2 473.5L189.8 474.5L192.1 473.9L192.9 474.3L193.8 472.8L196.3 471.6L196.3 469.9L197.2 468.9L198.1 469.3L199.3 468.2L201.6 467.9L202.4 468.1L203 466.6L203.5 467.3L204.8 467.4L206.2 466L207 461.5L208 460.3L211.3 459.5L211.7 458L213.8 455.4L214.8 455L219 454.8L220.2 456.7L219.7 457.3L219.1 460.5L217 462.3L214.4 463.2L213.4 464.9L213.6 466.3L216.9 469.3L220.2 470.8L221.3 471.9L221.3 474L219.5 479L218.6 479.4L215.8 478.6L213.9 479.6L213.3 480.6L213.1 485.6L213.5 486.6L214.8 486.5L221.5 484L222.6 484.5L223 486L227.1 486.9L229.6 486.2L230.4 486.8L231.2 488.5L231.4 490.1L234.3 490.1L234 489.5L234.6 488.5L235 486.5L236.1 486.6L236.3 487.7L237.8 487.7L240.5 490.1L242.5 489.3L242.6 487.8L244.4 487.1L245.8 487.3L246.7 486.5L248.1 486L248.1 485.5L250.2 485.2L250.8 484.7L250.5 482.2L249.8 481.3L250.5 479.7L252.9 479.1L255 474.6L254.8 473L256.8 472.7L258.7 473.9L261.2 473.6L263.5 475.1L264.9 473.2L266.4 473.4L267.1 475.1L270.1 475.6L271.1 476.8L269.8 477.8L270.6 478.2L271.5 477.6L273.7 477.2L274.9 476.5L277.7 477.1L279.7 476.7L280.7 477.3L284.3 477.7L288.4 475.3L289.4 473.9L290.7 474.6L293.2 474.6L293.5 475.9L294.2 476.1L295.8 477.8L297.4 477.1L298.7 478.2L301.4 477.1L303.1 479.1L304.1 481.3L305.5 481.6L308.3 482.9L309.4 484.5L309.7 486.2L311.9 485.6L314.1 486.4L312.9 487.6L313.9 489.6L319 494.1L321.3 496.7L321.6 494.2L322.2 490.7L324.5 486.8L325.5 486.1L328.7 486L330.4 485.5L333.5 483.8L336.2 485.6L338.6 486L340.2 483.7L341.6 482.7L344.9 482.9L346.2 482L347.8 481.7L347.4 479.1L346.8 477.3L347.1 475.6L348.7 474.3L348.2 472.1L346.8 470.8L346.7 470L348.3 467.7L349.7 467L351 464.3L352.8 462.6L355.3 462.3L357.3 462.8L358.8 463.6L361.3 464.2L362.1 462.4L363.4 461.6L363.6 459.4L364.3 459L365.5 456.8L365.3 455.5L364.4 453.7L363.9 452.6L364.8 450.5L362.5 450.7L360.6 452.3L359.8 452L359.8 450.6L358.7 449.2Z"/>
  <path class="region" id="adcode-371000" data-name="威海" d="M797 244.6L798.1 247.4L797.2 248.9L796.4 251.8L795.3 254.6L794.4 255.9L792.4 257.2L791.1 259L790.5 263.4L789.9 264.5L787.1 266L785.8 268L785 268.5L782.8 268L782.3 268.6L782.5 270.1L781.7 272.9L780.9 274L780.6 275.7L778.6 275.7L777.6 276.6L777.7 279.1L778.5 279.5L778.3 280.7L779.1 279.8L779.9 282.8L778.9 283.4L779 285.2L777.8 285.6L778.3 286.1L779 285.4L779.8 286.3L777.6 291.2L776.5 291.1L776.1 292.6L772.3 292.5L771.7 290.4L770.5 290.3L771.1 291.5L770.4 291.8L770.5 292.9L769.9 293.1L769 294.6L768.7 293.2L767.3 293.1L765.7 291.7L765.6 290.7L764.5 290.9L764.1 291.7L762.7 292.6L761.4 290.4L760.3 290L759.7 291.7L760.3 292.2L760.2 293.8L759.2 295.2L758.6 294.7L755.6 295.4L750.3 295.5L746.6 293.2L744.6 292.9L743.9 293.2L742.4 296L738.4 296.3L737.5 294.4L736.8 293.9L736 294.6L734 292.4L735.4 292.1L734.8 290.6L733.7 291.2L732.9 292.4L731.3 292.3L730.4 291.6L729.9 290.4L729.1 290.3L727 291.1L724.1 293.6L722.5 295.8L722.1 297.2L717.9 299L716.4 300L716.6 302.7L716.1 304.2L716.1 305.8L716.8 306.1L716.8 307.2L715.3 307.7L714.9 309.4L715.4 310.6L716.3 310.4L718.4 311.9L719.9 311.7L720.3 313.9L721.1 315.8L722.7 316.3L723.2 318.4L724.3 320.1L725.3 319.9L726.5 321.1L728.8 321.1L729.3 322.9L729.8 323.1L733.6 320.8L735.1 320.7L735.7 323.1L735.5 324L737.8 326.8L735.4 327.5L734.7 328.6L734.7 330.2L735.2 331.7L736.4 331.8L736.8 333.2L739 336.9L738.9 338.2L740.4 338.7L741.3 338.4L744.9 338.7L746.2 339.5L748 341.4L748.2 339.5L750.8 337.7L751.1 336.9L752.9 336.2L753.7 334.8L754.7 334.2L757.5 333.2L758 333.6L756.3 335L755.4 336.5L753.5 336.6L750 338.4L748.3 340.1L748.4 341L751 341.4L751.2 342.7L752.3 342.7L752.6 344.3L753.9 343.8L755.6 344.7L755.4 345.3L753.9 346.1L753.9 346.8L755 346.4L757.6 347.1L758.5 346L758.6 344.9L756.5 342.3L758.1 342L759.8 343.4L761.5 342.4L761.3 344.8L762 345.9L763.6 346L767 347.8L767.2 347.3L765.1 341.9L764.5 339.7L764.5 337.7L765.9 336.6L769.1 335L773.1 334.3L774.4 333.4L775.2 333.8L776.5 332.6L778.7 331.6L779.4 330.4L779.2 328.3L779.8 327.1L790.2 322.4L791.1 321.5L794.1 320.7L797.4 319.2L801.5 318.4L802.9 317.2L803.5 315.6L804.7 316.3L806.8 315.4L807.8 317.9L808.1 322.4L809.4 324.2L809.5 327L810 327.5L810.4 324.9L811.2 324.2L811 323L813.4 321.7L815.6 321.7L816.4 320.6L816.2 319.1L817 317.9L817.7 318.2L819.3 317.4L820.3 317.5L820.9 318.4L819.3 321.1L818.2 324.2L818.5 324.7L822.5 326L823.4 324.7L824.6 324.4L826 328.3L825.3 329.6L824.2 330.2L824.5 331.5L826.9 331.5L829.5 330.7L832.3 332.5L832.9 331.9L834.3 331.7L835.9 332.4L838.1 332.3L841.2 333.2L842.2 332.2L843 333.5L843.9 332.5L846.9 331.3L847.8 329.1L847.5 328.4L848.5 328.3L849.7 329L851.1 329.2L854.3 327.3L855.6 327.9L856.4 326.5L855.3 325.9L854.4 323.9L852.5 322.4L853 321.7L858.4 321.7L859.5 322L858.7 323.1L858.6 324.8L860 325.6L862.1 325L863.8 323.4L864.9 321.8L865.4 320.4L865.3 315.9L866.6 314.2L866.5 312.8L865.3 311.2L865.2 309.3L866.4 306.7L869.4 304.8L869.7 304L868.6 302.4L865.6 302.9L862.9 304.3L860.1 305.2L858.9 305.2L856 304.4L855.8 303.6L858.1 301.5L858.2 300L857.9 297.3L858.2 293.7L858.6 292.1L859.5 290.3L860.5 289.4L864 288.8L866.8 289.6L869.2 289.5L869.8 288.7L869.9 287.3L868.3 285.6L869 284.6L870.9 284.9L872 283.3L873.9 283.5L874.4 281.8L873.9 280.6L871.7 279.4L871.3 278.3L871.3 276.5L870.2 275.7L870.4 273.9L869.6 274.2L867.7 273.9L868.7 272.5L868.1 271.4L869.2 270.3L868.4 269L870.6 265.8L872.4 264.2L872.5 263.1L870.6 263.5L870.7 261.9L872.5 259.3L874.2 258.9L875.9 256.6L877.4 256.3L879.5 256.9L880.1 258.2L881.7 258L882 256.9L884 255.2L883 254.1L882.7 252.6L881 251.6L880.6 250.7L878.9 250.7L879.6 252.8L878.6 252.7L877.8 251.7L878.5 251.3L877.5 250.7L876.7 251.9L876.1 250.8L874.2 251.3L872 251.3L870.8 251.8L869.1 253.3L866.2 253.7L861.8 253.2L859.8 252.8L858.9 251.9L859.1 250.3L858.2 250L856.4 251.3L853.4 251.9L851.1 252.7L848.6 252.6L847.9 251.9L842.4 252.7L839.7 252.4L839.4 251.5L836.7 251.2L836.1 250L836.1 248.8L836.8 248.1L835.7 246.8L833.9 246.3L833.1 245.3L831.8 245.6L831.2 245.1L830.9 246.3L829.6 245.9L828.7 247L826.7 246.9L825.7 248.9L825.5 250.4L823.7 249.4L823.5 247.8L822.6 246.5L821.7 243.3L822.2 242.4L821.8 241.8L819.8 240.9L820.3 239.1L821.5 239.2L822.3 238.3L823.2 238.2L824.2 236.1L824.2 235.1L821.9 234.7L821.2 233.9L821.9 232.9L820 233L819.1 231.5L818.4 231.9L818.9 233.5L817.1 233.9L815.1 233.3L813 231.3L812.6 232.2L813.5 233.7L813.6 235.2L813 235.7L811.2 234.8L810.3 236.5L809.3 236.8L807.2 236.6L806.8 239.5L805.3 240L805 241.7L803 242.4L801.6 242.3ZM825.5 240.9L829.1 241.1L827.6 240.6L827.3 239.4L826 239.4L825.6 238.7L824.2 240.6ZM833.6 343.5L833.9 344.4L834.7 343.7ZM748.7 346.6L750.3 346L749.5 345.6ZM763.6 349.2L764.8 347.6L763.9 347.2ZM858.3 248.2L859.2 247.8L858.5 247.1Z"/>
  <path class="region" id="adcode-371100" data-name="日照" d="M548.3 502.3L547.2 502.4L545.3 501L543.2 500L542.5 501.9L541.6 502.2L540.7 500.8L539 502.7L536.7 501.9L534.7 502.3L534.6 500L532.5 498.8L532.5 497.4L533.2 496.5L533.6 490.8L532.6 489.3L532.1 487.6L532.5 487.2L532.8 485L532.5 484.1L533.3 483.2L531 480.2L529.2 479.9L529 477.6L530.1 476.6L529.8 475.1L528.6 473.8L526.6 472.6L525.6 472.5L524.4 473.2L522.6 473.5L519.3 475.6L518.5 476.7L516.9 477.7L516.1 477.7L516.7 471.6L516.5 469.7L514.9 467.7L516.4 465.6L515.2 462.4L513.5 461.1L510.3 461.9L508.3 461.2L507.9 458.7L506.5 458.8L502 462.3L499.4 463L496.5 463L494.1 460.9L493.3 461L492.9 462.6L490.5 461.2L491.5 459.6L492.2 459.5L494.2 457.9L495.7 457.7L495.3 456.7L495.6 451.8L495.2 450.6L492.6 451.3L492.4 450.5L490.3 450.9L488.9 451.7L485.3 451.6L484.2 452.2L482.9 451.5L482.2 449.6L481.3 449.3L477.9 449.7L477.3 447.2L478.3 446.1L478.2 445.1L477.1 444.8L477.5 443.4L478.2 443.1L476.9 441.8L475.4 441.4L473.6 444.3L470.8 445.5L464.1 445.8L462.3 447.7L464.3 449.9L463.8 451.6L462.8 452.4L457.7 453.6L455.1 453.6L454 454.8L454.2 457L450.8 457.9L451.1 460.6L449.7 460.4L448.7 463.3L448.6 466.5L448.1 467.1L446.2 467.2L445 469L445.3 471L444.4 472.8L442.6 474.9L442.8 477.5L443.3 478.5L442.9 481.2L443.4 482.2L445 483.1L447.4 483.3L448.9 483.8L453.5 483.2L454 483.4L454.3 484.9L452.9 487.7L452.6 489.6L446.9 497.5L446.5 501.7L447 503.3L446.4 504.9L445.2 505.8L445.3 507.2L442.2 510.5L442.5 512.5L445.3 514.8L446.3 516.2L445.2 518.6L443.6 520.1L442.4 520.4L441.9 519.9L439 520.2L438.4 519.5L437.2 519.9L436.9 520.7L434.8 521.2L435.2 523.7L436.2 524.5L435.5 525L433.7 524.7L431.7 525.9L432.3 529.1L434.3 529.6L434.4 531.8L435.1 532.1L437.3 531.4L440.7 532.1L442.2 530.6L443.6 531.9L444 532.8L445.2 532.1L446.9 533.3L450.2 532.2L451 531L451.8 531.8L453.3 532L455.4 531.4L458.3 531.8L460.1 530.3L460.8 529L461.7 529.4L461.4 532.3L463.4 533.6L465.1 533.8L467 534.8L467.1 536L467.9 537.1L469.8 536.3L471.4 536.7L472.6 535.9L474.1 534.2L474.3 532.3L473.8 530.2L475.5 529.3L478.2 529.6L480.5 530.9L480.9 531.7L482.8 532.6L483.9 532.4L484.2 533.6L485 534L485.1 535.9L486.1 537.7L487.2 537.2L490.3 536.5L491.7 536.6L491.8 537.7L491.1 538.5L491.3 539.4L492.9 541.1L492.7 542.1L493.6 542.7L495.3 543L496.2 547L495.6 547.7L495.6 549.2L494.7 550.7L494.3 553.1L493.3 554.2L490.8 554.5L490.4 555.9L492 556.2L492.8 557.1L493.7 559.3L494.6 559.9L493.5 561L493.6 562.4L494.7 563L496.4 563.1L497.2 564.2L497.9 566.8L499.8 567.3L502 565.1L503.6 565.2L504.9 565.9L507.1 566.2L508.7 569.1L509.2 571.4L514.1 570.4L514.8 571.9L517.4 572.2L516.7 571.1L518 569.7L519.1 569.3L519.9 567.3L520.9 566.8L522.4 567.1L523.1 566.7L522.6 565.4L521.6 564.4L519.3 563.2L518.8 562.4L519.1 560.5L521.4 560.4L521.3 559.2L519.3 559.2L520.8 550.5L522.2 547.3L525.1 543.3L527.9 540.2L530.8 538.4L532.3 538.9L532.8 540.8L533.6 540.8L534.7 541.8L534.8 538.6L536.2 538L536.3 537.3L534.9 537.3L535.3 534.9L539.2 533.6L540.1 532.7L540.3 531.1L539.2 529.8L539.3 527L540.7 523.3L541.5 522L542.9 521.1L543.6 519.8L544.7 514.2L545.8 513.1L547 509.3L548.7 504.9Z"/>
  <path class="region" id="adcode-371300" data-name="临沂" d="M497.9 566.8L497.2 564.2L496.4 563.1L494.7 563L493.6 562.4L493.5 561L494.6 559.9L493.7 559.3L492.8 557.1L492 556.2L490.4 555.9L490.8 554.5L493.3 554.2L494.3 553.1L494.7 550.7L495.6 549.2L495.6 547.7L496.2 547L495.3 543L493.6 542.7L492.7 542.1L492.9 541.1L491.3 539.4L491.1 538.5L491.8 537.7L491.7 536.6L490.3 536.5L487.2 537.2L486.1 537.7L485.1 535.9L485 534L484.2 533.6L483.9 532.4L482.8 532.6L480.9 531.7L480.5 530.9L478.2 529.6L475.5 529.3L473.8 530.2L474.3 532.3L474.1 534.2L472.6 535.9L471.4 536.7L469.8 536.3L467.9 537.1L467.1 536L467 534.8L465.1 533.8L463.4 533.6L461.4 532.3L461.7 529.4L460.8 529L460.1 530.3L458.3 531.8L455.4 531.4L453.3 532L451.8 531.8L451 531L450.2 532.2L446.9 533.3L445.2 532.1L444 532.8L443.6 531.9L442.2 530.6L440.7 532.1L437.3 531.4L435.1 532.1L434.4 531.8L434.3 529.6L432.3 529.1L431.7 525.9L433.7 524.7L435.5 525L436.2 524.5L435.2 523.7L434.8 521.2L436.9 520.7L437.2 519.9L438.4 519.5L439 520.2L441.9 519.9L442.4 520.4L443.6 520.1L445.2 518.6L446.3 516.2L445.3 514.8L442.5 512.5L442.2 510.5L445.3 507.2L445.2 505.8L446.4 504.9L447 503.3L446.5 501.7L446.9 497.5L452.6 489.6L452.9 487.7L454.3 484.9L454 483.4L453.5 483.2L448.9 483.8L447.4 483.3L445 483.1L443.4 482.2L442.9 481.2L443.3 478.5L442.8 477.5L442.6 474.9L444.4 472.8L445.3 471L445 469L446.2 467.2L448.1 467.1L448.6 466.5L448.7 463.3L449.7 460.4L451.1 460.6L450.8 457.9L454.2 457L454 454.8L455.1 453.6L457.7 453.6L462.8 452.4L463.8 451.6L464.3 449.9L462.3 447.7L464.1 445.8L470.8 445.5L473.6 444.3L475.4 441.4L476.9 441.8L478.2 443.1L479.5 443.5L480.8 443.3L481.3 441.5L480 440.8L480.2 439.1L481 437.6L482.5 436.4L482.9 435.5L480.9 434L479.8 434.3L477.8 432.5L477.1 433.2L475.6 433.1L474.3 434.1L472.3 433.2L472.3 432.4L471 432.5L470.6 431.5L469.3 430.4L468.6 431.2L466.3 431.4L466.8 432.3L465.5 434.2L463.1 434.6L462.5 435.2L461.9 434.2L460.2 432.9L460.8 431.2L460.2 431L460 429L460.6 427.7L460 427.1L460.1 424.6L459.6 423.5L458.7 423.2L458.5 421.5L458.9 421L458.7 419.5L457.5 419L454.6 419.6L453.8 419L452 419.8L449.9 418.5L447.6 420.5L448.2 421.7L447.2 424.1L446.3 423.9L446.2 426L446.6 426.7L445.4 427.5L444.2 425.6L443 426.2L442.7 427L440.4 426L440.8 425.1L439.9 423.5L438.8 423.6L437.4 422.6L436.5 422.6L436.1 423.4L434 422.5L432.3 424.3L429.6 426L428.5 425.4L427.6 426.6L427.7 428.9L426.8 428.8L425.2 429.6L424.5 430.5L422.3 431.7L421.7 431L421.1 432.2L423.5 432.4L423.8 433.9L423.1 435.1L421.5 436.4L422.4 437.3L422.1 437.9L423 439.4L423.1 440.7L422.4 443.1L421.4 442.6L421 443.3L419.4 443.1L418 442.4L417.3 443.5L418 444.9L419.2 445.8L419.8 447.3L419.1 448.2L420.5 449.9L421.2 451.3L420.8 451.7L417.4 451.9L416.1 453.1L413 450.7L411.3 447.9L408.2 448.3L407.7 450L405.3 450.6L404.4 452.5L403.5 452.6L400.8 453.9L400.2 453.3L399 453.6L397.9 455.1L396.6 455.3L395.2 456.3L393.9 456.7L393.9 456L392.7 455.8L391.7 454.9L391.6 453.7L390.4 453.7L388.7 452.6L388.4 451.5L386.9 450.2L388.3 449.5L387.4 446L385.2 444.3L380.5 443.4L380.2 442.5L377.7 442.6L376.2 443.3L375.9 444.6L374.9 445L374.3 444.2L374 445.4L373 445.4L372.1 447.6L370.3 448.5L369.2 450.1L369.3 451.4L368.2 452.2L367.9 453.6L364.4 453.7L365.3 455.5L365.5 456.8L364.3 459L363.6 459.4L363.4 461.6L362.1 462.4L361.3 464.2L358.8 463.6L357.3 462.8L355.3 462.3L352.8 462.6L351 464.3L349.7 467L348.3 467.7L346.7 470L346.8 470.8L348.2 472.1L348.7 474.3L347.1 475.6L346.8 477.3L347.4 479.1L347.8 481.7L346.2 482L344.9 482.9L341.6 482.7L340.2 483.7L338.6 486L336.2 485.6L333.5 483.8L330.4 485.5L328.7 486L325.5 486.1L324.5 486.8L322.2 490.7L321.6 494.2L321.3 496.7L320.4 498.2L320.1 501.7L320.9 502.2L320.6 504.4L320.9 505.2L319.7 507L313.8 508L312.3 507.5L310.6 507.5L310.3 508.5L311.1 510.1L312.5 510.7L312.9 511.7L312.2 512.4L310.9 512.6L310.5 513.9L308.7 513.3L307.6 512.4L307.1 512.7L306.6 514.6L305.4 515.7L304.3 518.5L302.8 519.9L305.6 522.1L305.8 524.5L307.1 525.4L307.9 527.7L306.6 529.1L306.7 531.1L304 533.3L304 534.7L304.8 537.2L305.6 538L308.4 539.4L306.6 543L304 543.7L301.8 544.8L302.6 546.5L304 546.9L305.1 548.5L305 550.5L307.2 551L308.5 551.7L310.1 554L311.5 554.9L313.6 554.7L313.8 556.9L316 559.9L316.8 560L318.4 559L319.9 559.6L320.1 561.1L320.7 561.2L321.7 563.5L322.1 563.7L324.2 566.5L327.2 569.2L327.9 571.3L330.1 572.9L331.9 573.6L333.5 574.6L333.1 577.5L336.6 577.4L337.6 578.6L336.8 579.9L335.7 580.6L335.6 584.4L334.8 585.9L335.3 587.2L334.3 588.7L334 590.4L333.1 590.6L332.5 592.4L333.2 594.2L334.3 595.6L335.9 598.1L337.3 598.5L338.5 600.7L339.6 601.9L343.1 603.7L344.1 604.3L343.5 607L341.2 608.3L341.9 609.2L342 611L343.6 612.6L347 613.8L347 616.4L346.2 618L346.4 620.1L347.1 620.8L346.5 623.9L345.8 624.3L344.3 629L345.9 629L347.1 628.1L347.4 628.9L348.9 628.2L349.1 628.9L350.6 629.2L352.2 628.5L352.6 629.2L355 629.2L355.7 625.8L359 626.5L360.3 624.7L361.6 624.7L364.7 625.8L364.6 627L366.4 627.7L366.5 628.9L367.6 628.9L367.9 627.1L371.6 628.4L371.9 627.9L374.2 628L374.9 627.7L376.9 628.8L376 630.3L376.7 631.6L378.1 632.3L378.2 633.3L376.9 636.1L374.7 637.9L374.3 639.2L376.7 639.9L379.5 641.2L380.7 640.1L381.1 641.3L382.5 642L383.6 641.7L385.9 642.7L384.1 645.9L383.8 647.9L381.2 648.9L380.2 650.8L381 651.8L385.2 654.8L385.3 658.5L385.1 660.7L384.4 664.4L385.3 664.6L385.8 663.2L386.5 664.5L388.1 664.9L389.6 664.7L389.8 661.1L391 662L392.3 661.1L396.1 661.3L396.4 660.3L397.4 660.2L397.6 658.6L400.9 659L404.3 658.8L404.5 659.5L407.4 659.8L409.1 658.3L410.1 658.2L411.4 652L412 650.8L413 650L413.9 647.5L414.1 645.2L412.7 640.1L412.2 636.4L413.9 631.7L415.4 632.8L416.6 631.8L417.7 632.1L417.8 630.2L416.9 629.4L416.3 627.5L417.1 625.3L418.9 625.7L420.7 625.2L421.5 623.6L423.1 622.9L423.4 620.2L424.9 620.3L425.7 621L427.1 620.9L428.3 620.2L431.7 619.9L432.1 622.3L435.3 623.6L437.1 622.5L438.7 622.7L440.5 624.7L441.5 624.7L443 623.3L444.8 622.6L446.9 622.7L449 621.4L451.7 618.9L450.1 616.7L449.1 616.4L447 616.9L445.9 615.8L444.7 615.7L444.4 613.3L445.6 612.6L446.8 612.9L447 611L445.7 610.2L446.7 609.5L448.8 609.9L450.7 609.1L451.3 607.2L451 605.9L451.6 604.8L450.1 603.3L450.2 602.3L453.8 602.3L454.1 598.7L456.8 593.6L460.2 589.2L460.1 586.7L460.7 582.6L460.4 578.2L460.8 577.7L463 577.1L465 576.1L465.8 575.2L467.7 574.8L469.5 576.2L471.8 575.4L474.7 575.2L475.5 574.5L478.5 574.2L479.7 574.8L482.3 574.7L483.6 574L488.2 574.3L488.8 573.9L488.8 572.2L489.8 571.4L490.7 568.7L493 568.1L494.4 567.3Z"/>
  <path class="region" id="adcode-371400" data-name="德州" d="M285.8 236.3L286.2 234.5L286.6 231.7L287.5 230.1L289.6 228.4L290.3 226.9L290.6 224.9L290.1 222.3L289.2 221.4L290.1 221.2L290.7 218.4L291.9 216.8L293.9 215.4L293.6 214L294.5 212.1L295.9 213.3L295.7 215.9L295.1 216.8L295 218.9L295.7 220.1L296.7 220.2L298.9 218.6L300.5 216L301.4 217.3L302.8 217.8L304.5 217L305.4 217.3L306.9 219.3L308.2 219.4L309.4 216.3L311.1 215.8L311.4 214.9L314.1 214.6L315.4 212.6L315 211.1L316.8 210.8L315.4 209.4L315.9 207.9L315.5 206.5L314.1 206.4L313.1 205.4L313.6 204.3L315.9 203.7L315.8 202.5L317.3 199.2L318.2 198.5L318 197.4L320.3 196L321.1 194.4L322.2 193.8L322.4 192.9L321.2 191.7L319.6 191L319.5 188.7L318.2 187.7L315.9 187.6L315.4 186.6L315 183.4L313.9 180.8L318.1 178.8L318.4 177.3L317.7 171.5L316.1 169.9L315.2 169.8L313.4 172.8L313 176L312.1 179.2L309.9 181.4L308.6 183.2L307 186.6L303.9 191.7L302.3 192.6L300.4 193.1L297.7 191.6L295.8 191.7L293.6 190.5L290.9 190.6L289 191.9L287 192.7L285.5 193.6L284.3 193.9L278.7 193.1L276.1 192.3L273.7 193.7L272.2 193.7L266 192.3L263.9 192.4L260.2 193.7L258.7 194.7L256.7 194.5L253.1 193.5L250.3 193.7L246.8 192.8L242.5 193.1L238.5 194.4L236.8 193.5L235.1 193.1L235 192.5L233.1 192.7L232.4 193.1L232.2 195.5L230.1 197.6L229.2 198.9L227.8 199.8L228.6 200.2L228.6 203.3L227.6 205.1L227 205.2L225.3 203.8L224.8 204.4L225.4 206.9L223.8 208.2L222.6 207.7L222.7 208.8L220.5 209.1L220 210.2L218.8 214.8L217.6 216.2L216.8 216.4L216.3 215.5L215.8 216.4L216.2 217.8L215.1 219.7L212.2 223.5L209.6 225.1L207 227.4L207.7 227.5L205.8 229.4L205 231.4L202.9 232.5L201.5 235L200.7 235.6L198.8 237.8L196.6 238.4L194.9 240.8L194 244L193.5 244.5L191.3 242.1L190 239.5L188.5 238.6L187.9 237.6L186.3 237.2L186.2 236.2L187.2 234.4L187.1 232.5L186.2 231.7L183.5 231.7L183.7 231.1L182.7 229.6L180.9 229.7L182.6 230.5L179.3 231.9L178.7 231.2L178.7 232.6L177.4 234L177.8 234.5L177.2 236.3L177.8 237.5L176.4 237.4L177 238.4L176.6 239.3L178.5 239.6L177 240.7L178 241.2L177.2 242.1L177.8 242.9L175.6 243.8L176.2 245.4L174 243.8L174.2 243.2L172.3 242L171.6 243.6L170.5 243.6L171.1 246.4L172.6 246.9L172.5 248L170.8 249.9L171.2 251.3L173 251.6L173.3 251.1L175.6 251L174.7 251.6L176 252.2L175.5 252.8L176.9 254.5L175.8 254.9L175.5 256.2L174.5 256.1L173.5 257.9L171.6 260L167.3 259.4L166.2 258.8L164.3 256.9L159.7 258.4L158.6 258.2L157.5 259L155.4 258.4L153.8 259.1L152 259L151.5 260.6L149.2 260.7L148.5 260.2L147.3 261.7L145.8 261.5L146.8 262.5L144.4 262.7L143.1 263.4L144.1 264.9L142.8 265.2L143.1 266.1L144.1 265.9L143.8 267.5L142.6 269.1L142.3 270.4L143.2 271.8L143.1 272.8L142.2 273.2L142.8 274.4L141.8 275.4L142.6 276L142.4 276.9L140.6 279.1L139.3 278.5L137.7 279.6L137.1 279.1L137 280.4L135.9 281.4L135.3 283.8L136.2 285.3L133.9 288.2L132.6 288.9L132.5 290.8L133.2 292.1L132.5 295.3L131.3 298.3L131 300.1L129.9 300.1L130 301.5L127.3 303.7L126.6 305.4L125.2 305.9L125.3 307.3L124.7 308.5L122.8 309.1L121.2 311.1L122.3 312.2L122.1 313.9L122.9 313.3L123.5 314.2L122.5 316.4L120.8 318.6L119.7 318.2L119.6 320.3L120.4 320.8L121.6 322L121.6 323L122.9 321.7L125.2 321.8L125.9 322.5L126.4 321.8L127.3 322.1L127.4 321.1L129.2 321.9L129.7 321.4L130.2 322.5L129.7 323L131.3 323.4L132.1 321.4L132.8 321.2L133.2 322.7L134.2 322.9L137 324.6L140 325.2L146.4 325.8L151.3 324.4L152.6 325.2L154.1 325.1L154.8 325.9L156.6 325.9L156.5 324.8L158.4 324L159.4 324.9L161.9 322.2L163.9 321.3L164.8 319.6L164.8 317.1L166 315.4L166.8 314.9L169 315L168.9 314L169.9 312.7L169.1 312.3L169.1 311.2L171 310.4L171.7 308.5L170.2 308.5L170.6 306.4L171.4 305.4L173.3 306.4L173 307.2L173.8 308.7L175.2 308.4L177.7 310.5L179.4 310.6L179.3 311.2L180.6 312.4L181.4 313.7L183.2 313.7L183.3 312.6L186.1 313.8L186.5 314.9L187.5 314.5L190.4 314.1L192.1 313.2L193.5 314.3L194.4 316.2L196.1 316L197.6 317.2L197.5 318.1L196.5 318L194.5 319.2L194.7 320.4L194.1 321.4L195.2 321.5L195.5 322.8L195 323.6L193.5 322.5L192.1 322.9L191.7 324.4L192.2 324.9L191.5 326.2L191.9 326.8L193.5 326.9L193 328.4L191.2 329L191.4 329.7L190.6 331L190.8 332.2L189.7 334.1L190.6 335.2L190.8 336.4L189.5 336.1L188.9 337L187.1 337.8L189.3 338.4L190.4 342.7L189.6 345.4L189.2 345.4L188.2 347.6L189.4 348.6L190.5 350.4L190.5 352.6L191 354.3L191.2 358.9L190.4 360.4L191 362.7L190.7 367.3L189.8 369.4L189.7 373.9L189.9 375.1L191.2 375.9L193.1 378L194.5 378.7L194.8 380L196.3 381.2L195.9 383.7L196.5 385.3L198.7 385.5L199.6 384.7L201.5 385.6L202.2 386.5L202.1 388L203.7 388.8L205.1 388.4L204.7 389.6L206.2 389.8L205.8 390.9L210.8 389.9L213.1 389L213.9 388.2L214 386.5L213 384.1L213.2 382.1L211.3 381.2L211 380.4L212 379.1L214.4 378.9L214.7 377.3L212.9 376.3L212.7 375.7L214.2 374L215 372.4L216.9 372.4L218.2 371.2L218.7 369.8L218.5 367.8L220.8 367.5L222.1 366L222 363.7L224.2 363.6L227.4 362L229.3 360.3L229.7 357.7L231.2 356.5L231.6 355L231.6 352.3L233.7 351.9L234 350.2L237.1 347.8L238.4 347.3L240.5 346.9L241.9 345.6L243.3 344.9L242.9 343.1L241.5 343L240.9 340.4L241.2 337.1L241.7 335.7L243.4 335.8L242.8 334.1L243.3 332.8L243.9 333.3L246.9 334.2L248.4 334.1L248.7 333.3L248.5 331.2L249.6 331.2L250 332L251.6 331.5L251.5 328.1L251.7 324.5L251 321.4L248.5 320.1L247.2 318.9L248.6 318.9L248.2 317.3L248.4 315.4L245.6 314.9L244.5 315L244.6 313L243.2 312.1L243.2 311.1L242 310L243.8 309.5L245.6 307.3L249.5 305.6L250.1 304.9L249.6 304.1L247.9 302.9L247.5 300.3L246.9 298.7L246.8 297.1L248.2 296L253.8 294.2L256.2 293.2L258.4 293.4L260.6 293L260.9 291.3L262.3 291L261.7 290.4L261.3 287.7L262.5 287.2L262.7 284.7L262 283.4L260.7 282.7L259.8 283L259.9 281.3L258.2 280.2L259.7 279L259.7 277.2L260.4 277L260.2 275.7L259.3 275L259 273.5L260 273.1L258.4 271.4L256 270.5L255 265.5L254.2 263.6L254.3 262.6L256.4 260.9L256.8 260.3L255.6 257.9L256.6 255.7L257.9 253.9L257 252L257.7 249.7L259.1 248.7L259.9 249.8L265.5 249.8L267 248.3L267.3 247L266.6 245L267.8 243.7L269.4 243.1L270.6 244.3L273.7 243.8L275.1 242.8L277.6 242.6L280 239L281 236.8L281.9 236.3L284.4 236.7Z"/>
  <path class="region" id="adcode-371500" data-name="聊城" d="M205.8 390.9L206.2 389.8L204.7 389.6L205.1 388.4L203.7 388.8L202.1 388L202.2 386.5L201.5 385.6L199.6 384.7L198.7 385.5L196.5 385.3L195.9 383.7L196.3 381.2L194.8 380L194.5 378.7L193.1 378L191.2 375.9L189.9 375.1L189.7 373.9L189.8 369.4L190.7 367.3L191 362.7L190.4 360.4L191.2 358.9L191 354.3L190.5 352.6L190.5 350.4L189.4 348.6L188.2 347.6L189.2 345.4L189.6 345.4L190.4 342.7L189.3 338.4L187.1 337.8L188.9 337L189.5 336.1L190.8 336.4L190.6 335.2L189.7 334.1L190.8 332.2L190.6 331L191.4 329.7L191.2 329L193 328.4L193.5 326.9L191.9 326.8L191.5 326.2L192.2 324.9L191.7 324.4L192.1 322.9L193.5 322.5L195 323.6L195.5 322.8L195.2 321.5L194.1 321.4L194.7 320.4L194.5 319.2L196.5 318L197.5 318.1L197.6 317.2L196.1 316L194.4 316.2L193.5 314.3L192.1 313.2L190.4 314.1L187.5 314.5L186.5 314.9L186.1 313.8L183.3 312.6L183.2 313.7L181.4 313.7L180.6 312.4L179.3 311.2L179.4 310.6L177.7 310.5L175.2 308.4L173.8 308.7L173 307.2L173.3 306.4L171.4 305.4L170.6 306.4L170.2 308.5L171.7 308.5L171 310.4L169.1 311.2L169.1 312.3L169.9 312.7L168.9 314L169 315L166.8 314.9L166 315.4L164.8 317.1L164.8 319.6L163.9 321.3L161.9 322.2L159.4 324.9L158.4 324L156.5 324.8L156.6 325.9L154.8 325.9L154.1 325.1L152.6 325.2L151.3 324.4L146.4 325.8L140 325.2L137 324.6L134.2 322.9L133.2 322.7L132.8 321.2L132.1 321.4L131.3 323.4L129.7 323L130.2 322.5L129.7 321.4L129.2 321.9L127.4 321.1L127.3 322.1L126.4 321.8L125.9 322.5L125.2 321.8L122.9 321.7L121.6 323L121.6 322L120.4 320.8L120 322.4L119.2 323.2L117.3 322.8L116.7 324.1L115.7 324.5L114.1 326.1L112.8 328.2L112.9 329L111.6 331.8L112 333.3L111.1 335.6L109.7 336.1L109.1 335.7L107.4 336.3L105.9 337.7L100.1 340L98.8 340.8L97.5 339.6L97.6 340.7L96.6 340.7L96.3 339.7L95.1 339.6L94.9 341.1L94 341L93.4 342.3L91.5 341.4L89.9 342.6L88.5 343L88.1 345L86.5 346.7L86.4 348.7L85.4 349.2L85.5 350.8L85 351.8L82.1 352.9L81.2 354.3L80.5 356.1L78.3 357.1L78.5 358.4L77.5 360.3L76.1 361.8L74.9 361L73.8 363.1L74.4 363.9L73.4 364.3L73.3 365.4L74.5 365.5L74.4 366.2L73 366.3L72.6 367.2L72.3 371.6L69.7 374.7L68.9 374.9L68.3 373.9L67.6 374.6L68.3 375.3L68 376.5L68.5 377.3L67.7 378.8L65.9 378.8L66.2 380.3L67 380.3L67.2 381.7L68.2 381.7L67.6 382.6L67.9 383.9L68.9 383.1L70.7 384.8L70.7 387.7L70.2 387.6L68.6 390.3L70.3 391.2L71.6 391.4L73.2 392.4L74.2 394.2L74.3 397.2L76.4 400L76.6 401.3L75.4 403.2L76.2 404.6L79.2 402.7L81.5 402.2L82.4 402.8L82 404.3L82.4 405.4L81.7 406.8L83 407.7L83.8 409L84.9 409.4L86.7 409L87.4 410.5L87 412.6L88.2 413.1L88.2 416.9L88.5 418.1L88.2 420.4L88.7 423.3L89.2 427.6L89.1 429.5L88 433.3L87.4 434.1L87.1 435.8L86.4 435.7L85.9 436.9L86.4 438L84.4 439.1L85.2 440.2L85.1 445L84.6 445.4L82 446L79.4 447.8L78.3 450.1L75.8 450.4L75.1 452.8L74.8 455.1L75.9 456.2L76.3 457.5L75.9 461L74.9 464.4L73.6 464L73 465L74.3 465.5L73.7 468.5L72.8 471.8L72.7 474.2L75.8 476.5L76.6 475.3L80.7 472.6L81.8 470.4L83.4 469.2L83.6 468.5L86.4 464.6L89.5 462.8L90.3 460.7L89.8 459.1L91.4 458.3L92 459.1L91.4 460.3L92.3 461.5L96.1 460.5L100 457.3L102.6 456.7L106.5 457.5L107.5 456.3L110.1 455L111.1 454.2L111.4 452.7L112.7 451.2L114.8 450.5L116.4 451.1L119.9 450.6L121 450.1L121 449.1L122.3 447.8L121.6 447.5L123.5 445.7L125.7 444.9L127.9 445.1L128.9 446L130.4 446.1L131.4 444.5L134.4 443.1L136.9 444L138.7 442.4L141.8 441L144.7 440.5L147.6 438.3L149 436.8L152.1 432.4L156.7 431.4L158.3 430L159.4 428.1L163.9 426.8L163.9 423.7L164.4 423.3L169.2 423.5L170.6 423L171.6 422L173.8 418.9L176.6 416.4L177.3 414.1L179.6 411.3L180 409.8L181.3 407.9L182.2 407.1L187 405.3L190.5 403.2L193.1 403.3L194.3 402.8L195.2 400.7L199.1 400.8L201.2 396.2L202.9 394.3L203.9 393.9ZM90.3 460.7L89.5 462.8L91.2 461.7L92.3 461.5L91.4 460.3Z"/>
  <path class="region" id="adcode-371600" data-name="滨州" d="M285.8 236.3L286 237.2L287 237.8L287.2 239.4L289.5 239.8L290.6 240.9L290.1 242.6L287.1 243.7L286.9 244.8L289.2 245.5L289.5 246.1L288.2 247.2L289.7 248.1L294.5 247.6L296.4 249.7L296.2 252L295.3 253.9L296.2 255.2L299.8 257.6L301.4 259.6L300.5 261.1L301.2 261.7L300.7 265.5L301.6 269L303 270.6L303.2 272.4L303.7 272.3L303.9 274.3L304.5 275.4L303.1 274.8L302.4 276.3L302.9 276.8L300.6 276.8L299.9 278.9L300.2 280L301.7 282.3L303.6 284.5L304.4 286.3L304.5 288.3L305.3 288.7L305.3 290.1L305.8 293.7L306.3 294.7L304.3 297L300.7 297.6L298.7 298.4L295.9 300.3L292.7 299.7L293 302.1L292.7 303.4L291.6 304.9L290.4 305.7L290.6 307L291.8 308.3L294.6 309.4L295.9 310.6L297.3 315.8L298.8 316.5L300.1 316.1L300.4 316.8L301.3 315.8L301.5 316.4L304.6 315.6L306.1 315.7L308.2 315.2L308.1 314.2L310.1 313.7L311.8 314.1L312.9 315.8L314.7 312.8L316.1 312.7L316.7 313.9L316.1 314.7L317.9 315.4L317.8 317.4L316.6 318L316.3 319L315 317.9L314.4 319.3L318.3 321.5L319.9 324.4L320 325.5L319.5 326.7L319.2 328.7L319.5 330.3L322.6 334.4L327 336.6L330.2 339.7L331.3 342.3L332.2 343.7L335.3 343.4L337.9 344.4L336.7 347.1L337 348.2L334.7 350.4L334.6 351.4L335.5 351.8L338.6 351.5L341.2 351.8L341.7 350.7L342.9 350.1L343.1 348.4L344.8 346.4L345.9 343.4L346.6 342.5L347.4 344L347.3 344.9L349.4 344.1L349.2 342.2L348.1 340.5L346.5 340.7L346.3 339L345.4 338.9L345.3 337.7L345.9 337.2L346.1 333.9L347.2 332.3L346.7 329.7L347.3 329.1L349.9 329.1L350.9 328.2L351.9 329L353.7 328.5L353.7 327.5L356.5 327.8L356.7 326.4L357.9 325L359.1 324.8L359.1 323.5L360.2 323.3L361.3 322.2L361.4 320.5L360 321.1L359.4 319.5L358.5 321.5L358.6 318.8L358.1 317.9L356.1 316.3L355.8 315L356 313.3L355.4 312.4L351.4 311.9L351 310.8L350.9 308.9L351.4 308L350.9 306.6L348.2 306.3L348.1 305L348.9 300.8L343.7 300.1L340.5 300.4L339.5 300.8L337 300.9L335.6 300.4L333 300.4L329.8 299.8L326.6 298.3L323.8 297.5L322.6 297.4L320.7 298.2L318.9 297.6L318.1 294.7L319.1 294.1L318.9 293.2L317 292.8L316.3 289.7L318.8 289L320.2 287.8L320.8 286.5L321.5 281.9L323.4 280.6L324.7 278.4L325 275.8L326.5 273.2L328.2 272.1L330 272.6L331.9 274.4L335.9 275.5L339.3 276.1L340.8 276.1L341.7 275.6L345.7 271.8L347.9 270.9L349.2 270.9L352.2 272.2L353.4 273.7L355.7 273.3L359.2 271.2L360 272.9L359.8 273.7L361.7 272.4L364.6 273.7L364.6 275.6L365.2 275.9L363.5 277L362.8 280L363.5 279.7L363.9 280.9L365 280.6L366.8 281.3L367.8 280.9L368.1 279.3L369.7 279.4L370.7 280.1L370.9 281.6L372.7 280.9L373.8 281.8L374.2 283.8L374.8 284.3L373.5 285.4L373.8 286.4L372.5 287.5L372.2 289.1L372.8 290.7L374.4 293.2L373.2 293.9L371.9 295.3L370.6 295.3L370.7 296.4L371.9 297L372.6 298.5L375.1 297.2L377.9 296.8L378.4 296L380 297.3L380.6 299.2L380.6 300.9L382.9 300.9L383 301.9L382.2 302.3L382.3 303.4L381 303.8L380.9 305.3L380.4 306.3L380.9 307.9L380.9 309.1L382.5 309.8L382.3 311.5L383.4 311.5L383.3 312.4L386.8 312.9L387.1 314.4L388.7 315L390.1 314.4L391.1 313.4L391.5 311.9L392.8 311.8L393.2 309.5L394.5 309.5L395.5 309L397.4 309.9L397.5 308.6L399.5 307.1L399.7 306L401.5 305L401.3 303.5L402.7 302.5L402.8 299.9L402.2 298.6L402.9 297L402.8 295.7L404 295.9L402.8 292.9L403.7 292.8L403.1 291.7L403.8 290.6L404.8 290.7L405.4 289.4L405.9 289.7L407.1 288.6L407.5 285.7L408.2 285.4L407.8 283.6L407 282.7L407 281.5L405.7 280.9L403.7 277.7L404.2 276.3L405.2 276.2L406.1 274.2L406.9 274.2L406.5 272.1L405.5 272.1L406.1 271.3L405 271.2L404.7 270.3L403.2 270.3L403.2 269.2L401.4 268.9L401.5 267.6L400.8 267.7L400.3 266.5L400.3 261.3L397.2 261.3L397.7 260.4L397.1 259.8L395.7 260.2L394.4 259.6L394.1 257.6L392.7 257.9L392.6 259.1L390.1 259.1L389.6 258.6L389.5 256.7L387.8 257.1L383.3 259.9L382.8 259.6L382.7 257.8L381.2 257.9L380.5 256.8L381.5 255.7L383.4 256.1L383.2 254.7L383.8 253.6L383.7 252.4L382.1 249.4L380.6 248.9L378.3 249.2L378.7 246.9L379.4 246.5L378 245.9L378.9 243.5L379.8 243.1L379.7 242L380.5 241.3L380.4 239.8L381 239.8L380.7 238.5L381.3 238.2L382.2 236.6L382.9 236.6L383.2 235.4L384.7 234.3L385 232.9L384.7 232L381.2 233L380.4 232.7L380.9 230.9L380.1 231L379.7 230L380.5 228.4L382 227.8L381.8 227L382.7 226.2L382.9 224.2L382.7 223.1L383.6 222.7L383.8 220.8L384.6 220.9L385.1 219L387.1 218.4L387.7 217.6L388.4 218.4L390.4 218.1L392 219.2L392.7 218.9L394.3 219.4L396.9 218.4L397.9 217.2L398 216.1L399.2 215.4L399.1 214.4L400.4 211.1L400.7 211.3L400.5 209.1L402.7 209L403.2 206.6L404.5 206.1L404.4 205L403.1 204.2L403.1 202.8L403.9 200.5L405.4 200.3L404.4 197.2L404.8 196.3L403.5 195.8L403.7 194.7L402.4 194.7L403 193.9L401.7 190.1L400.1 190.6L398.8 189.4L397.1 191.3L395.3 191.8L394 193L394 191.6L392.9 189.2L393 191.1L391.9 189.6L391.6 187.4L392.4 185.9L391.5 184.5L391.2 182.1L390.4 182L390.6 179.7L390.3 178.2L389.3 178.4L389.1 177.5L390.2 176.9L389.9 173.8L390.9 173.2L390.2 171.2L390.6 166L391 163.4L390.5 160.2L391.5 159.7L392.6 156.9L392.2 155.7L390.7 154.7L391.6 153.8L392.6 151.2L389.5 150.8L385.2 145.3L378 142L370.6 141.4L369.3 142.6L367.7 143L365.4 141.7L358.5 135.7L354.3 132.3L353.9 131.1L354.2 129.2L350.3 133L348.9 135.8L346.2 138.4L344.6 139.4L344.3 140.9L343.4 142.3L343.2 144.3L342.5 146.1L343.8 146.9L343 147.9L340.5 148.1L340 149.2L340.6 151.9L340.2 152.9L337.4 154.1L336 156.2L335.9 158.2L333.2 160.7L330.4 160.2L328.9 161.2L326.6 161.2L323.5 161.7L322.2 161.1L319.9 161.5L319 162.2L317.8 162.4L316.9 163.3L317.3 165.6L315.7 167.6L315.2 169.8L316.1 169.9L317.7 171.5L318.4 177.3L318.1 178.8L313.9 180.8L315 183.4L315.4 186.6L315.9 187.6L318.2 187.7L319.5 188.7L319.6 191L321.2 191.7L322.4 192.9L322.2 193.8L321.1 194.4L320.3 196L318 197.4L318.2 198.5L317.3 199.2L315.8 202.5L315.9 203.7L313.6 204.3L313.1 205.4L314.1 206.4L315.5 206.5L315.9 207.9L315.4 209.4L316.8 210.8L315 211.1L315.4 212.6L314.1 214.6L311.4 214.9L311.1 215.8L309.4 216.3L308.2 219.4L306.9 219.3L305.4 217.3L304.5 217L302.8 217.8L301.4 217.3L300.5 216L298.9 218.6L296.7 220.2L295.7 220.1L295 218.9L295.1 216.8L295.7 215.9L295.9 213.3L294.5 212.1L293.6 214L293.9 215.4L291.9 216.8L290.7 218.4L290.1 221.2L289.2 221.4L290.1 222.3L290.6 224.9L290.3 226.9L289.6 228.4L287.5 230.1L286.6 231.7L286.2 234.5ZM410.5 167.7L411.8 167.8L411.7 163.9L410.7 163.9Z"/>
  <path class="region" id="adcode-371700" data-name="菏泽" d="M132.2 464.7L131.7 465.9L131.8 463.9L131 464.5L130.4 465.9L128.3 466L128.3 467L126.2 466.6L125.6 467.8L120.9 466.4L119.8 468.6L118.6 468.6L118.7 469.3L116.6 469.3L115.9 471.7L115 471.5L114.7 473.4L113.5 473L113.3 475.3L112.4 475.3L112.6 478.1L112.1 480L109 480.4L106.6 481.4L104 482L100.6 482.1L100 483.2L97.7 482.1L96.6 483.2L94.5 482.7L93.5 483.7L92.1 483.6L89.3 485.9L86.6 489.9L85.6 492.6L84.2 495L81.6 497.6L81.1 500.4L79.2 502.6L78.7 503.9L78 503.9L78 505L76.6 504.8L76.5 506.3L75.4 505.5L75.2 507L73.8 507.1L73.9 508L75.5 508.5L74.7 508.9L74.4 510.4L75.2 513.5L75 515.7L73.1 515.6L69.6 517.1L67.4 519.1L65.6 520.2L65.8 521.3L64.2 523L62 524.7L58.9 524.7L57.6 525.1L56.7 524.5L54.3 524.3L50.9 524.9L49.8 525.4L49.8 526.7L48.8 527.8L48.8 525.4L48.5 527.3L47.5 527.3L45.9 525.7L45.2 526.5L45.6 528.8L44.2 531.2L42.2 530.7L40.6 531L39.7 532.1L38.7 535.1L37.8 535.9L37.5 538.9L36.4 539L34.5 541L31.9 544.9L33.2 545.3L33.2 546.5L31.2 546.6L30.9 547.3L28.1 548.3L28.4 555L28 555.5L25.9 555.5L22.3 556.3L20.7 557.2L19.4 558.5L18.4 560.3L18.5 561.3L20.5 563.2L21.9 564.7L23.1 566.9L23 568.4L22.3 569.4L20.6 570.5L17.4 571.7L16 574.7L17.6 576L19.5 576L20 576.8L19 578.5L16.9 580.3L20.4 581.3L21.6 578.4L23.2 578.7L22.7 581.2L23.7 582.5L25.7 583.1L26.4 584.6L27.5 585.8L28.7 584.2L30 583.2L32.6 582.9L36.8 583.2L37.6 584.7L39 585.4L40 584.1L41.5 583.5L44.1 581.6L47.5 581.5L49.9 581.1L50.5 581.7L50.3 583.9L52 584.3L53.2 586.1L53.1 587.3L55.1 586.7L58 588.2L58.8 587.2L60 586.9L60.3 589L59.1 589.3L58.2 591.6L58.4 593.2L62.2 593.5L63.6 594.2L63.3 595.8L62.3 597.2L62.2 598.5L62.6 601.7L64 602.4L66.1 601.1L67.7 601.6L69.1 600.6L70.7 600.5L72.1 601.6L73.9 602.3L75.1 603.5L77.6 604.6L79.2 604.2L80.8 605L81.6 606.7L81.4 607.4L82.8 607.7L85.3 615.9L83.9 617.2L83.6 618.5L84.8 620.5L85 622L84.8 625.2L86.2 627.7L86.6 630.2L88.5 631.7L89.9 634.3L92.5 637.5L94.7 638.8L96.8 639.3L97.6 638.9L99.3 639.1L104.2 638.6L106.2 639L106.6 639.5L109.5 640.9L111.1 641.1L112.5 639.3L112.7 635.4L114.1 635.4L114.8 636.4L119.6 636.8L123.4 638.1L124.1 638.9L126.8 640.8L128.1 640.5L128 639.5L129.3 639.8L130.2 639.2L139.9 637.7L142.5 637.5L144 636.6L144.1 634.2L144.8 633.2L146 632.7L146.9 633.1L148.4 634.9L149.9 636.1L151.8 635.8L154.9 634.1L156.9 634.4L158.7 636.6L159.5 638.9L160.6 640.6L161.9 641.4L163 641.4L166.7 639.1L167.7 638.2L169.6 638.5L171.4 641.2L173 641.6L173.6 639.8L174.3 639.5L175 637.4L176 637.3L176.4 634.9L177.2 634L178.9 634.2L180 635L181.5 635.1L182.5 632.4L184.4 632.4L186.7 630.7L186.9 629.9L185.8 628.3L187.4 626.1L187.3 624L188.1 623.6L188.2 622.5L189 621.3L188.9 620.5L187.2 619.4L185.8 619.8L186.3 618.5L186 616.1L186.6 615.1L190.1 614.3L190.5 605.8L190.8 601.4L186.9 599.7L185.8 600.3L182.6 600.1L182.6 599.3L181.6 598.4L178.7 598L177.3 597.5L175.1 595.4L170.7 593.5L169.3 593.3L167.9 592.4L166.9 589.8L163.6 589.2L162.8 588.7L163.6 587.3L164.6 586.4L164.6 585.1L161.2 582.3L158.5 578.2L158.4 576.3L158.9 574.5L161.3 574.3L161.2 573.6L162.7 569.8L161.3 569.5L162.7 566.4L165.8 566.6L168.3 562.1L169.4 560.8L170.4 558.4L170.2 557.2L169.2 555.2L170.9 555.5L171.6 554.8L171.6 553.7L173.1 555.4L175.4 556L177 551.4L177.2 549L175.4 545.4L175 545.2L171.9 546.5L170.4 546.7L169.5 542.5L167.7 540.7L167.1 536.3L168 535.2L169.4 534.5L170.1 533.4L170.4 531.7L169.5 528.7L169.2 526.6L169.5 525.2L169.5 523L168.3 523L168 520L168.5 519L167.4 519.3L166.5 518.7L166.5 517.4L165.3 518.9L165.4 521.1L164.3 520.8L163 521.5L163.5 518.2L162.3 518.5L160 517.7L159.9 515.8L159.1 514.6L159.6 512.2L159.4 508.9L158.5 505.4L158.4 503.9L159.5 502.5L159.5 501.7L158.6 499.9L158.5 498.4L160.6 495.6L159.8 494.2L159.2 490.8L157.1 489L155.7 487.4L154.6 485.6L153.6 484.7L150.4 482.7L148.7 480.6L147.7 479.7L142.5 476.2L139.8 474.9L137.2 473.9L137.7 473.1L136.1 472.2L134.6 473.1L133 472.7L132.3 471L132.1 469Z"/>
</svg>