<svg xmlns="http://www.w3.org/2000/svg" viewBox="0 0 900 780" role="img">
  <title>台湾省市级地图</title>
  <style>
    .region{fill:#edf2e3;stroke:#16342f;stroke-width:0.7;stroke-linejoin:round;vector-effect:non-scaling-stroke}
    .region:hover{fill:#c84632}
  </style>
  <rect width="100%" height="100%" fill="#fdf7e7"/>
  <path class="region" id="adcode-710000" data-name="台湾省" d="M187.9 661.9L200.3 667.9L209.1 676.4L221 698.3L224.1 714.1L224.5 729.9L222.8 736.1L225.6 745.1L231.3 755.3L238.2 757.4L244.7 755.9L256.9 763.2L260.1 760.7L258.9 744.9L265.8 736.1L266.7 726.4L265.1 719.2L267.1 687.2L278.3 646.1L283.9 636L287 623.8L294.6 620.4L310.1 610.6L316.8 602L321.3 590L327.9 582.6L335.9 570.1L341 558.3L343.7 544.7L350.2 541.4L353.8 535.1L351.2 524.3L355.4 510.4L362 501.2L365 483.4L369.1 471.7L369.3 461.5L380.2 420.8L385.9 391.4L392.3 375.5L389 364.9L389.6 358.8L395.4 352.2L397.2 344.7L417.4 314.3L420.3 298.8L427.3 288.5L430.3 279.1L431.4 262.8L426.4 253L422.8 241.3L423.4 222.4L438.2 203.5L451.6 191.8L446.3 186.4L440.6 186.2L435.6 166.5L422.9 167L412.9 162.3L406.7 162L400.4 156.5L399.1 150L391.6 147.1L386.2 137.4L379.7 134.7L371.4 135L356.1 141.8L350.9 147.7L343.9 162.4L335.1 166L316.6 168.5L303.7 177.5L298.6 178.1L285.5 184.6L283 193.2L274.9 203.2L267.1 217.2L263.3 235.2L251.8 249.9L241.4 255.4L229.1 266.1L221.3 286.5L212.3 297.1L205.2 308.6L200.8 319.4L192.4 332.2L189.2 343.2L179.2 355.1L166.4 379.6L160 390.1L154.6 406.2L142.7 412.2L130.5 431.8L129.3 452.6L133.7 467.8L131.5 497.7L127 506.8L116.4 546.7L118.3 551.3L135.7 560L138.4 579L147 611L159.4 640.3L163.2 645.5ZM877 23.8L884 22.9L881 16.8ZM692.4 57L696.6 59.5L703.1 57.6L703.7 51.6L698.1 49L692.5 52.6ZM53.8 459.3L61.4 460L59.2 450.3L47.8 449.6L46.3 454.8L40.4 453.1L39.7 463L42.5 468.2L47.6 468ZM729.7 21.9L736.5 21.7L733.6 17.1ZM30.3 445.6L30.3 454.5L24.6 458.2L32.5 457.7L33.5 445.7ZM28.8 489.4L28.4 496.1L32 496.1ZM38.9 438.1L47.5 446.6L48.6 439.1L43.7 436.4ZM460.7 75.9L464.1 78.5L465.1 73.2ZM360.1 619.1L361.2 625.1L367.7 627.3L367.9 619.2ZM367.2 726.3L366.7 733.3L371.2 738.1L381.3 742.9L383.1 738L378.1 735.4L378.2 726.8ZM465.9 99.2L468.1 105.5L470 100ZM16 520.5L18.5 526.1L21.4 520.6ZM173 682.7L179.8 679.9L177.7 677.5Z"/>
</svg>